<svg xmlns="http://www.w3.org/2000/svg" width="191.2" height="140.5"><style>.st0{fill:#1d1e1c}.st1{fill:#fff}</style><path class="st0" d="M169 31.2h-13.9V17.3H45.8v13.9H32v82h13.8v13.6h41v8.3h6.8v5.4h13.7v-5.4h6.8v-8.3h41v-13.6H169z"/><path class="st1" d="M164.1 27.3h-13.8V13.4H41v13.9H27.2v82H41v13.6h41v8.3h6.8v5.4h13.6v-5.4h6.9v-8.3h41v-13.6h13.8z"/><path class="st0" d="M103 137.1H88.3v-5.4h-6.8v-8.3h-41v-13.7H26.7v-83h13.8V12.9h110.3v13.9h13.9v83h-13.9v13.7h-41v8.3H103v5.3zm-13.7-1H102v-5.4h6.8v-8.3h41v-13.7h13.9v-81h-13.9V13.9H41.5v13.9H27.7v81h13.8v13.7h41v8.3h6.8v5.3z"/><g id="XMLID_1_"><path class="st0" d="M107.6 109.6h-42V90.5h5.8v-6.9h6.1V61.3H83V48.1h35.7v13.5h17.9V80h-16.5v4.8h4.3v7.1h-16.8v17.7zm-41.3-.7h40.6V91.1h16.8v-5.7h-4.3v-6.2h16.5V62.3H118V48.8H83.6V62h-5.5v22.3H72v6.9h-5.8v17.7z"/><path fill="none" stroke="#1d1e1c" stroke-miterlimit="10" d="M93.7 55.4h6.8v6.8h-6.8z"/><path class="st0" d="M97.1 73.6h5.4v5.8h-5.4zM91.6 67.8H97v5.8h-5.4zM102.5 79.3h17.2v6.2h-17.2z"/></g><path class="st0" d="M96.9 32.6H75.1v4.1h-5.7v3.8h-6.6v4.7h-4.3v4.4h-4.6v39.7h4.6v6h4.9v5.4h35.5v-3.5h-10v-4.7h-5.8V43.9h6.1v-4.1h7.7zM134 100.7H99.8v-.8h33.5v-5.3h4.4v-5.9h4.2V50.2h-4.2v-4.4h-3.9v-4.7h-6v-3.7h-5.3v-4h-25v-.8h25.8v4h5.2v3.8h6v4.7h4v4.3h4.1v40.1h-4.1v5.9H134z"/><path class="st1" d="M100.4 100.7h-2.9v-2H87.4v-4.8h-5.7V42.5h6v-4.1h7.8v-5.8h2.8v8.7h-7.7v4.1h-6v45.7h5.7v4.7h10.1z"/><path class="st0" d="M100.7 100.7h-3.6v-2h-10V94h-5.7V42.4h6v-4.1h7.7v-5.8h3.6v9.3H91v4.1h-6v44.5h5.7v4.7h10v5.6zm-2.9-.7h2.2v-4.2H90v-4.7h-5.7V45.2h6v-4.1H98v-7.9h-2.2V39h-7.7v4.1h-6v50.2h5.7V98h10v2zM122.6 64.2h3.2v3.2h-3.2zM131 64.2h3.2v3.2H131z"/><path class="st0" d="M88.9 52h7.6v1.5h-7.6z"/><path class="st1" d="M69.6 64.1V28.4h-2.7v35.7h-4v11.2h11.2V64.1z"/><path class="st0" d="M74.5 75.7h-12v-12h4V28h3.4v35.7h4.5v12zM63.2 75h10.5V64.4h-4.5V28.7h-2v35.7h-4V75z"/><path class="st0" d="M65.2 22.8H71v5.8h-5.8zM96.1 55.5h4.4v4.4h-4.4z"/><path class="st1" d="M96.8 56h1.5v1.5h-1.5zM98.5 57.5h.8v.8h-.8z"/><path class="st0" d="M177.6 122.9h13.7v13.7h-13.7zM177.6 13.7h13.7v13.7h-13.7zM13.7 0h13.7v13.7H13.7zM0 68.3h13.7V82H0z"/></svg>