<svg xmlns="http://www.w3.org/2000/svg" width="191.2" height="140.5"><style>.st0{fill:#fff}.st1{fill:#3f245e}.st2{fill:#75b843}.st3{fill:#efefef}.st4{fill:#dbd9dc}</style><path class="st0" d="M169 31.2h-13.9V17.3H45.8v13.9H32v82h13.8v13.6h41v8.3h6.8v5.4h13.7v-5.4h6.8v-8.3h41v-13.6H169z"/><path class="st1" d="M164.1 27.3h-13.8V13.4H41v13.9H27.2v82H41v13.6h41v8.3h6.8v5.4h13.6v-5.4h6.9v-8.3h41v-13.6h13.8z"/><path class="st0" d="M103 137.1H88.3v-5.4h-6.8v-8.3h-41v-13.7H26.7v-83h13.8V12.9h110.3v13.9h13.9v83h-13.9v13.7h-41v8.3H103v5.3zm-13.7-1H102v-5.4h6.8v-8.3h41v-13.7h13.9v-81h-13.9V13.9H41.5v13.9H27.7v81h13.8v13.7h41v8.3h6.8v5.3z"/><g id="XMLID_1_"><path class="st2" d="M119.7 85.1h4.3v6.4h-16.7v17.8H65.9V90.9h5.8V84h6.1V61.7h5.5V48.5h35l-.1 13.5h18v17.6h-16.5z"/><path class="st3" d="M93.7 55.4h6.8v6.8h-6.8zm3.4 19.1h5.4v5.1h-5.4zm-5.5-5.1H97v5.1h-5.4zm10.9 10.2h17.2v5.5h-17.2z"/></g><path class="st0" d="M96.9 32.6H75.1v4.1h-5.7v3.8h-6.6v4.7h-4.3v4.4h-4.6v39.7h4.6v6h4.9v5.4h35.5v-3.5h-10v-4.7h-5.8V43.9h6.1v-4.1h7.7zm37.1 68.1H99.8v-.8h33.5v-5.3h4.4v-5.9h4.2V50.2h-4.2v-4.4h-3.9v-4.7h-6v-3.7h-5.3v-4h-25v-.8h25.8v4h5.2v3.8h6v4.7h4v4.3h4.1v40.1h-4.1v5.9H134z"/><path class="st4" d="M100.4 100.7h-2.9v-2H87.4v-4.8h-5.7V42.5h6v-4.1h7.8v-5.8h2.8v8.7h-7.7v4.1h-6v45.7h5.7v4.7h10.1zm22.2-36.5h3.2v3.2h-3.2zm8.4 0h3.2v3.2H131z"/><path class="st4" d="M88.9 52h7.6v1.5h-7.6zm-26 12.1h11.2v11.2H62.9z"/><path class="st4" d="M66.9 28.4h2.7V66h-2.7z"/><path class="st2" d="M65.2 22.8H71v5.8h-5.8z"/><path class="st1" d="M96.1 55.5h4.4v4.4h-4.4z"/><path class="st3" d="M96.8 56h1.5v1.5h-1.5zm1.7 1.5h.8v.8h-.8z"/><path class="st0" d="M177.6 122.9h13.7v13.7h-13.7z"/><path class="st2" d="M177.6 13.7h13.7v13.7h-13.7z"/><path class="st0" d="M13.7 0h13.7v13.7H13.7z"/><path class="st2" d="M0 68.3h13.7V82H0z"/></svg>