<svg xmlns="http://www.w3.org/2000/svg" xmlns:xlink="http://www.w3.org/1999/xlink" viewBox="0 0 191.47 40"><defs><style>.cls-1{fill:none;stroke-miterlimit:10;stroke:url(#Degradado_sin_nombre_40);}.cls-2{fill:#fff;}</style><linearGradient id="Degradado_sin_nombre_40" y1="20" x2="191.47" y2="20" gradientUnits="userSpaceOnUse"><stop offset="0.01" stop-color="#ff7266"/><stop offset="1" stop-color="#cc0f59"/></linearGradient></defs><title>logotipo-placeholder</title><g id="Capa_2" data-name="Capa 2"><g id="Capa_1-2" data-name="Capa 1"><g id="_Grupo_" data-name="&lt;Grupo&gt;"><rect class="cls-1" x="0.5" y="0.5" width="190.47" height="39" rx="19.5" ry="19.5"/><g id="_Grupo_2" data-name="&lt;Grupo&gt;"><path class="cls-2" d="M45.65,28.14v-14H48v12h6.67v2Z"/><path class="cls-2" d="M62.85,28.37a7.29,7.29,0,0,1-3.54-.8,5.14,5.14,0,0,1-2.21-2.39,9.44,9.44,0,0,1-.75-4A7.79,7.79,0,0,1,58,15.74a6.25,6.25,0,0,1,4.84-1.82,7.26,7.26,0,0,1,3.54.8,5.22,5.22,0,0,1,2.21,2.4,9.34,9.34,0,0,1,.77,4,7.73,7.73,0,0,1-1.67,5.39A6.23,6.23,0,0,1,62.85,28.37Zm0-2a4.46,4.46,0,0,0,2.31-.53,3.25,3.25,0,0,0,1.37-1.69,8.43,8.43,0,0,0,.45-3,8.23,8.23,0,0,0-.45-3,3.19,3.19,0,0,0-1.37-1.68,4.46,4.46,0,0,0-2.31-.54,4.39,4.39,0,0,0-2.31.55,3.2,3.2,0,0,0-1.37,1.69,8.23,8.23,0,0,0-.45,3,8.39,8.39,0,0,0,.45,3,3.2,3.2,0,0,0,1.37,1.69A4.49,4.49,0,0,0,62.85,26.37Z"/><path class="cls-2" d="M78.19,28.37a7.59,7.59,0,0,1-3.59-.78,5.12,5.12,0,0,1-2.26-2.38,9.49,9.49,0,0,1-.77-4.08,9.41,9.41,0,0,1,.77-4.05A5.08,5.08,0,0,1,74.6,14.7a7.56,7.56,0,0,1,3.57-.78,11.94,11.94,0,0,1,2.41.24,11.11,11.11,0,0,1,2.27.72v2.23a15.73,15.73,0,0,0-2.18-.9,6.85,6.85,0,0,0-2.2-.36,5.41,5.41,0,0,0-2.55.54,3.38,3.38,0,0,0-1.52,1.7,7.62,7.62,0,0,0-.5,3,7.67,7.67,0,0,0,.51,3,3.4,3.4,0,0,0,1.52,1.72,5,5,0,0,0,2.45.55,8,8,0,0,0,1.41-.12A7.49,7.49,0,0,0,81.07,26V22.66H78.13v-2h5.24v6.42a11.22,11.22,0,0,1-2.51.94A11.34,11.34,0,0,1,78.19,28.37Z"/><path class="cls-2" d="M92.64,28.37a7.28,7.28,0,0,1-3.53-.8,5.14,5.14,0,0,1-2.21-2.39,9.29,9.29,0,0,1-.76-4,7.79,7.79,0,0,1,1.67-5.41,6.23,6.23,0,0,1,4.83-1.82,7.31,7.31,0,0,1,3.55.8,5.22,5.22,0,0,1,2.21,2.4,9.35,9.35,0,0,1,.76,4,7.73,7.73,0,0,1-1.66,5.39A6.25,6.25,0,0,1,92.64,28.37Zm0-2A4.5,4.5,0,0,0,95,25.84a3.23,3.23,0,0,0,1.36-1.69,8.43,8.43,0,0,0,.45-3,8.23,8.23,0,0,0-.45-3A3.17,3.17,0,0,0,95,16.47a4.5,4.5,0,0,0-2.32-.54,4.38,4.38,0,0,0-2.3.55A3.22,3.22,0,0,0,89,18.17a8.23,8.23,0,0,0-.45,3,8.39,8.39,0,0,0,.45,3,3.22,3.22,0,0,0,1.38,1.69A4.47,4.47,0,0,0,92.64,26.37Z"/><path class="cls-2" d="M105,28.14v-12h-4.53v-2h11.37v2H107.3v12Z"/><path class="cls-2" d="M113.92,28.14v-14h2.33v14Z"/><path class="cls-2" d="M121.87,23.12v5h-2.31v-14h5.54a5.56,5.56,0,0,1,3.7,1.11,4.08,4.08,0,0,1,1.31,3.31A4.28,4.28,0,0,1,128.8,22a5.37,5.37,0,0,1-3.7,1.17Zm0-2h2.94a4.24,4.24,0,0,0,1.46-.2,2,2,0,0,0,.89-.56,2.12,2.12,0,0,0,.43-.81,3.93,3.93,0,0,0,.11-.92,4.33,4.33,0,0,0-.11-.95,2,2,0,0,0-.43-.82,2.06,2.06,0,0,0-.89-.58,4.22,4.22,0,0,0-1.46-.21h-2.94Z"/><path class="cls-2" d="M138.83,28.37a7.28,7.28,0,0,1-3.53-.8,5.14,5.14,0,0,1-2.21-2.39,9.44,9.44,0,0,1-.76-4A7.79,7.79,0,0,1,134,15.74a6.23,6.23,0,0,1,4.83-1.82,7.31,7.31,0,0,1,3.55.8,5.22,5.22,0,0,1,2.21,2.4,9.34,9.34,0,0,1,.77,4,7.73,7.73,0,0,1-1.67,5.39A6.24,6.24,0,0,1,138.83,28.37Zm0-2a4.5,4.5,0,0,0,2.32-.53,3.23,3.23,0,0,0,1.36-1.69,8.41,8.41,0,0,0,.46-3,8.21,8.21,0,0,0-.46-3,3.17,3.17,0,0,0-1.36-1.68,4.5,4.5,0,0,0-2.32-.54,4.38,4.38,0,0,0-2.3.55,3.27,3.27,0,0,0-1.38,1.69,8.23,8.23,0,0,0-.45,3,8.39,8.39,0,0,0,.45,3,3.27,3.27,0,0,0,1.38,1.69A4.47,4.47,0,0,0,138.83,26.37Z"/></g></g></g></g></svg>