<svg xmlns="http://www.w3.org/2000/svg" width="161.2" height="167.8"><style>.st0{fill:#75b843}.st1{fill:#f0f0f0}.st2{fill:#3f245e}.st4{fill:#fff}.st5{fill:#dbd9dc}</style><g id="XMLID_1_"><g id="XMLID_4_"><path id="XMLID_40_" class="st0" d="M35 51h99.6v100.8H35z"/><g id="XMLID_34_"><path id="XMLID_39_" class="st1" d="M99.1 72.3h13.6v13.6H99.1z"/><path id="XMLID_37_" class="st2" d="M100.6 73.9h8.6v8.6h-8.6z"/><path id="XMLID_36_" class="st1" d="M101.9 74.9h2.9v2.9h-2.9z"/><path id="XMLID_35_" class="st1" d="M105.3 78h1.7v1.7h-1.7z"/></g><g id="XMLID_28_"><path id="XMLID_33_" class="st1" d="M55.5 72.3h13.6v13.6H55.5z"/><path id="XMLID_31_" class="st2" d="M58.7 73.7h8.6v8.6h-8.6z"/><path id="XMLID_30_" class="st1" d="M60 74.6h2.9v2.9H60z"/><path id="XMLID_29_" class="st1" d="M63.4 77.7h1.7v1.7h-1.7z"/></g><g id="XMLID_23_"><g id="XMLID_26_"><path id="XMLID_27_" class="st1" d="M109.3 128H57.5v-8.5h54.6v8.5h-2.8"/></g><path id="XMLID_25_" class="st1" d="M112.1 110.3h10v8.9h-10z"/><path id="XMLID_24_" class="st1" d="M47.4 110.3h10.2v8.9H47.4z"/></g><path id="XMLID_22_" opacity=".22" fill="#fff" d="M25.5 30.2h118v122.6h-118z"/><g id="XMLID_13_"><path id="XMLID_21_" class="st4" d="M25.5 16.9h121.3v15.9H25.5z"/><path id="XMLID_20_" class="st4" d="M25.5 140.5h17.4v15.9H25.5z"/><path id="XMLID_19_" class="st4" d="M129.4 140.5h17.4v15.9h-17.4z"/><path id="XMLID_18_" class="st4" d="M25.5 31.7h17.4v15.9H25.5z"/><path id="XMLID_17_" class="st4" d="M129.4 31.7h17.4v15.9h-17.4z"/><path id="XMLID_16_" class="st4" d="M8.3 47.6h17.4v93.1H8.3z"/><path id="XMLID_15_" transform="rotate(-180 152.476 94.176)" class="st4" d="M143.8 47.6h17.4v93.1h-17.4z"/><path id="XMLID_14_" transform="rotate(-90 88.286 159.852)" class="st4" d="M80.3 110h15.9v99.6H80.3z"/></g><path id="XMLID_11_" class="st5" d="M0 84.2h9.1v20H0z"/><path id="XMLID_9_" class="st5" d="M5.8 11.1H9v73.1H5.8z"/><path id="XMLID_7_" fill="#ea5246" d="M1.7 0h11.6v11.6H1.7z"/><path class="st5" d="M132.2 154.8H40.5v-11.5H22.9V44.8h17.2v-16h92.1v15.9h14.4v98.8h-14.4v11.3zm-86-5.7h80.4v-11.3H141V50.5h-14.4v-16H45.8v15.9H28.6v87.2h17.6v11.5z" id="XMLID_5_"/></g><path id="XMLID_3_" class="st0" d="M73.6 94.2H80v6.4h-6.4z"/><path id="XMLID_2_" class="st0" d="M90.3 94.2h6.4v6.4h-6.4z"/></g><path class="st0" d="M54.7 65.7h15.1v2.8H54.7zM97.8 65.7h15.1v2.8H97.8z"/></svg>