<svg xmlns="http://www.w3.org/2000/svg" viewBox="0 0 281.12 524.39"><defs><style>.cls-1{fill:#588c32;}.cls-2{fill:#ff4f40;}.cls-3{fill:#76bd43;}.cls-4{fill:#f2f2f2;}.cls-5,.cls-6{fill:#fff;}.cls-6{opacity:0.22;}.cls-10,.cls-7{fill:none;stroke-miterlimit:10;}.cls-7{stroke:gray;stroke-width:5.98px;}.cls-8{fill:gray;}.cls-9{fill:#3d1b5e;}.cls-10{stroke:#fff;stroke-width:3.5px;}</style></defs><title>t-rex-bienvenida</title><g id="Capa_2" data-name="Capa 2"><g id="Capa_1-2" data-name="Capa 1"><g id="_Grupo_" data-name="&lt;Grupo&gt;"><g id="_Grupo_2" data-name="&lt;Grupo&gt;"><polygon class="cls-1" points="118.93 303.58 71.59 303.58 71.59 325.46 81.4 325.46 81.4 313.43 118.81 313.43 118.93 303.58"/><rect class="cls-2" x="71.59" y="76.88" width="11.3" height="264.2" transform="translate(154.49 417.96) rotate(-180)"/><g id="_Grupo_3" data-name="&lt;Grupo&gt;"><polygon class="cls-1" points="134.75 373.97 134.75 434.19 109.48 434.19 109.48 423.47 121.73 423.47 121.73 374.73 134.75 373.97"/><polygon class="cls-3" points="205.79 402.39 100.92 402.39 100.92 279.74 65.99 279.74 65.99 266.49 75.02 266.49 75.02 255.05 40.69 255.05 40.69 218.3 78.05 218.3 78.03 190.19 150.92 190.19 150.92 217.7 162.37 217.7 162.37 264.08 175.02 264.08 175.02 278.54 187.06 278.54 187.06 324.96 205.15 324.96 205.79 402.39"/><rect class="cls-4" x="115.01" y="204.6" width="14.27" height="14.27" transform="translate(244.28 423.48) rotate(-180)"/><rect class="cls-4" x="110.84" y="244.45" width="11.32" height="10.66" transform="translate(232.99 499.55) rotate(-180)"/><rect class="cls-4" x="122.3" y="233.74" width="11.32" height="10.66" transform="translate(255.92 478.14) rotate(-180)"/><rect class="cls-4" x="74.93" y="255.07" width="35.88" height="11.45" transform="translate(185.74 521.58) rotate(-180)"/></g><polygon class="cls-5" points="122.51 157.05 167.93 157.05 167.93 165.59 179.88 165.59 179.88 173.47 193.62 173.47 193.62 183.33 202.59 183.33 202.59 192.53 212.15 192.53 212.15 275.33 202.59 275.33 202.59 287.82 192.43 287.82 192.43 298.99 118.33 298.99 118.33 291.76 139.24 291.76 139.24 281.9 151.19 281.9 151.19 180.7 138.65 180.7 138.65 172.16 122.51 172.16 122.51 157.05"/><polyline class="cls-6" points="161.46 157.05 68.29 157.05 68.29 165.59 57.41 165.59 57.41 173.47 44.89 173.47 44.89 183.33 36.73 183.33 36.73 192.53 28.02 192.53 28.02 275.33 36.73 275.33 36.73 287.82 45.98 287.82 45.98 298.99 159.68 298.99"/><polyline class="cls-7" points="122.51 157.05 122.51 172.16 138.65 172.16 138.65 180.7 151.19 180.7 151.19 281.9 139.24 281.9 139.24 291.76 118.33 291.76 118.33 298.99"/><rect class="cls-1" x="62.28" y="222.84" width="6.76" height="6.76" transform="translate(131.32 452.43) rotate(-180)"/><rect class="cls-1" x="44.77" y="222.84" width="6.76" height="6.76" transform="translate(96.3 452.43) rotate(-180)"/><rect class="cls-1" x="123.35" y="197.47" width="15.88" height="3.1" transform="translate(262.58 398.04) rotate(-180)"/><rect class="cls-8" x="169.99" y="222.68" width="23.41" height="23.41" transform="translate(363.38 468.76) rotate(-180)"/><rect class="cls-8" x="179.43" y="148.26" width="5.71" height="78.34" transform="translate(364.56 374.86) rotate(-180)"/><rect class="cls-2" x="176.35" y="136.62" width="12.19" height="12.19" transform="translate(364.89 285.43) rotate(-180)"/><rect class="cls-8" x="115.13" y="204.75" width="9.07" height="9.07" transform="translate(239.34 418.57) rotate(-180)"/><rect class="cls-4" x="119.72" y="205.75" width="3.07" height="3.07" transform="translate(242.51 414.58) rotate(-180)"/><rect class="cls-4" x="117.45" y="209.02" width="1.76" height="1.76" transform="translate(236.66 419.81) rotate(-180)"/><polygon class="cls-3" points="177.63 373.97 177.63 434.19 152.36 434.19 152.36 423.47 164.61 423.47 164.61 374.73 177.63 373.97"/><polygon class="cls-3" points="192.8 350 221.13 350 221.13 336.67 239.46 336.67 239.46 321.67 281.12 321.67 281.12 335 265.29 335 265.29 348.33 250.29 348.33 250.29 360.83 233.63 360.83 233.63 376.67 218.63 376.67 218.63 394.16 191.13 394.16 192.8 350"/><polygon class="cls-1" points="100.87 384.87 100.87 308.51 127.64 308.51 127.64 319.28 136.94 319.28 136.94 330.06 145.87 330.06 145.87 363 134.65 363 134.65 371.95 123.46 371.95 123.46 384.82 100.87 384.87"/><polygon class="cls-3" points="109.32 322 85.26 322 85.26 343.87 94.01 343.87 94.01 331.84 109.21 331.84 109.32 322"/><rect class="cls-3" x="71.59" y="310.28" width="12.42" height="8.48" transform="translate(155.6 629.04) rotate(-180)"/></g><polyline class="cls-5" points="7.87 85.63 7.87 77.16 3.56 77.16 3.56 68.69 0 68.69 0 46.84 3.08 46.84 3.08 37.16 7.4 37.16 7.4 29.9 10.96 29.9 10.96 21.44 19.26 21.44 19.26 14 26.73 14 26.73 8.75 34.44 8.75 34.44 4.04 42.15 4.04 42.15 0 120.46 0 120.46 4.04 126.95 4.04 126.95 8.75 134.66 8.75 134.66 14 142.13 14 142.13 21.44 150.27 21.44 150.27 29.9 153.83 29.9 153.83 37.44 158.14 37.44 158.14 46.84 161.23 46.84 161.23 68.69 157.67 68.69 157.67 77.16 153.35 77.16 153.35 86.44 150.27 86.44 150.27 94.1 141.59 94.1 141.59 101.48 134.26 101.48 134.26 106.53 126.71 106.53 126.71 111.05 120.35 111.05 120.35 114.93 43.61 114.93 43.61 111.05 36.06 111.05 36.06 106.53 28.51 106.53 28.51 101.48 21.18 101.48 21.18 94.1 10.96 94.1 10.96 85.63"/><path class="cls-9" d="M27.54,72.83V44.66h3V57.33h15V44.66h3V72.83h-3V60.2h-15V72.83Z"/><path class="cls-9" d="M67.36,73.25a13.85,13.85,0,0,1-7-1.62,10.19,10.19,0,0,1-4.22-4.84,20,20,0,0,1-1.41-8q0-7.19,3.19-10.83t9.43-3.66a13.88,13.88,0,0,1,7,1.63,10.09,10.09,0,0,1,4.23,4.83,20,20,0,0,1,1.41,8q0,7.17-3.19,10.83T67.36,73.25Zm0-2.87a10.83,10.83,0,0,0,5.45-1.22,7.2,7.2,0,0,0,3.1-3.81,18.29,18.29,0,0,0,1-6.58,18.16,18.16,0,0,0-1-6.57,7.29,7.29,0,0,0-3.1-3.8,10.62,10.62,0,0,0-5.45-1.25A10.53,10.53,0,0,0,62,48.4a7.29,7.29,0,0,0-3.1,3.8,18.16,18.16,0,0,0-1,6.57,18.29,18.29,0,0,0,1,6.58A7.2,7.2,0,0,0,62,69.16,10.74,10.74,0,0,0,67.36,70.38Z"/><path class="cls-9" d="M86.16,72.83V44.66h3V69.87h14.4v3Z"/><path class="cls-9" d="M105.5,72.83l11.23-28.17h3L131,72.83h-3.25L118,47.49l.64-.08-9.8,25.42Zm4.94-8.78,1.31-2.92h13.8l.22,2.92Z"/><path class="cls-10" d="M31.84,523.87,50,457.92s55.51-23.56,62.1-23.08,65.08-.65,65.08-.65,8.5,6.81,20.18,24.9l31.1,4.73s7.16,17.2,21.82,44.64c0,0-1.66,6.86-4.35,15.41"/><polyline id="_Trazado_" data-name="&lt;Trazado&gt;" class="cls-10" points="109.32 459.11 161.46 459.11 181.69 479.03 212.15 485.5"/><line id="_Trazado_2" data-name="&lt;Trazado&gt;" class="cls-10" x1="68.41" y1="472.31" x2="59.19" y2="503.15"/></g></g></g></svg>