<svg xmlns="http://www.w3.org/2000/svg" viewBox="0 0 293.64 365.03"><defs><style>.cls-1{fill:#588c32;}.cls-2{fill:#76bd43;}.cls-3{fill:#f2f2f2;}.cls-4,.cls-5{fill:#fff;}.cls-5{opacity:0.22;}.cls-6{fill:none;stroke:gray;stroke-miterlimit:10;stroke-width:8.72px;}.cls-7{fill:gray;}.cls-8{fill:#ff4f40;}</style></defs><title>t-rex-coleccion-home</title><g id="Capa_2" data-name="Capa 2"><g id="Capa_1-2" data-name="Capa 1"><g id="_Grupo_" data-name="&lt;Grupo&gt;"><polygon id="_Trazado_" data-name="&lt;Trazado&gt;" class="cls-1" points="233.06 272.53 172 272.53 172 324.19 200.68 324.19 200.68 298.36 233.06 298.36 233.06 272.53"/><g id="_Grupo_2" data-name="&lt;Grupo&gt;"><polygon id="_Trazado_2" data-name="&lt;Trazado&gt;" class="cls-2" points="143.67 239.96 95.86 257.55 89.19 239.42 101.55 234.87 95.79 219.21 48.81 236.5 30.3 186.22 81.43 167.4 67.25 128.94 166.99 92.24 180.84 129.88 196.5 124.12 219.86 187.59 237.17 181.22 244.45 201 256.76 196.47 256.76 319.55 143.67 239.96"/><rect id="_Rectángulo_" data-name="&lt;Rectángulo&gt;" class="cls-3" x="128.05" y="125.82" width="20.8" height="20.8" transform="translate(315.44 216.24) rotate(159.8)"/><rect id="_Rectángulo_2" data-name="&lt;Rectángulo&gt;" class="cls-3" x="141.63" y="183.34" width="16.5" height="15.55" transform="translate(356.56 318.7) rotate(159.8)"/><rect id="_Rectángulo_3" data-name="&lt;Rectángulo&gt;" class="cls-3" x="151.93" y="162.91" width="16.5" height="15.55" transform="translate(369.46 275.55) rotate(159.8)"/><rect id="_Rectángulo_4" data-name="&lt;Rectángulo&gt;" class="cls-3" x="96.95" y="209.73" width="52.31" height="16.69" transform="translate(313.95 380.22) rotate(159.8)"/><polygon id="_Trazado_3" data-name="&lt;Trazado&gt;" class="cls-4" points="111.42 61.2 173.57 38.33 177.87 50.02 194.22 44 198.19 54.79 217 47.87 221.96 61.35 234.23 56.84 238.86 69.43 251.94 64.61 293.64 177.91 280.56 182.73 286.84 199.81 272.94 204.93 278.57 220.22 177.18 257.53 173.53 247.64 202.15 237.11 197.19 223.62 213.54 217.6 162.58 79.12 145.41 85.44 141.11 73.75 119.03 81.88 111.42 61.2"/><polyline id="_Trazado_4" data-name="&lt;Trazado&gt;" class="cls-5" points="164.71 41.58 37.23 88.5 41.53 100.19 26.64 105.67 30.61 116.46 13.48 122.76 18.45 136.25 7.28 140.36 11.91 152.95 0 157.33 41.7 270.63 53.61 266.25 59.9 283.33 72.55 278.68 78.18 293.96 233.76 236.71"/><polyline id="_Trazado_5" data-name="&lt;Trazado&gt;" class="cls-6" points="111.42 61.2 119.03 81.88 141.11 73.75 145.41 85.44 162.58 79.12 213.54 217.6 197.19 223.62 202.15 237.11 173.53 247.64 177.18 257.53"/><rect id="_Rectángulo_5" data-name="&lt;Rectángulo&gt;" class="cls-1" x="63.54" y="179.55" width="9.85" height="9.85" transform="translate(196.42 333.95) rotate(159.8)"/><rect id="_Rectángulo_6" data-name="&lt;Rectángulo&gt;" class="cls-1" x="39.57" y="188.36" width="9.85" height="9.85" transform="translate(153.02 359.32) rotate(159.8)"/><rect id="_Rectángulo_7" data-name="&lt;Rectángulo&gt;" class="cls-1" x="133" y="111.95" width="23.15" height="4.52" transform="translate(319.69 171.46) rotate(159.8)"/><rect id="_Rectángulo_8" data-name="&lt;Rectángulo&gt;" class="cls-7" x="214.28" y="120.15" width="34.13" height="34.13" transform="translate(495.84 186.09) rotate(159.8)"/><rect id="_Rectángulo_9" data-name="&lt;Rectángulo&gt;" class="cls-7" x="204.35" y="15.56" width="8.32" height="114.22" transform="translate(429.28 68.86) rotate(159.8)"/><rect id="_Rectángulo_10" data-name="&lt;Rectángulo&gt;" class="cls-8" x="177.33" y="2.52" width="17.77" height="17.77" transform="translate(364.92 -42.2) rotate(159.8)"/><rect id="_Rectángulo_11" data-name="&lt;Rectángulo&gt;" class="cls-7" x="127.14" y="127.55" width="13.23" height="13.23" transform="translate(305.61 213.88) rotate(159.8)"/><rect id="_Rectángulo_12" data-name="&lt;Rectángulo&gt;" class="cls-3" x="132.68" y="128.39" width="4.48" height="4.48" transform="translate(306.66 206.63) rotate(159.8)"/><rect id="_Rectángulo_13" data-name="&lt;Rectángulo&gt;" class="cls-3" x="130.96" y="134.4" width="2.56" height="2.56" transform="translate(303.2 217.34) rotate(159.8)"/></g><polygon id="_Trazado_6" data-name="&lt;Trazado&gt;" class="cls-2" points="256.76 313.37 195.71 313.37 195.71 365.03 224.38 365.03 224.38 339.2 256.76 339.2 256.76 313.37"/></g></g></g></svg>