<svg xmlns="http://www.w3.org/2000/svg" viewBox="0 0 253.1 374.53"><defs><style>.cls-1{fill:#588c32;}.cls-2{fill:#76bd43;}.cls-3{fill:#f2f2f2;}.cls-4,.cls-5{fill:#fff;}.cls-5{opacity:0.22;}.cls-6,.cls-9{fill:none;stroke-miterlimit:10;}.cls-6{stroke:gray;stroke-width:5.98px;}.cls-7{fill:gray;}.cls-8{fill:#ff4f40;}.cls-9{stroke:#fff;stroke-width:3.5px;}</style></defs><title>t-rex-seleccion-de-asteroides-home</title><g id="Capa_2" data-name="Capa 2"><g id="Capa_1-2" data-name="Capa 1"><g id="_Grupo_" data-name="&lt;Grupo&gt;"><g id="_Grupo_2" data-name="&lt;Grupo&gt;"><polygon id="_Trazado_" data-name="&lt;Trazado&gt;" class="cls-1" points="90.91 166.96 43.57 166.96 43.57 188.83 53.38 188.83 53.38 176.8 90.79 176.8 90.91 166.96"/><g id="_Grupo_3" data-name="&lt;Grupo&gt;"><polygon id="_Trazado_2" data-name="&lt;Trazado&gt;" class="cls-1" points="106.72 237.34 106.72 297.57 81.45 297.57 81.45 286.85 93.7 286.85 93.7 238.11 106.72 237.34"/><polygon id="_Trazado_3" data-name="&lt;Trazado&gt;" class="cls-2" points="177.76 265.76 72.9 265.76 72.9 143.12 37.96 143.12 37.96 129.87 47 129.87 47 118.42 12.66 118.42 12.66 81.68 50.02 81.68 50.01 53.56 122.9 53.56 122.9 81.08 134.34 81.08 134.34 127.46 146.99 127.46 146.99 141.91 159.04 141.91 159.04 188.33 177.13 188.33 177.76 265.76"/><rect id="_Rectángulo_" data-name="&lt;Rectángulo&gt;" class="cls-3" x="86.98" y="67.98" width="14.27" height="14.27" transform="translate(188.23 150.23) rotate(-180)"/><rect id="_Rectángulo_2" data-name="&lt;Rectángulo&gt;" class="cls-3" x="82.81" y="107.82" width="11.32" height="10.66" transform="translate(176.94 226.31) rotate(-180)"/><rect id="_Rectángulo_3" data-name="&lt;Rectángulo&gt;" class="cls-3" x="94.28" y="97.11" width="11.32" height="10.66" transform="translate(199.87 204.89) rotate(-180)"/><rect id="_Rectángulo_4" data-name="&lt;Rectángulo&gt;" class="cls-3" x="46.91" y="118.44" width="35.88" height="11.45" transform="translate(129.69 248.33) rotate(-180)"/></g><polygon id="_Trazado_4" data-name="&lt;Trazado&gt;" class="cls-4" points="94.49 20.42 139.9 20.42 139.9 28.96 151.85 28.96 151.85 36.85 165.6 36.85 165.6 46.71 174.56 46.71 174.56 55.91 184.12 55.91 184.12 138.71 174.56 138.71 174.56 151.19 164.4 151.19 164.4 162.37 90.3 162.37 90.3 155.14 111.22 155.14 111.22 145.28 123.17 145.28 123.17 44.08 110.62 44.08 110.62 35.54 94.49 35.54 94.49 20.42"/><polyline id="_Trazado_5" data-name="&lt;Trazado&gt;" class="cls-5" points="133.43 20.42 40.27 20.42 40.27 28.96 29.38 28.96 29.38 36.85 16.87 36.85 16.87 46.71 8.71 46.71 8.71 55.91 0 55.91 0 138.71 8.71 138.71 8.71 151.19 17.96 151.19 17.96 162.37 131.66 162.37"/><polyline id="_Trazado_6" data-name="&lt;Trazado&gt;" class="cls-6" points="94.49 20.42 94.49 35.54 110.62 35.54 110.62 44.08 123.17 44.08 123.17 145.28 111.22 145.28 111.22 155.14 90.3 155.14 90.3 162.37"/><rect id="_Rectángulo_5" data-name="&lt;Rectángulo&gt;" class="cls-1" x="34.26" y="86.21" width="6.76" height="6.76" transform="translate(75.27 179.19) rotate(-180)"/><rect id="_Rectángulo_6" data-name="&lt;Rectángulo&gt;" class="cls-1" x="16.75" y="86.21" width="6.76" height="6.76" transform="translate(40.25 179.19) rotate(-180)"/><rect id="_Rectángulo_7" data-name="&lt;Rectángulo&gt;" class="cls-1" x="95.33" y="60.85" width="15.88" height="3.1" transform="translate(206.53 124.79) rotate(-180)"/><rect id="_Rectángulo_8" data-name="&lt;Rectángulo&gt;" class="cls-7" x="141.96" y="86.05" width="23.41" height="23.41" transform="translate(307.33 195.51) rotate(-180)"/><rect id="_Rectángulo_9" data-name="&lt;Rectángulo&gt;" class="cls-7" x="151.4" y="11.64" width="5.71" height="78.34" transform="translate(308.51 101.61) rotate(-180)"/><rect id="_Rectángulo_10" data-name="&lt;Rectángulo&gt;" class="cls-8" x="148.33" width="12.19" height="12.19" transform="translate(308.84 12.19) rotate(-180)"/><rect id="_Rectángulo_11" data-name="&lt;Rectángulo&gt;" class="cls-7" x="92.25" y="71.36" width="9.07" height="9.07" transform="translate(193.57 151.8) rotate(-180)"/><rect id="_Rectángulo_12" data-name="&lt;Rectángulo&gt;" class="cls-3" x="96.84" y="72.37" width="3.07" height="3.07" transform="translate(196.75 147.81) rotate(-180)"/><rect id="_Rectángulo_13" data-name="&lt;Rectángulo&gt;" class="cls-3" x="94.57" y="75.64" width="1.76" height="1.76" transform="translate(190.9 153.04) rotate(-180)"/><polygon id="_Trazado_7" data-name="&lt;Trazado&gt;" class="cls-2" points="149.61 237.34 149.61 297.57 124.34 297.57 124.34 286.85 136.59 286.85 136.59 238.11 149.61 237.34"/><polygon id="_Trazado_8" data-name="&lt;Trazado&gt;" class="cls-2" points="164.78 213.38 193.1 213.38 193.1 200.05 211.44 200.05 211.44 185.05 253.1 185.05 253.1 198.38 237.27 198.38 237.27 211.71 222.27 211.71 222.27 224.21 205.6 224.21 205.6 240.04 190.6 240.04 190.6 257.54 163.11 257.54 164.78 213.38"/><polygon id="_Trazado_9" data-name="&lt;Trazado&gt;" class="cls-1" points="72.84 248.24 72.84 171.89 99.61 171.89 99.61 182.66 108.92 182.66 108.92 193.43 117.84 193.43 117.84 226.38 106.63 226.38 106.63 235.33 95.44 235.33 95.44 248.2 72.84 248.24"/><polygon id="_Trazado_10" data-name="&lt;Trazado&gt;" class="cls-2" points="81.3 185.38 57.23 185.38 57.23 207.25 65.98 207.25 65.98 195.22 81.19 195.22 81.3 185.38"/></g><g id="_Grupo_4" data-name="&lt;Grupo&gt;"><path id="_Trazado_11" data-name="&lt;Trazado&gt;" class="cls-9" d="M6.23,373.16l13.78-50s55.52-23.56,62.11-23.08,65.07-.65,65.07-.65,8.5,6.81,20.18,24.9l31.11,4.73s7.16,17.2,21.81,44.64"/><polyline id="_Trazado_12" data-name="&lt;Trazado&gt;" class="cls-9" points="79.32 324.36 131.46 324.36 151.69 344.28 182.15 350.75"/><line id="_Trazado_13" data-name="&lt;Trazado&gt;" class="cls-9" x1="38.41" y1="337.56" x2="29.2" y2="368.4"/></g></g></g></g></svg>