<svg xmlns="http://www.w3.org/2000/svg" viewBox="0 0 407.06 287.5"><defs><style>.cls-1{fill:#ff4f40;}.cls-2{fill:#3d1b5e;}.cls-3{fill:#76bd43;}.cls-4{fill:#f2f2f2;}.cls-5,.cls-6{fill:#fff;}.cls-6{opacity:0.22;}.cls-7{fill:none;stroke:gray;stroke-miterlimit:10;stroke-width:5.91px;}.cls-8{fill:#588c32;}.cls-9{fill:gray;}</style></defs><title>t-rex-memorama-home</title><g id="Capa_2" data-name="Capa 2"><g id="Capa_1-2" data-name="Capa 1"><g id="_Grupo_" data-name="&lt;Grupo&gt;"><g id="_Grupo_2" data-name="&lt;Grupo&gt;"><rect class="cls-1" x="17.44" y="25.68" width="247.2" height="243.97" rx="34.29" ry="34.29" transform="translate(-29.59 35.5) rotate(-13)"/></g></g><g id="_Grupo_3" data-name="&lt;Grupo&gt;"><rect id="_Rectángulo_" data-name="&lt;Rectángulo&gt;" class="cls-2" x="23.65" y="17.85" width="247.2" height="243.97" rx="34.29" ry="34.29" transform="translate(-27.67 36.7) rotate(-13)"/></g><g id="_Grupo_4" data-name="&lt;Grupo&gt;"><g id="_Grupo_5" data-name="&lt;Grupo&gt;"><g id="_Grupo_6" data-name="&lt;Grupo&gt;"><polygon class="cls-3" points="116.5 195.74 107.8 197.75 110.75 210.51 144.38 202.75 158.18 262.5 241.1 243.37 227.04 182.45 215.44 185.12 212.23 171.21 200.05 174.02 189.75 129.36 178.73 131.91 172.62 105.42 102.45 121.62 108.71 148.68 72.74 156.98 80.91 192.35 113.96 184.72 116.5 195.74"/><rect id="_Rectángulo_2" data-name="&lt;Rectángulo&gt;" class="cls-4" x="142.65" y="125.51" width="14.1" height="14.1" transform="translate(325.37 228.07) rotate(167)"/><rect id="_Rectángulo_3" data-name="&lt;Rectángulo&gt;" class="cls-4" x="147.12" y="165.17" width="11.18" height="10.54" transform="translate(339.85 302.17) rotate(167)"/><rect id="_Rectángulo_4" data-name="&lt;Rectángulo&gt;" class="cls-4" x="155.78" y="152.31" width="11.18" height="10.54" transform="translate(354.05 274.84) rotate(167)"/><rect id="_Rectángulo_5" data-name="&lt;Rectángulo&gt;" class="cls-4" x="114.69" y="180.63" width="35.45" height="11.31" transform="translate(303.34 338.02) rotate(167)"/></g><polygon id="_Trazado_" data-name="&lt;Trazado&gt;" class="cls-5" points="137.9 79.83 181.62 69.74 183.52 77.96 195.03 75.31 196.78 82.9 210.01 79.84 212.2 89.33 220.83 87.34 222.88 96.2 232.08 94.08 250.48 173.79 241.27 175.91 244.05 187.93 234.27 190.19 236.75 200.94 165.41 217.41 163.81 210.45 183.94 205.8 181.75 196.31 193.26 193.66 170.77 96.23 158.69 99.02 156.79 90.8 141.26 94.38 137.9 79.83"/><polyline id="_Trazado_2" data-name="&lt;Trazado&gt;" class="cls-6" points="175.4 71.18 85.7 91.88 87.6 100.1 77.13 102.52 78.88 110.11 66.83 112.89 69.02 122.38 61.16 124.19 63.21 133.05 54.83 134.98 73.22 214.7 81.6 212.76 84.38 224.78 93.28 222.73 95.77 233.48 205.22 208.22"/><polyline id="_Trazado_3" data-name="&lt;Trazado&gt;" class="cls-7" points="137.9 79.83 141.26 94.38 156.79 90.8 158.69 99.02 170.77 96.23 193.26 193.66 181.75 196.31 183.94 205.8 163.81 210.45 165.41 217.41"/><rect id="_Rectángulo_6" data-name="&lt;Rectángulo&gt;" class="cls-8" x="95.2" y="155.71" width="6.68" height="6.68" transform="translate(230.33 291.87) rotate(167)"/><rect id="_Rectángulo_7" data-name="&lt;Rectángulo&gt;" class="cls-8" x="78.34" y="159.6" width="6.68" height="6.68" transform="translate(197.92 303.34) rotate(167)"/><rect id="_Rectángulo_8" data-name="&lt;Rectángulo&gt;" class="cls-8" x="147.84" y="116.75" width="15.69" height="3.06" transform="translate(333.97 198.53) rotate(167)"/><rect id="_Rectángulo_9" data-name="&lt;Rectángulo&gt;" class="cls-9" x="200.49" y="129.57" width="23.13" height="23.13" transform="translate(450.42 230.96) rotate(167)"/><rect id="_Rectángulo_10" data-name="&lt;Rectángulo&gt;" class="cls-9" x="199.37" y="57.1" width="5.64" height="77.4" transform="translate(420.75 143.68) rotate(167)"/><rect id="_Rectángulo_11" data-name="&lt;Rectángulo&gt;" class="cls-1" x="186.4" y="46.7" width="12.04" height="12.04" transform="translate(391.77 60.81) rotate(167)"/><rect id="_Rectángulo_12" data-name="&lt;Rectángulo&gt;" class="cls-9" x="147.96" y="128.25" width="8.96" height="8.96" transform="translate(330.83 227.77) rotate(167)"/><rect id="_Rectángulo_13" data-name="&lt;Rectángulo&gt;" class="cls-4" x="152.01" y="128.94" width="3.04" height="3.04" transform="translate(332.46 223.04) rotate(167)"/><rect id="_Rectángulo_14" data-name="&lt;Rectángulo&gt;" class="cls-4" x="150.42" y="132.75" width="1.74" height="1.74" transform="translate(328.76 229.79) rotate(167)"/></g></g><g id="_Grupo_7" data-name="&lt;Grupo&gt;"><g id="_Grupo_8" data-name="&lt;Grupo&gt;"><rect class="cls-1" x="152.05" y="37.9" width="247.2" height="243.97" rx="34.29" ry="34.29"/></g></g><g id="_Grupo_9" data-name="&lt;Grupo&gt;"><rect id="_Rectángulo_15" data-name="&lt;Rectángulo&gt;" class="cls-2" x="159.86" y="31.67" width="247.2" height="243.97" rx="34.29" ry="34.29"/></g><g id="_Grupo_10" data-name="&lt;Grupo&gt;"><g id="_Grupo_11" data-name="&lt;Grupo&gt;"><g id="_Grupo_12" data-name="&lt;Grupo&gt;"><polygon class="cls-3" points="240.93 201.22 232 201.22 232 214.31 266.52 214.31 266.52 275.64 351.62 275.64 351.62 213.12 339.72 213.12 339.72 198.84 327.22 198.84 327.22 153.01 315.92 153.01 315.92 125.83 243.9 125.83 243.91 153.6 207 153.6 207 189.91 240.93 189.91 240.93 201.22"/><rect id="_Rectángulo_16" data-name="&lt;Rectángulo&gt;" class="cls-4" x="280.43" y="140.07" width="14.1" height="14.1" transform="translate(574.96 294.24) rotate(-180)"/><rect id="_Rectángulo_17" data-name="&lt;Rectángulo&gt;" class="cls-4" x="276.31" y="179.44" width="11.18" height="10.54" transform="translate(563.8 369.41) rotate(-180)"/><rect id="_Rectángulo_18" data-name="&lt;Rectángulo&gt;" class="cls-4" x="287.64" y="168.85" width="11.18" height="10.54" transform="translate(586.46 348.24) rotate(-180)"/><rect id="_Rectángulo_19" data-name="&lt;Rectángulo&gt;" class="cls-4" x="240.84" y="189.93" width="35.45" height="11.31" transform="translate(517.12 391.16) rotate(-180)"/></g><polygon id="_Trazado_4" data-name="&lt;Trazado&gt;" class="cls-5" points="287.84 93.08 332.71 93.08 332.71 101.52 344.52 101.52 344.52 109.31 358.1 109.31 358.1 119.05 366.96 119.05 366.96 128.14 376.4 128.14 376.4 209.95 366.96 209.95 366.96 222.29 356.92 222.29 356.92 233.32 283.71 233.32 283.71 226.18 304.38 226.18 304.38 216.44 316.18 216.44 316.18 116.46 303.79 116.46 303.79 108.02 287.84 108.02 287.84 93.08"/><polyline id="_Trazado_5" data-name="&lt;Trazado&gt;" class="cls-6" points="326.32 93.08 234.28 93.08 234.28 101.52 223.52 101.52 223.52 109.31 211.16 109.31 211.16 119.05 203.09 119.05 203.09 128.14 194.49 128.14 194.49 209.95 203.09 209.95 203.09 222.29 212.23 222.29 212.23 233.32 324.57 233.32"/><polyline id="_Trazado_6" data-name="&lt;Trazado&gt;" class="cls-7" points="287.84 93.08 287.84 108.02 303.79 108.02 303.79 116.46 316.18 116.46 316.18 216.44 304.38 216.44 304.38 226.18 283.71 226.18 283.71 233.32"/><rect id="_Rectángulo_20" data-name="&lt;Rectángulo&gt;" class="cls-8" x="228.34" y="158.09" width="6.68" height="6.68" transform="translate(463.35 322.85) rotate(-180)"/><rect id="_Rectángulo_21" data-name="&lt;Rectángulo&gt;" class="cls-8" x="211.04" y="158.09" width="6.68" height="6.68" transform="translate(428.75 322.85) rotate(-180)"/><rect id="_Rectángulo_22" data-name="&lt;Rectángulo&gt;" class="cls-8" x="288.68" y="133.02" width="15.69" height="3.06" transform="translate(593.04 269.1) rotate(-180)"/><rect id="_Rectángulo_23" data-name="&lt;Rectángulo&gt;" class="cls-9" x="334.75" y="157.93" width="23.13" height="23.13" transform="translate(692.63 338.98) rotate(-180)"/><rect id="_Rectángulo_24" data-name="&lt;Rectángulo&gt;" class="cls-9" x="344.08" y="84.4" width="5.64" height="77.4" transform="translate(693.79 246.21) rotate(-180)"/><rect id="_Rectángulo_25" data-name="&lt;Rectángulo&gt;" class="cls-1" x="341.04" y="72.91" width="12.04" height="12.04" transform="translate(694.12 157.85) rotate(-180)"/><rect id="_Rectángulo_26" data-name="&lt;Rectángulo&gt;" class="cls-9" x="285.63" y="143.41" width="8.96" height="8.96" transform="translate(580.23 295.79) rotate(-180)"/><rect id="_Rectángulo_27" data-name="&lt;Rectángulo&gt;" class="cls-4" x="290.17" y="144.41" width="3.04" height="3.04" transform="translate(583.37 291.85) rotate(-180)"/><rect id="_Rectángulo_28" data-name="&lt;Rectángulo&gt;" class="cls-4" x="287.93" y="147.64" width="1.74" height="1.74" transform="translate(577.59 297.01) rotate(-180)"/></g></g></g></g></svg>