<svg xmlns="http://www.w3.org/2000/svg" viewBox="0 0 498.22 538.86"><defs><style>.cls-1{fill:#588c32;}.cls-2{fill:#76bd43;}.cls-3{fill:#f2f2f2;}.cls-4,.cls-5{fill:#fff;}.cls-5{opacity:0.22;}.cls-6{fill:none;stroke:gray;stroke-miterlimit:10;stroke-width:5.98px;}.cls-7{fill:gray;}.cls-8{fill:#ff4f40;}</style></defs><title>t-rex-404</title><g id="Capa_2" data-name="Capa 2"><g id="Capa_1-2" data-name="Capa 1"><g id="_Grupo_" data-name="&lt;Grupo&gt;"><rect class="cls-1" x="415.71" y="317.95" width="12.11" height="36.29" transform="translate(370.21 -200.73) rotate(45.96)"/><g id="_Grupo_2" data-name="&lt;Grupo&gt;"><g id="_Grupo_3" data-name="&lt;Grupo&gt;"><polygon id="_Trazado_" data-name="&lt;Trazado&gt;" class="cls-1" points="433.51 419.57 491.68 435.18 498.22 410.77 487.87 407.99 484.69 419.83 437.62 407.2 433.51 419.57"/><polygon id="_Trazado_2" data-name="&lt;Trazado&gt;" class="cls-2" points="396.01 471.48 471.39 398.58 386.14 310.42 411.25 286.13 402.04 276.6 395.54 282.89 387.59 274.66 412.27 250.79 386.73 224.38 359.87 250.35 340.34 230.13 287.94 280.8 307.06 300.57 298.84 308.53 331.08 341.87 321.99 350.67 332.04 361.06 323.38 369.43 355.64 402.8 342.64 415.37 396.01 471.48"/><rect id="_Rectángulo_" data-name="&lt;Rectángulo&gt;" class="cls-3" x="316.48" y="269.15" width="14.27" height="14.27" transform="translate(-101.08 302.63) rotate(-44.04)"/><polygon id="_Trazado_3" data-name="&lt;Trazado&gt;" class="cls-3" points="395.62 282.84 387 290.95 379.05 282.72 387.67 274.61 395.62 282.84"/></g><polygon id="_Trazado_4" data-name="&lt;Trazado&gt;" class="cls-4" points="285.32 237.22 252.68 268.79 258.62 274.93 250.03 283.24 255.51 288.91 245.63 298.46 252.48 305.55 246.04 311.78 252.43 318.39 245.56 325.04 303.12 384.56 309.99 377.92 318.67 386.89 325.97 379.83 333.74 387.86 387 336.35 381.98 331.15 366.94 345.69 360.09 338.61 351.5 346.92 281.15 274.17 290.17 265.44 284.23 259.3 295.83 248.09 285.32 237.22"/><polyline id="_Trazado_5" data-name="&lt;Trazado&gt;" class="cls-5" points="257.33 264.29 324.3 199.53 330.24 205.67 338.06 198.11 343.55 203.77 352.54 195.07 359.39 202.16 365.26 196.49 371.66 203.1 377.92 197.05 435.48 256.57 429.22 262.62 437.9 271.6 431.25 278.03 439.01 286.06 357.28 365.1"/><polyline id="_Trazado_6" data-name="&lt;Trazado&gt;" class="cls-6" points="285.32 237.22 295.83 248.09 284.23 259.3 290.17 265.44 281.15 274.17 351.5 346.92 360.09 338.61 366.94 345.69 381.98 331.15 387 336.35"/><rect id="_Rectángulo_2" data-name="&lt;Rectángulo&gt;" class="cls-1" x="370.9" y="244.05" width="6.76" height="6.76" transform="translate(-66.78 329.74) rotate(-44.04)"/><rect id="_Rectángulo_3" data-name="&lt;Rectángulo&gt;" class="cls-1" x="383.49" y="231.87" width="6.76" height="6.76" transform="translate(-54.77 335.07) rotate(-44.04)"/><rect id="_Rectángulo_4" data-name="&lt;Rectángulo&gt;" class="cls-1" x="304.99" y="262.11" width="15.88" height="3.1" transform="translate(-95.31 291.66) rotate(-44.04)"/><rect id="_Rectángulo_5" data-name="&lt;Rectángulo&gt;" class="cls-7" x="284.84" y="322.25" width="23.41" height="23.41" transform="translate(-148.78 300.03) rotate(-44.04)"/><rect id="_Rectángulo_6" data-name="&lt;Rectángulo&gt;" class="cls-7" x="260.63" y="261.44" width="5.71" height="78.34" transform="translate(-134.9 267.67) rotate(-44.04)"/><rect id="_Rectángulo_7" data-name="&lt;Rectángulo&gt;" class="cls-8" x="226.19" y="262.49" width="12.19" height="12.19" transform="translate(-121.41 236.98) rotate(-44.04)"/><rect id="_Rectángulo_8" data-name="&lt;Rectángulo&gt;" class="cls-7" x="319.07" y="268.02" width="9.07" height="9.07" transform="translate(-98.49 301.59) rotate(-44.04)"/><rect id="_Rectángulo_9" data-name="&lt;Rectángulo&gt;" class="cls-3" x="319.54" y="270.69" width="3.07" height="3.07" transform="translate(-98.97 299.73) rotate(-44.04)"/><rect id="_Rectángulo_10" data-name="&lt;Rectángulo&gt;" class="cls-3" x="324.12" y="271.19" width="1.76" height="1.76" transform="translate(-97.76 302.42) rotate(-44.04)"/><polygon id="_Trazado_7" data-name="&lt;Trazado&gt;" class="cls-2" points="396.5 431.47 438.36 474.77 456.53 457.2 449.07 449.49 440.27 458.01 406.39 422.98 396.5 431.47"/><polygon id="_Trazado_8" data-name="&lt;Trazado&gt;" class="cls-2" points="399.58 455.67 379.89 476.04 389.47 485.31 376.73 498.48 387.51 508.91 358.55 538.86 348.97 529.59 359.97 518.21 350.39 508.94 360.82 498.16 351.83 489.47 363.42 477.49 352.04 466.49 362.46 455.71 349.88 443.54 369 423.78 399.58 455.67"/><polygon id="_Trazado_9" data-name="&lt;Trazado&gt;" class="cls-1" points="459.25 385.95 406.17 331.06 386.93 349.67 394.42 357.41 387.73 363.88 395.22 371.63 388.8 377.83 411.7 401.51 419.77 393.71 425.99 400.15 434.04 392.37 442.98 401.62 459.25 385.95"/></g><rect class="cls-2" x="420.46" y="340.81" width="12.11" height="28.63" transform="translate(385.34 -198.34) rotate(45.96)"/></g><g id="_Grupo_4" data-name="&lt;Grupo&gt;"><g id="_Grupo_5" data-name="&lt;Grupo&gt;"><rect id="_Trazado_10" data-name="&lt;Trazado&gt;" class="cls-4" x="260.35" y="19.63" width="9.96" height="108.19"/><rect id="_Trazado_11" data-name="&lt;Trazado&gt;" class="cls-4" x="433.32" y="147.16" width="9.96" height="37.5"/><rect id="_Trazado_12" data-name="&lt;Trazado&gt;" class="cls-4" x="463.44" y="19.63" width="9.96" height="108.19"/><rect id="_Trazado_13" data-name="&lt;Trazado&gt;" class="cls-4" x="279.98" width="173.79" height="9.96"/><rect id="_Trazado_14" data-name="&lt;Trazado&gt;" class="cls-4" x="279.98" y="137.49" width="124.32" height="9.96"/><rect id="_Trazado_15" data-name="&lt;Trazado&gt;" class="cls-4" x="453.77" y="9.96" width="9.67" height="9.67"/><rect id="_Trazado_16" data-name="&lt;Trazado&gt;" class="cls-4" x="270.31" y="9.96" width="9.67" height="9.67"/><rect id="_Trazado_17" data-name="&lt;Trazado&gt;" class="cls-4" x="270.31" y="127.82" width="9.67" height="9.67"/><rect id="_Trazado_18" data-name="&lt;Trazado&gt;" class="cls-4" x="453.77" y="127.82" width="9.67" height="9.67"/><rect id="_Trazado_19" data-name="&lt;Trazado&gt;" class="cls-4" x="423.65" y="165.35" width="9.67" height="9.67"/><rect id="_Trazado_20" data-name="&lt;Trazado&gt;" class="cls-4" x="413.97" y="155.68" width="9.67" height="9.67"/><rect id="_Trazado_21" data-name="&lt;Trazado&gt;" class="cls-4" x="404.3" y="146.01" width="9.67" height="9.67"/><rect id="_Trazado_22" data-name="&lt;Trazado&gt;" class="cls-4" x="435.64" y="137.49" width="18.13" height="9.67"/></g><g id="_Grupo_6" data-name="&lt;Grupo&gt;"><path class="cls-4" d="M291.12,51.33V48.11h3.5v3.22Zm0,19.68.41-16.9h2.71l.38,16.9Z"/><path class="cls-4" d="M305.74,57v8.21H302V42.34H311a9.06,9.06,0,0,1,6.06,1.82,6.71,6.71,0,0,1,2.15,5.42,7,7,0,0,1-2.15,5.53A8.78,8.78,0,0,1,311,57Zm0-3.23h4.81a7.25,7.25,0,0,0,2.4-.32,3.17,3.17,0,0,0,2.15-2.25,5.73,5.73,0,0,0,.19-1.51,6.21,6.21,0,0,0-.19-1.55,3.36,3.36,0,0,0-.7-1.35,3.5,3.5,0,0,0-1.45-1,7.19,7.19,0,0,0-2.4-.34h-4.81Z"/><path class="cls-4" d="M331,65.75a9,9,0,0,1-4.42-1,6.87,6.87,0,0,1-2.88-3,10.92,10.92,0,0,1-1-5q0-4.5,2.11-6.81a7.55,7.55,0,0,1,5.89-2.32,7.46,7.46,0,0,1,4.49,1.24,6.83,6.83,0,0,1,2.49,3.45,15.06,15.06,0,0,1,.74,5.16H324.87l-.1-2.67h10.91l-.85.85a6.54,6.54,0,0,0-1.1-3.86,3.83,3.83,0,0,0-3.13-1.22,4.5,4.5,0,0,0-2.33.57A3.54,3.54,0,0,0,326.81,53a11.25,11.25,0,0,0-.5,3.73,6.39,6.39,0,0,0,1.34,4.38,5,5,0,0,0,4,1.49,10.75,10.75,0,0,0,2.18-.21,11.07,11.07,0,0,0,1.87-.53c.57-.22,1.06-.43,1.48-.63v3.33a15.3,15.3,0,0,1-2.72.84A16.62,16.62,0,0,1,331,65.75Z"/><path class="cls-4" d="M342.59,65.24V49.58a12.2,12.2,0,0,1,1.64-.75,18.16,18.16,0,0,1,2.85-.84,15.59,15.59,0,0,1,3.33-.37,6,6,0,0,1,1.41.14,5.6,5.6,0,0,1,.93.31V51c-.53-.07-1.08-.13-1.65-.16a16.45,16.45,0,0,0-1.72,0c-.57,0-1.13.09-1.68.16s-1.05.13-1.51.2V65.24Z"/><path class="cls-4" d="M363,65.75a12.37,12.37,0,0,1-3.1-.39A7,7,0,0,1,357.11,64a6.73,6.73,0,0,1-2-2.83,13,13,0,0,1-.72-4.71,9.7,9.7,0,0,1,2-6.45q2-2.37,6-2.37a9.91,9.91,0,0,1,1.62.17,15.25,15.25,0,0,1,2,.5,6,6,0,0,1,1.68.84l-.93,1.2V40.79h3.57V61.63a2.78,2.78,0,0,1-.67,1.86,4.88,4.88,0,0,1-1.77,1.28,9.89,9.89,0,0,1-2.4.74A14.22,14.22,0,0,1,363,65.75Zm.1-3.12a8.18,8.18,0,0,0,2.64-.38c.73-.25,1.1-.58,1.1-1V51.68a6.75,6.75,0,0,0-1.89-.76,8.14,8.14,0,0,0-1.92-.24,5.13,5.13,0,0,0-2.76.67,3.9,3.9,0,0,0-1.6,2,8.62,8.62,0,0,0-.52,3.17,10.73,10.73,0,0,0,.42,3.11A4.12,4.12,0,0,0,360,61.8,4.91,4.91,0,0,0,363.05,62.63Z"/><path class="cls-4" d="M375.44,45.26V42h3.85v3.27Zm.11,20V48.11h3.6l0,17.13Z"/><path class="cls-4" d="M399.31,53.84v11.4H395.7V54.32a5.68,5.68,0,0,0-.15-1.29,3,3,0,0,0-.59-1.16,2.85,2.85,0,0,0-1.23-.85,6.21,6.21,0,0,0-2.12-.31,9.74,9.74,0,0,0-1.85.18,10.72,10.72,0,0,0-1.79.48V65.24h-3.6V49.41a13,13,0,0,1,1.7-.7,18.3,18.3,0,0,1,2-.57c.71-.16,1.43-.29,2.16-.38a17.43,17.43,0,0,1,2.13-.14,10,10,0,0,1,3.95.67,4.62,4.62,0,0,1,2.25,2.06A7.42,7.42,0,0,1,399.31,53.84Zm-4.13-3.54a10.85,10.85,0,0,1,2.43-1.47,14.41,14.41,0,0,1,2.74-.9,13.57,13.57,0,0,1,2.8-.31,10,10,0,0,1,4,.67,4.58,4.58,0,0,1,2.25,2.06,7.42,7.42,0,0,1,.74,3.49v11.4h-3.61V54.32a5.68,5.68,0,0,0-.15-1.29,3,3,0,0,0-.59-1.16,2.85,2.85,0,0,0-1.23-.85,6.15,6.15,0,0,0-2.11-.31,6.66,6.66,0,0,0-1.86.28,6.22,6.22,0,0,0-1.78.86Z"/><path class="cls-4" d="M422.55,65.75q-4.19,0-6.23-2.37t-2.05-6.76c0-3.11.71-5.4,2.12-6.85a8.08,8.08,0,0,1,6.09-2.18,9.42,9.42,0,0,1,4.7,1,6.34,6.34,0,0,1,2.75,3.07,12.07,12.07,0,0,1,.89,4.91q0,4.37-2.14,6.75A7.83,7.83,0,0,1,422.55,65.75Zm0-3a4.53,4.53,0,0,0,2.79-.78,4.31,4.31,0,0,0,1.49-2.14,11.44,11.44,0,0,0,0-6.49,3.86,3.86,0,0,0-1.51-2,5,5,0,0,0-2.75-.67,4.68,4.68,0,0,0-2.74.72,4,4,0,0,0-1.48,2.06,10.25,10.25,0,0,0-.44,3.23,8,8,0,0,0,1.06,4.46A4,4,0,0,0,422.51,62.7Z"/><path class="cls-4" d="M440,65.75a10.93,10.93,0,0,1-3.14-.39,18,18,0,0,1-2.52-1V61c.59.37,1.17.69,1.75,1a8.34,8.34,0,0,0,3.91.91,3.87,3.87,0,0,0,2.32-.62,1.85,1.85,0,0,0,.84-1.54,1.55,1.55,0,0,0-.53-1.24,4.74,4.74,0,0,0-1.36-.76c-.55-.2-1.12-.41-1.72-.61s-1.23-.35-1.85-.57a6.56,6.56,0,0,1-1.7-.89,4.29,4.29,0,0,1-1.24-1.46,4.93,4.93,0,0,1,1.65-6.3,6.87,6.87,0,0,1,2.1-.93,9.5,9.5,0,0,1,5.22.16,17.11,17.11,0,0,1,2.25,1l0,3.09c-.82-.43-1.6-.81-2.34-1.13a6.26,6.26,0,0,0-2.54-.48,4.46,4.46,0,0,0-2.23.5,1.58,1.58,0,0,0-.89,1.45,1.75,1.75,0,0,0,.5,1.31,3.35,3.35,0,0,0,1.3.75c.54.19,1.12.37,1.74.55l1.78.57a6.7,6.7,0,0,1,1.72.84A4.49,4.49,0,0,1,446.33,58a4.84,4.84,0,0,1,.49,2.34,4.92,4.92,0,0,1-1,3.12,5.5,5.5,0,0,1-2.56,1.75A9.75,9.75,0,0,1,440,65.75Z"/><path class="cls-4" d="M292.22,106.44h-3.57V82.68h3.57Z"/><path class="cls-4" d="M303.55,107a12.83,12.83,0,0,1-2.58-.25,7.14,7.14,0,0,1-2.25-.88,4.54,4.54,0,0,1-1.61-1.7,5.49,5.49,0,0,1-.6-2.69,6,6,0,0,1,.75-3.16,4.72,4.72,0,0,1,2.17-1.86,8.37,8.37,0,0,1,3.36-.61,12,12,0,0,1,2.35.2,9.55,9.55,0,0,1,1.89.57,7.07,7.07,0,0,1,1.43.8l.38,2.37a7.18,7.18,0,0,0-2-.87,10,10,0,0,0-2.75-.36,5.3,5.3,0,0,0-3,.69,2.31,2.31,0,0,0-1,2,2.36,2.36,0,0,0,.58,1.67,3.53,3.53,0,0,0,1.46.93,6,6,0,0,0,1.84.29,11.47,11.47,0,0,0,3-.28,1.2,1.2,0,0,0,1-1.27V95.38a3.15,3.15,0,0,0-1.1-2.66,5,5,0,0,0-3.13-.84,10.65,10.65,0,0,0-3,.46,7.14,7.14,0,0,0-2.54,1.29V90.27a7.89,7.89,0,0,1,2.8-1,18.11,18.11,0,0,1,3.79-.39,10.69,10.69,0,0,1,1.94.18,8.6,8.6,0,0,1,1.84.59,5.2,5.2,0,0,1,1.52,1.06,4.67,4.67,0,0,1,1.05,1.63,6.24,6.24,0,0,1,.38,2.27v8.24a3.23,3.23,0,0,1-1.05,2.59,5.82,5.82,0,0,1-2.83,1.24A22.48,22.48,0,0,1,303.55,107Z"/><path class="cls-4" d="M326.31,106.44V90.78A13.18,13.18,0,0,1,328,90a18.16,18.16,0,0,1,2.85-.84,15.58,15.58,0,0,1,3.33-.36,6.15,6.15,0,0,1,1.41.13,5.79,5.79,0,0,1,.92.31v2.89c-.52-.07-1.07-.12-1.64-.16a16.45,16.45,0,0,0-1.72,0c-.57,0-1.13.09-1.68.16s-1.06.13-1.51.2v14.08Z"/><path class="cls-4" d="M347.63,107a9.73,9.73,0,0,1-4.07-.77,5.75,5.75,0,0,1-2.62-2.32A7.33,7.33,0,0,1,340,100V89.2h3.61V99.5a4.64,4.64,0,0,0,1,3.25,4.93,4.93,0,0,0,6.08,0,4.64,4.64,0,0,0,1-3.25V89.2h3.47V100a6.54,6.54,0,0,1-2,5.18A8,8,0,0,1,347.63,107Z"/><path class="cls-4" d="M366.34,106.89a5.31,5.31,0,0,1-3.69-1.24A4.69,4.69,0,0,1,361.3,102V92.19h-2.78v-3h2.78V84.4H365v4.8h4.18v3H365v9.1a3.15,3.15,0,0,0,.42,1.8,1.85,1.85,0,0,0,1.6.6,4.69,4.69,0,0,0,1.17-.15,3.78,3.78,0,0,0,1-.4v3.2a6,6,0,0,1-1.39.41A8.46,8.46,0,0,1,366.34,106.89Z"/><path class="cls-4" d="M379.63,107a12.66,12.66,0,0,1-2.57-.25,7,7,0,0,1-2.25-.88,4.49,4.49,0,0,1-1.62-1.7,5.49,5.49,0,0,1-.6-2.69,5.89,5.89,0,0,1,.76-3.16,4.64,4.64,0,0,1,2.16-1.86,8.38,8.38,0,0,1,3.37-.61,12,12,0,0,1,2.35.2,9.55,9.55,0,0,1,1.89.57,7,7,0,0,1,1.42.8l.38,2.37a7.18,7.18,0,0,0-2-.87,10,10,0,0,0-2.74-.36,5.26,5.26,0,0,0-3,.69,2.3,2.3,0,0,0-1,2,2.36,2.36,0,0,0,.59,1.67,3.46,3.46,0,0,0,1.46.93,5.84,5.84,0,0,0,1.83.29,11.47,11.47,0,0,0,3-.28,1.2,1.2,0,0,0,1-1.27V95.38a3.12,3.12,0,0,0-1.1-2.66,5,5,0,0,0-3.12-.84,10.72,10.72,0,0,0-3,.46,7.14,7.14,0,0,0-2.54,1.29V90.27a7.89,7.89,0,0,1,2.8-1,18.18,18.18,0,0,1,3.79-.39,10.69,10.69,0,0,1,1.94.18,8.25,8.25,0,0,1,1.84.59,5.38,5.38,0,0,1,1.53,1.06,4.8,4.8,0,0,1,1,1.63,6,6,0,0,1,.38,2.27v8.24a3.26,3.26,0,0,1-1,2.59,5.86,5.86,0,0,1-2.84,1.24A22.48,22.48,0,0,1,379.63,107Z"/><path class="cls-4" d="M405.31,100.43l-.41-16.89h3.5L408,100.43Zm-.41,6v-3.23h3.54v3.23Z"/></g></g><polygon class="cls-4" points="318.77 379 319.07 375.4 319.45 371.75 326.54 372.62 326.18 376.05 325.89 379.55 318.77 379"/><polygon class="cls-4" points="318.08 388.9 318.57 381.79 325.69 382.3 325.2 389.4 318.08 388.9"/><path class="cls-4" d="M317.31,398.7c.22-2.33.39-4.69.57-7l7.13.52c-.19,2.39-.36,4.77-.59,7.16Z"/><path class="cls-4" d="M316.26,408.41c.32-2.31.55-4.64.8-7l7.11.7c-.26,2.39-.5,4.79-.83,7.18Z"/><path class="cls-4" d="M314.77,418c.45-2.27.78-4.58,1.13-6.88l7.08,1c-.38,2.39-.71,4.79-1.18,7.17Z"/><path class="cls-4" d="M312.71,427.42c.63-2.21,1.05-4.5,1.57-6.75l7,1.42c-.55,2.37-1,4.76-1.66,7.12Z"/><path class="cls-4" d="M309.92,436.58c.42-1.06.76-2.16,1.09-3.26s.7-2.18,1-3.29l6.87,1.94c-.32,1.18-.71,2.35-1.07,3.52s-.73,2.34-1.18,3.49Z"/><path class="cls-4" d="M306.26,445.34c.55-1,.94-2.06,1.41-3.1s1-2.06,1.32-3.15l6.66,2.59c-.4,1.17-1,2.28-1.43,3.42s-.94,2.29-1.54,3.38Z"/><path class="cls-4" d="M301.6,453.52c.63-.93,1.18-1.92,1.77-2.88a30.53,30.53,0,0,0,1.68-2.94l6.3,3.36a34.82,34.82,0,0,1-1.85,3.25c-.66,1.06-1.26,2.15-2,3.18Z"/><path class="cls-4" d="M295.83,460.86,298,458.3c.35-.43.74-.84,1.07-1.28l1-1.37,5.76,4.22-1.09,1.52c-.38.5-.81,1-1.21,1.45l-2.45,2.87Z"/><polygon class="cls-4" points="288.95 467.09 291.54 464.98 292.19 464.45 292.79 463.87 293.98 462.69 298.99 467.78 297.64 469.11 296.96 469.77 296.23 470.37 293.3 472.76 288.95 467.09"/><path class="cls-4" d="M281.12,472.08c1-.54,2-1,2.94-1.61l2.78-1.86,4.07,5.87-3.14,2.1c-1.08.64-2.2,1.2-3.3,1.81Z"/><path class="cls-4" d="M272.56,475.81a24.78,24.78,0,0,0,3.14-1.2l3.11-1.31,3.06,6.46-3.46,1.46a32.31,32.31,0,0,1-3.5,1.34Z"/><path class="cls-4" d="M263.46,478.29a58.17,58.17,0,0,0,6.58-1.68l2.09,6.83a64.72,64.72,0,0,1-7.22,1.84Z"/><path class="cls-4" d="M254.07,479.71c2.28-.22,4.52-.61,6.79-.9l1.21,7c-2.44.32-4.88.74-7.33,1Z"/><path class="cls-4" d="M244.5,480.13c1.15,0,2.31.07,3.45,0l3.44-.22.49,7.13-3.67.23c-1.23.1-2.45,0-3.67,0Z"/><path class="cls-4" d="M234.87,479.81l3.47.24c1.15.11,2.31,0,3.46.07l-.11,7.14c-1.22,0-2.45,0-3.66-.07l-3.64-.25Z"/><path class="cls-4" d="M225.27,478.88c1.14.19,2.3.28,3.44.43l1.72.19,1.74.12-.62,7.12-1.82-.13-1.81-.2c-1.21-.16-2.43-.26-3.64-.45Z"/><path class="cls-4" d="M215.87,477.14c1.11.26,2.22.53,3.35.72s2.25.47,3.39.62l-1.16,7c-1.21-.17-2.41-.44-3.61-.66s-2.41-.5-3.61-.78Z"/><path class="cls-4" d="M206.78,474.46c2.13.77,4.29,1.45,6.5,2l-1.85,6.9c-2.39-.63-4.75-1.38-7.1-2.22Z"/><path class="cls-4" d="M198.25,470.63c1,.54,2,1,3,1.53l3.08,1.36-2.71,6.61-3.43-1.52c-1.12-.57-2.26-1.11-3.36-1.71Z"/><path class="cls-4" d="M190.56,465.49a53.13,53.13,0,0,0,5.43,3.84l-3.72,6.1a60.8,60.8,0,0,1-6.2-4.38Z"/><path class="cls-4" d="M184,459.06c.74.82,1.44,1.68,2.24,2.45l1.16,1.18,1.22,1.12-4.78,5.31-1.4-1.28-1.33-1.36c-.91-.89-1.72-1.86-2.56-2.81Z"/><path class="cls-4" d="M178.62,451.47a56.66,56.66,0,0,0,3.72,5.56l-5.68,4.34a63.35,63.35,0,0,1-4.19-6.27Z"/><path class="cls-4" d="M174.38,443.05c.92,2.08,1.86,4.15,2.94,6.13L171,452.56c-1.2-2.19-2.22-4.45-3.22-6.71Z"/><path class="cls-4" d="M171.06,434.06c.7,2.21,1.49,4.37,2.31,6.51l-6.65,2.61c-.88-2.29-1.71-4.59-2.45-6.91Z"/><path class="cls-4" d="M168.32,424.74c.62,2.26,1.24,4.52,1.92,6.73l-6.83,2.09c-.72-2.32-1.36-4.65-2-7Z"/><polygon class="cls-4" points="165.89 415.22 167.62 422.08 160.71 423.88 158.96 416.93 165.89 415.22"/><polygon class="cls-4" points="163.5 405.58 165.23 412.52 158.29 414.23 156.58 407.34 163.5 405.58"/><path class="cls-4" d="M160.91,395.91c.67,2.32,1.29,4.64,1.9,7l-6.91,1.8c-.6-2.27-1.2-4.54-1.85-6.78Z"/><path class="cls-4" d="M157.88,386.29q1.2,3.43,2.23,6.92l-6.83,2.06q-1-3.36-2.15-6.64Z"/><path class="cls-4" d="M154.18,376.8c1,2.25,1.9,4.52,2.73,6.81l-6.69,2.47c-.8-2.17-1.67-4.3-2.58-6.41Z"/><path class="cls-4" d="M149.63,367.62c1.19,2.16,2.33,4.35,3.36,6.57l-6.46,3c-1-2.08-2-4.11-3.13-6.11Z"/><path class="cls-4" d="M144.1,358.93c1.43,2,2.81,4.08,4.08,6.2l-6.12,3.68c-1.17-2-2.44-3.85-3.75-5.7Z"/><path class="cls-4" d="M137.55,350.94c1.67,1.83,3.29,3.71,4.8,5.67L136.71,361c-1.39-1.8-2.86-3.52-4.4-5.19Z"/><path class="cls-4" d="M130.06,343.82c1.9,1.59,3.73,3.27,5.47,5l-5.06,5q-2.4-2.42-5-4.61Z"/><path class="cls-4" d="M121.83,337.64c2,1.37,4.06,2.81,6,4.35l-4.42,5.61c-1.78-1.42-3.64-2.75-5.53-4Z"/><path class="cls-4" d="M113,332.4c2.18,1.14,4.29,2.39,6.4,3.67l-3.78,6.06c-2-1.19-3.93-2.36-6-3.42Z"/><polygon class="cls-4" points="104.03 327.96 110.46 331.09 107.28 337.49 100.9 334.38 104.03 327.96"/><path class="cls-4" d="M95.36,323.5c2.08,1.09,4.09,2.27,6.21,3.26l-3.2,6.38c-2.19-1-4.27-2.24-6.41-3.36Z"/><path class="cls-4" d="M86.9,318.68c2,1.17,4,2.39,6.06,3.53l-3.49,6.23c-2.1-1.17-4.16-2.43-6.25-3.64Z"/><polygon class="cls-4" points="78.66 313.49 84.56 317.27 80.8 323.35 74.71 319.44 78.66 313.49"/><path class="cls-4" d="M70.67,307.92c1.88,1.38,3.83,2.68,5.73,4l-4,5.9c-2-1.39-4-2.74-5.92-4.17Z"/><path class="cls-4" d="M63,302c1.78,1.51,3.67,2.89,5.53,4.3L64.2,312c-1.92-1.46-3.87-2.88-5.71-4.45Z"/><path class="cls-4" d="M55.55,295.69c1.74,1.55,3.48,3.1,5.31,4.55l-4.56,5.5c-1.89-1.5-3.69-3.11-5.5-4.72Z"/><path class="cls-4" d="M48.44,289.06c1.69,1.6,3.33,3.25,5.07,4.82l-4.82,5.27c-1.8-1.62-3.51-3.34-5.26-5Z"/><path class="cls-4" d="M41.68,282.09c1.57,1.71,3.21,3.36,4.82,5.05l-5.08,5c-1.67-1.75-3.37-3.47-5-5.25Z"/><path class="cls-4" d="M35.34,274.74c.74.9,1.44,1.82,2.22,2.69l2.31,2.62-5.34,4.74-2.4-2.72c-.81-.91-1.54-1.87-2.32-2.8Z"/><path class="cls-4" d="M29.41,267.08l2.08,2.79c.68.94,1.38,1.87,2.13,2.76L28,277.07c-.78-.93-1.52-1.9-2.23-2.88l-2.17-2.92Z"/><path class="cls-4" d="M24,259.08c1.21,2,2.57,3.86,3.85,5.79L22,269c-1.34-2-2.76-4-4-6.07Z"/><path class="cls-4" d="M19.13,250.74l1.66,3c.55,1,1.19,2,1.78,3l-6.11,3.69c-.62-1-1.29-2.06-1.87-3.13l-1.75-3.21Z"/><path class="cls-4" d="M14.9,242.11c.91,2.11,2,4.17,3,6.25l-6.36,3.24c-1-2.21-2.16-4.38-3.13-6.63Z"/><path class="cls-4" d="M11.47,233.17c.75,2.17,1.47,4.35,2.41,6.45l-6.62,2.71c-1-2.24-1.76-4.58-2.57-6.9Z"/><path class="cls-4" d="M8.93,224c.4,2.24,1.13,4.42,1.72,6.63l-6.84,2.06C3.17,230.31,2.4,228,2,225.53Z"/><path class="cls-4" d="M7.42,214.67c.08,1.12.3,2.24.43,3.37l.24,1.68a14.06,14.06,0,0,0,.29,1.68l-7,1.3A15.9,15.9,0,0,1,1,220.87L.78,219c-.15-1.23-.38-2.45-.47-3.7Z"/><path class="cls-4" d="M7.21,205.3a65.93,65.93,0,0,0,0,6.74l-7.13.38a71.93,71.93,0,0,1-.06-7.49Z"/><path class="cls-4" d="M8.47,196.1l-.64,3.27c-.22,1.09-.25,2.22-.39,3.32L.33,202c.15-1.25.21-2.51.45-3.75l.72-3.72Z"/><path class="cls-4" d="M11.33,187.35l-1.25,3.06c-.34,1.05-.64,2.12-1,3.18l-6.88-1.92c.37-1.22.71-2.44,1.1-3.64l1.44-3.53Z"/><path class="cls-4" d="M15.81,179.34c-.61.92-1.25,1.82-1.84,2.75L12.42,185,6,181.81l1.8-3.37c.66-1.08,1.4-2.12,2.1-3.18Z"/><polygon class="cls-4" points="21.77 172.32 20.57 173.48 19.98 174.06 19.45 174.7 17.32 177.25 11.68 172.86 14.12 169.94 14.74 169.21 15.41 168.55 16.77 167.22 21.77 172.32"/></g></g></svg>