<svg xmlns="http://www.w3.org/2000/svg" viewBox="0 0 42.84 44.61"><defs><style>.cls-1{fill:#76bd43;}.cls-2{fill:#f2f2f2;}.cls-3{fill:gray;}.cls-4,.cls-5{fill:#fff;}.cls-4{opacity:0.22;}.cls-6{fill:#ff4f40;}.cls-7{fill:none;stroke:gray;stroke-miterlimit:10;stroke-width:1.51px;}.cls-8{fill:#588c32;}</style></defs><title>t-rex-asteroide-inofensivo</title><g id="Capa_2" data-name="Capa 2"><g id="Capa_1-2" data-name="Capa 1"><g id="_Grupo_" data-name="&lt;Grupo&gt;"><g id="_Grupo_2" data-name="&lt;Grupo&gt;"><rect id="_Rectángulo_" data-name="&lt;Rectángulo&gt;" class="cls-1" x="9.29" y="13.55" width="26.47" height="26.81"/><g id="_Grupo_3" data-name="&lt;Grupo&gt;"><rect id="_Rectángulo_2" data-name="&lt;Rectángulo&gt;" class="cls-2" x="26.34" y="19.23" width="3.61" height="3.61"/><rect id="_Rectángulo_3" data-name="&lt;Rectángulo&gt;" class="cls-3" x="26.73" y="19.65" width="2.3" height="2.3"/><rect id="_Rectángulo_4" data-name="&lt;Rectángulo&gt;" class="cls-2" x="27.09" y="19.9" width="0.78" height="0.78"/><rect id="_Rectángulo_5" data-name="&lt;Rectángulo&gt;" class="cls-2" x="28" y="20.73" width="0.44" height="0.44"/></g><g id="_Grupo_4" data-name="&lt;Grupo&gt;"><rect id="_Rectángulo_6" data-name="&lt;Rectángulo&gt;" class="cls-2" x="14.75" y="19.23" width="3.61" height="3.61"/><rect id="_Rectángulo_7" data-name="&lt;Rectángulo&gt;" class="cls-3" x="15.59" y="19.58" width="2.3" height="2.3"/><rect id="_Rectángulo_8" data-name="&lt;Rectángulo&gt;" class="cls-2" x="15.95" y="19.84" width="0.78" height="0.78"/><rect id="_Rectángulo_9" data-name="&lt;Rectángulo&gt;" class="cls-2" x="16.85" y="20.66" width="0.44" height="0.44"/></g><g id="_Grupo_5" data-name="&lt;Grupo&gt;"><g id="_Grupo_6" data-name="&lt;Grupo&gt;"><polyline id="_Trazado_" data-name="&lt;Trazado&gt;" class="cls-2" points="29.05 34.02 15.3 34.02 15.3 31.77 29.8 31.77 29.8 34.02 29.05 34.02"/></g><rect id="_Rectángulo_10" data-name="&lt;Rectángulo&gt;" class="cls-2" x="29.8" y="29.31" width="2.67" height="2.35"/><rect id="_Rectángulo_11" data-name="&lt;Rectángulo&gt;" class="cls-2" x="12.59" y="29.31" width="2.7" height="2.35"/></g><rect id="_Rectángulo_12" data-name="&lt;Rectángulo&gt;" class="cls-4" x="6.79" y="8.02" width="31.36" height="32.59"/><g id="_Grupo_7" data-name="&lt;Grupo&gt;"><rect id="_Rectángulo_13" data-name="&lt;Rectángulo&gt;" class="cls-5" x="6.79" y="4.49" width="32.24" height="4.23"/><rect id="_Rectángulo_14" data-name="&lt;Rectángulo&gt;" class="cls-5" x="6.79" y="37.34" width="4.63" height="4.23"/><rect id="_Rectángulo_15" data-name="&lt;Rectángulo&gt;" class="cls-5" x="34.39" y="37.34" width="4.63" height="4.23"/><rect id="_Rectángulo_16" data-name="&lt;Rectángulo&gt;" class="cls-5" x="6.79" y="8.42" width="4.63" height="4.23"/><rect id="_Rectángulo_17" data-name="&lt;Rectángulo&gt;" class="cls-5" x="34.39" y="8.42" width="4.63" height="4.23"/><rect id="_Rectángulo_18" data-name="&lt;Rectángulo&gt;" class="cls-5" x="2.21" y="12.66" width="4.63" height="24.76"/><rect id="_Rectángulo_19" data-name="&lt;Rectángulo&gt;" class="cls-5" x="38.22" y="12.66" width="4.63" height="24.76" transform="translate(81.06 50.07) rotate(-180)"/><rect id="_Rectángulo_20" data-name="&lt;Rectángulo&gt;" class="cls-5" x="21.35" y="29.25" width="4.23" height="26.48" transform="translate(-19.02 65.96) rotate(-90)"/></g><rect id="_Rectángulo_21" data-name="&lt;Rectángulo&gt;" class="cls-3" y="22.38" width="2.41" height="5.32"/><rect id="_Rectángulo_22" data-name="&lt;Rectángulo&gt;" class="cls-3" x="1.55" y="2.94" width="0.86" height="19.43"/><rect id="_Rectángulo_23" data-name="&lt;Rectángulo&gt;" class="cls-6" x="0.44" width="3.08" height="3.08"/><polygon id="_Trazado_2" data-name="&lt;Trazado&gt;" class="cls-7" points="11.41 12.65 11.41 8.42 34.4 8.42 34.4 12.65 38.22 12.65 38.22 37.41 34.4 37.41 34.4 40.4 11.52 40.4 11.52 37.34 6.84 37.34 6.84 12.65 11.41 12.65"/></g><rect id="_Rectángulo_24" data-name="&lt;Rectángulo&gt;" class="cls-8" x="19.56" y="25.04" width="1.71" height="1.71"/><rect id="_Rectángulo_25" data-name="&lt;Rectángulo&gt;" class="cls-8" x="23.99" y="25.04" width="1.71" height="1.71"/></g><rect class="cls-8" x="14.54" y="17.46" width="4.02" height="0.75"/><rect class="cls-8" x="25.98" y="17.46" width="4.02" height="0.75"/></g></g></svg>