<svg xmlns="http://www.w3.org/2000/svg" xmlns:xlink="http://www.w3.org/1999/xlink" viewBox="0 0 376.79 520.59"><defs><style>.cls-1,.cls-6{fill:#fff;}.cls-2{fill:#76bd43;}.cls-3{fill:#f2f2f2;}.cls-4{fill:gray;}.cls-5{fill:#588c32;}.cls-6{opacity:0.22;}.cls-7{fill:#ff4f40;}.cls-8,.cls-9{fill:none;stroke-miterlimit:10;}.cls-8{stroke:gray;stroke-width:6.47px;}.cls-9{stroke:#fff;stroke-width:3.79px;}.cls-10{fill:url(#Degradado_sin_nombre_40);}.cls-11{fill:url(#Degradado_sin_nombre_40-2);}.cls-12{fill:url(#Degradado_sin_nombre_40-3);}.cls-13{fill:url(#Degradado_sin_nombre_40-4);}</style><linearGradient id="Degradado_sin_nombre_40" x1="132.65" y1="333.08" x2="193.69" y2="333.08" gradientUnits="userSpaceOnUse"><stop offset="0.01" stop-color="#ff7266"/><stop offset="1" stop-color="#cc0f59"/></linearGradient><linearGradient id="Degradado_sin_nombre_40-2" x1="201.72" y1="318.87" x2="133.79" y2="318.87" xlink:href="#Degradado_sin_nombre_40"/><linearGradient id="Degradado_sin_nombre_40-3" x1="144.18" y1="307.49" x2="182.15" y2="307.49" xlink:href="#Degradado_sin_nombre_40"/><linearGradient id="Degradado_sin_nombre_40-4" x1="201.72" y1="296.11" x2="133.79" y2="296.11" xlink:href="#Degradado_sin_nombre_40"/></defs><title>t-rex-cumpleanos-home</title><g id="Capa_2" data-name="Capa 2"><g id="Capa_1-2" data-name="Capa 1"><g id="_Grupo_" data-name="&lt;Grupo&gt;"><g id="_Grupo_2" data-name="&lt;Grupo&gt;"><g id="_Grupo_3" data-name="&lt;Grupo&gt;"><rect id="_Rectángulo_" data-name="&lt;Rectángulo&gt;" class="cls-1" x="368.54" y="16.28" width="8.26" height="89.7"/><rect id="_Rectángulo_2" data-name="&lt;Rectángulo&gt;" class="cls-1" x="225.13" y="122.02" width="8.26" height="31.09"/><rect id="_Rectángulo_3" data-name="&lt;Rectángulo&gt;" class="cls-1" x="200.15" y="16.28" width="8.26" height="89.7"/><rect id="_Rectángulo_4" data-name="&lt;Rectángulo&gt;" class="cls-1" x="284.34" y="-67.92" width="8.26" height="144.09" transform="translate(284.34 292.6) rotate(-90)"/><rect id="_Rectángulo_5" data-name="&lt;Rectángulo&gt;" class="cls-1" x="304.85" y="66.59" width="8.26" height="103.07" transform="translate(190.85 427.1) rotate(-90)"/><rect id="_Rectángulo_6" data-name="&lt;Rectángulo&gt;" class="cls-1" x="208.41" y="8.26" width="8.02" height="8.02"/><rect id="_Rectángulo_7" data-name="&lt;Rectángulo&gt;" class="cls-1" x="360.52" y="8.26" width="8.02" height="8.02"/><rect id="_Rectángulo_8" data-name="&lt;Rectángulo&gt;" class="cls-1" x="360.52" y="105.98" width="8.02" height="8.02"/><rect id="_Rectángulo_9" data-name="&lt;Rectángulo&gt;" class="cls-1" x="208.41" y="105.98" width="8.02" height="8.02"/><rect id="_Rectángulo_10" data-name="&lt;Rectángulo&gt;" class="cls-1" x="233.39" y="137.1" width="8.02" height="8.02"/><rect id="_Rectángulo_11" data-name="&lt;Rectángulo&gt;" class="cls-1" x="241.4" y="129.08" width="8.02" height="8.02"/><rect id="_Rectángulo_12" data-name="&lt;Rectángulo&gt;" class="cls-1" x="249.42" y="121.06" width="8.02" height="8.02"/><rect id="_Rectángulo_13" data-name="&lt;Rectángulo&gt;" class="cls-1" x="216.43" y="114" width="15.03" height="8.02"/></g></g><g id="_Grupo_4" data-name="&lt;Grupo&gt;"><path class="cls-1" d="M245.85,49.88V31.57h3v7.88h8.45V31.57h3.05V49.88h-3.05v-7.8h-8.45v7.8Z"/><path class="cls-1" d="M263,49.88l7.14-18.31h3.21l6.95,18.31h-3.19L271,33.05l1.15-.11L266,49.88Zm3.51-5,.88-2.47h8.71l.24,2.47Z"/><path class="cls-1" d="M286,43.32v6.56h-3V31.57h7.25A7.29,7.29,0,0,1,295,33a5.39,5.39,0,0,1,1.71,4.34A5.63,5.63,0,0,1,295,41.78a7.06,7.06,0,0,1-4.85,1.54Zm0-2.58h3.85a6.05,6.05,0,0,0,1.92-.26,2.62,2.62,0,0,0,1.72-1.8,4.83,4.83,0,0,0,.15-1.21,5.19,5.19,0,0,0-.15-1.24,2.68,2.68,0,0,0-.57-1.08,2.79,2.79,0,0,0-1.15-.76,5.75,5.75,0,0,0-1.92-.27H286Z"/><path class="cls-1" d="M303.4,43.32v6.56h-3V31.57h7.25A7.27,7.27,0,0,1,312.47,33a5.36,5.36,0,0,1,1.72,4.34,5.6,5.6,0,0,1-1.72,4.42,7,7,0,0,1-4.84,1.54Zm0-2.58h3.84a6.08,6.08,0,0,0,1.93-.26,2.74,2.74,0,0,0,1.15-.75,2.68,2.68,0,0,0,.56-1,4.83,4.83,0,0,0,.15-1.21,5.19,5.19,0,0,0-.15-1.24,2.66,2.66,0,0,0-.56-1.08,2.86,2.86,0,0,0-1.15-.76,5.78,5.78,0,0,0-1.93-.27H303.4Z"/><path class="cls-1" d="M323,49.88V41.67l-6.89-10.1h3.7l5.55,8.65-1.24-.12,5.27-8.53h3.27l-7.11,10.84.47-1.7v9.17Z"/><path class="cls-1" d="M225.57,82.83V64.52h6.78a9.18,9.18,0,0,1,3.61.6,4.2,4.2,0,0,1,2,1.72,5.08,5.08,0,0,1,.66,2.65,3.53,3.53,0,0,1-.47,1.93,3.9,3.9,0,0,1-1.11,1.17l-1.22.82-.36-.63a6.11,6.11,0,0,1,2,.76,4.53,4.53,0,0,1,1.58,1.53,4.47,4.47,0,0,1,.62,2.43,5.07,5.07,0,0,1-.85,3,4.82,4.82,0,0,1-2.38,1.73,10.17,10.17,0,0,1-3.5.55Zm3-10.68h4.12a5.2,5.2,0,0,0,1.37-.18,2.12,2.12,0,0,0,1.1-.7,2.36,2.36,0,0,0,.44-1.54,2.32,2.32,0,0,0-.87-2.1,4.17,4.17,0,0,0-2.29-.56h-3.87Zm0,8.15H233a6.48,6.48,0,0,0,1.8-.23,2.51,2.51,0,0,0,1.35-.88,2.88,2.88,0,0,0,.51-1.82,2.82,2.82,0,0,0-.33-1.46,2.34,2.34,0,0,0-.87-.84,3.51,3.51,0,0,0-1.21-.38,9.92,9.92,0,0,0-1.33-.1h-4.25Z"/><path class="cls-1" d="M243.31,82.83V64.52h3V82.83Z"/><path class="cls-1" d="M250.69,82.83V64.52h8.13a6.32,6.32,0,0,1,4.38,1.38A5.3,5.3,0,0,1,264.72,70a6.07,6.07,0,0,1-.57,2.64,5,5,0,0,1-1.68,2,5.18,5.18,0,0,1-2.61.88l.33-.94,5.44,8.24h-3.76l-5.08-8.21,1.4,1.29h-4.48v6.92Zm3-9.39H258a3.94,3.94,0,0,0,2.7-.8,3,3,0,0,0,.9-2.41,3.55,3.55,0,0,0-.7-2.34,3,3,0,0,0-2.41-.82h-4.75Z"/><path class="cls-1" d="M272.88,82.83V67.07H267V64.52h14.88v2.55H275.9V82.83Z"/><path class="cls-1" d="M284.58,82.83V64.52h3V72.4h8.45V64.52h3.05V82.83h-3.05V75H287.6v7.8Z"/><path class="cls-1" d="M303.44,82.83V64.52h6.43c3,0,5.17.76,6.61,2.3s2.17,3.82,2.17,6.84-.72,5.3-2.17,6.85-3.65,2.32-6.61,2.32Zm3-2.55h3.1a5.89,5.89,0,0,0,4.53-1.58q1.46-1.58,1.46-5c0-2.29-.49-4-1.46-5A5.86,5.86,0,0,0,309.56,67h-3.1Z"/><path class="cls-1" d="M320.57,82.83l7.14-18.31h3.22l6.94,18.31h-3.18L328.57,66l1.15-.11L323.6,82.83Zm3.52-5,.88-2.47h8.7l.25,2.47Z"/><path class="cls-1" d="M343.26,82.83V74.62l-6.9-10.1h3.71l5.55,8.65-1.24-.12,5.27-8.53h3.27l-7.11,10.84.47-1.7v9.17Z"/></g></g><g id="_Grupo_5" data-name="&lt;Grupo&gt;"><polygon id="_Trazado_" data-name="&lt;Trazado&gt;" class="cls-2" points="95.59 352.27 64.93 352.27 64.93 337.85 45.09 337.85 45.09 321.61 0 321.61 0 336.04 17.13 336.04 17.13 350.47 33.37 350.47 33.37 364 51.4 364 51.4 381.13 67.64 381.13 67.64 400.07 97.39 400.07 95.59 352.27"/><rect id="_Rectángulo_14" data-name="&lt;Rectángulo&gt;" class="cls-2" x="83.64" y="293.93" width="94.56" height="111.91"/><rect id="_Rectángulo_15" data-name="&lt;Rectángulo&gt;" class="cls-2" x="74.13" y="179.31" width="113.23" height="114.65"/><g id="_Grupo_6" data-name="&lt;Grupo&gt;"><rect id="_Rectángulo_16" data-name="&lt;Rectángulo&gt;" class="cls-3" x="147.05" y="203.57" width="15.44" height="15.44"/><rect id="_Rectángulo_17" data-name="&lt;Rectángulo&gt;" class="cls-4" x="152.38" y="207.23" width="9.82" height="9.82"/><rect id="_Rectángulo_18" data-name="&lt;Rectángulo&gt;" class="cls-3" x="153.91" y="208.32" width="3.33" height="3.33"/><rect id="_Rectángulo_19" data-name="&lt;Rectángulo&gt;" class="cls-3" x="157.79" y="211.86" width="1.9" height="1.9"/></g><g id="_Grupo_7" data-name="&lt;Grupo&gt;"><rect id="_Rectángulo_20" data-name="&lt;Rectángulo&gt;" class="cls-3" x="97.47" y="203.57" width="15.44" height="15.44"/><rect id="_Rectángulo_21" data-name="&lt;Rectángulo&gt;" class="cls-4" x="102.8" y="207.23" width="9.82" height="9.82"/><rect id="_Rectángulo_22" data-name="&lt;Rectángulo&gt;" class="cls-3" x="104.33" y="208.32" width="3.33" height="3.33"/><rect id="_Rectángulo_23" data-name="&lt;Rectángulo&gt;" class="cls-3" x="108.2" y="211.86" width="1.9" height="1.9"/></g><polygon id="_Trazado_2" data-name="&lt;Trazado&gt;" class="cls-5" points="163.42 328.74 163.42 318.05 155 318.05 155 307.37 131.76 307.37 130.76 307.37 107.53 307.37 107.53 318.05 99.11 318.05 99.11 328.74 91.03 328.74 91.03 361.41 101.18 361.41 101.18 370.29 111.31 370.29 111.31 383.05 130.76 383.09 130.76 383.09 131.26 383.09 131.76 383.09 131.76 383.09 151.22 383.05 151.22 370.29 161.35 370.29 161.35 361.41 171.5 361.41 171.5 328.74 163.42 328.74"/><rect id="_Rectángulo_24" data-name="&lt;Rectángulo&gt;" class="cls-5" x="106.9" y="405.84" width="12.03" height="35.68"/><rect id="_Rectángulo_25" data-name="&lt;Rectángulo&gt;" class="cls-5" x="145.81" y="405.84" width="12.03" height="35.68"/><rect id="_Rectángulo_26" data-name="&lt;Rectángulo&gt;" class="cls-2" x="102.99" y="428.6" width="19.84" height="12.93"/><rect id="_Rectángulo_27" data-name="&lt;Rectángulo&gt;" class="cls-2" x="141.91" y="428.6" width="19.84" height="12.93"/><g id="_Grupo_8" data-name="&lt;Grupo&gt;"><g id="_Grupo_9" data-name="&lt;Grupo&gt;"><polyline id="_Trazado_3" data-name="&lt;Trazado&gt;" class="cls-3" points="158.63 266.59 99.81 266.59 99.81 257 161.83 257 161.83 266.59 158.63 266.59"/></g><rect id="_Rectángulo_28" data-name="&lt;Rectángulo&gt;" class="cls-3" x="161.83" y="246.93" width="11.4" height="10.07"/><rect id="_Rectángulo_29" data-name="&lt;Rectángulo&gt;" class="cls-3" x="88.24" y="246.93" width="11.57" height="10.07"/><rect id="_Rectángulo_30" data-name="&lt;Rectángulo&gt;" class="cls-3" x="76.67" y="236.86" width="11.57" height="10.07"/><rect id="_Rectángulo_31" data-name="&lt;Rectángulo&gt;" class="cls-3" x="173.24" y="236.86" width="11.57" height="10.07"/></g><rect id="_Rectángulo_32" data-name="&lt;Rectángulo&gt;" class="cls-6" x="63.41" y="155.66" width="134.14" height="139.39"/><g id="_Grupo_10" data-name="&lt;Grupo&gt;"><rect id="_Rectángulo_33" data-name="&lt;Rectángulo&gt;" class="cls-1" x="63.41" y="140.54" width="137.88" height="18.1"/><rect id="_Rectángulo_34" data-name="&lt;Rectángulo&gt;" class="cls-1" x="63.41" y="281.03" width="19.8" height="18.1"/><rect id="_Rectángulo_35" data-name="&lt;Rectángulo&gt;" class="cls-1" x="181.49" y="281.03" width="19.8" height="18.1"/><rect id="_Rectángulo_36" data-name="&lt;Rectángulo&gt;" class="cls-1" x="63.41" y="157.36" width="19.8" height="18.1"/><rect id="_Rectángulo_37" data-name="&lt;Rectángulo&gt;" class="cls-1" x="181.49" y="157.36" width="19.8" height="18.1"/><rect id="_Rectángulo_38" data-name="&lt;Rectángulo&gt;" class="cls-1" x="43.85" y="175.46" width="19.8" height="105.89"/><rect id="_Rectángulo_39" data-name="&lt;Rectángulo&gt;" class="cls-1" x="197.83" y="175.46" width="19.8" height="105.89" transform="translate(415.46 456.81) rotate(-180)"/><rect id="_Rectángulo_40" data-name="&lt;Rectángulo&gt;" class="cls-1" x="125.7" y="246.44" width="18.1" height="113.27" transform="translate(-168.32 437.82) rotate(-90)"/></g><rect id="_Rectángulo_41" data-name="&lt;Rectángulo&gt;" class="cls-4" x="34.38" y="217.05" width="10.33" height="22.75"/><rect id="_Rectángulo_42" data-name="&lt;Rectángulo&gt;" class="cls-4" x="41.03" y="133.93" width="3.68" height="83.12"/><rect id="_Rectángulo_43" data-name="&lt;Rectángulo&gt;" class="cls-7" x="36.27" y="121.33" width="13.19" height="13.19"/><polygon id="_Trazado_4" data-name="&lt;Trazado&gt;" class="cls-8" points="83.2 175.46 83.2 157.36 181.49 157.36 181.49 175.46 197.83 175.46 197.83 281.35 181.49 281.35 181.49 294.14 83.64 294.14 83.64 281.03 63.64 281.03 63.64 175.46 83.2 175.46"/><rect id="_Rectángulo_44" data-name="&lt;Rectángulo&gt;" class="cls-2" x="146.53" y="334.45" width="9.92" height="27.4"/><rect id="_Rectángulo_45" data-name="&lt;Rectángulo&gt;" class="cls-5" x="90.33" y="195.38" width="17.18" height="3.35"/><rect id="_Rectángulo_46" data-name="&lt;Rectángulo&gt;" class="cls-5" x="151.83" y="195.38" width="17.18" height="3.35"/><rect id="_Rectángulo_47" data-name="&lt;Rectángulo&gt;" class="cls-5" x="118.05" y="228.43" width="7.31" height="7.31"/><rect id="_Rectángulo_48" data-name="&lt;Rectángulo&gt;" class="cls-5" x="137" y="228.43" width="7.31" height="7.31"/><g id="_Grupo_11" data-name="&lt;Grupo&gt;"><rect id="_Rectángulo_49" data-name="&lt;Rectángulo&gt;" class="cls-1" x="157.22" y="83.38" width="5.38" height="5.38"/><rect id="_Rectángulo_50" data-name="&lt;Rectángulo&gt;" class="cls-1" x="162.29" y="78.01" width="5.38" height="5.38"/><rect id="_Rectángulo_51" data-name="&lt;Rectángulo&gt;" class="cls-1" x="167.67" y="72.63" width="5.38" height="5.38"/><rect id="_Rectángulo_52" data-name="&lt;Rectángulo&gt;" class="cls-2" x="152.4" y="78.46" width="5.38" height="5.38" transform="translate(310.18 162.29) rotate(-180)"/><rect id="_Rectángulo_53" data-name="&lt;Rectángulo&gt;" class="cls-2" x="147.33" y="73.08" width="5.38" height="5.38" transform="translate(300.05 151.54) rotate(-180)"/><rect id="_Rectángulo_54" data-name="&lt;Rectángulo&gt;" class="cls-2" x="141.96" y="67.71" width="5.38" height="5.38" transform="translate(289.29 140.79) rotate(-180)"/><polygon id="_Trazado_5" data-name="&lt;Trazado&gt;" class="cls-7" points="185.15 133.66 185.15 128.03 181.78 128.03 181.78 122.21 179.32 122.21 179.32 116.78 176.41 116.78 176.41 111.36 173.49 111.36 173.49 106.24 170.58 106.24 170.58 100.41 167.67 100.41 167.67 94.59 164.75 94.59 164.75 88.76 150.85 88.76 150.85 94.59 147.79 94.59 147.79 100.41 144.87 100.41 144.87 106.24 141.96 106.24 141.96 111.36 139.05 111.36 139.05 116.78 136.13 116.78 136.13 122.21 133.95 122.21 133.95 127.83 130.31 127.83 130.31 133.66 127.39 133.66 127.39 139.48 133.22 139.48 133.22 139.43 133.29 139.48 133.22 139.48 133.22 145.12 182.23 145.12 182.23 139.48 182.12 139.48 182.23 139.38 182.23 139.48 188.06 139.48 188.06 133.66 185.15 133.66"/></g><g id="_Grupo_12" data-name="&lt;Grupo&gt;"><path id="_Trazado_6" data-name="&lt;Trazado&gt;" class="cls-9" d="M14.64,519.11,29.55,465s60.08-25.5,67.22-25,70.43-.7,70.43-.7,9.2,7.37,21.84,26.94l33.66,5.13s7.75,18.61,23.61,48.31"/><polyline id="_Trazado_7" data-name="&lt;Trazado&gt;" class="cls-9" points="93.74 466.29 150.17 466.29 172.07 487.85 205.03 494.86"/><line id="_Trazado_8" data-name="&lt;Trazado&gt;" class="cls-9" x1="49.46" y1="480.57" x2="39.49" y2="513.95"/></g><g id="_Grupo_13" data-name="&lt;Grupo&gt;"><g id="_Grupo_14" data-name="&lt;Grupo&gt;"><rect id="_Rectángulo_55" data-name="&lt;Rectángulo&gt;" class="cls-10" x="132.65" y="324.56" width="61.04" height="17.05"/><rect id="_Rectángulo_56" data-name="&lt;Rectángulo&gt;" class="cls-11" x="137.86" y="313.18" width="48.57" height="11.38"/><rect id="_Rectángulo_57" data-name="&lt;Rectángulo&gt;" class="cls-12" x="144.18" y="301.8" width="37.97" height="11.38"/><rect id="_Rectángulo_58" data-name="&lt;Rectángulo&gt;" class="cls-13" x="149.86" y="290.42" width="24.57" height="11.38"/><rect id="_Rectángulo_59" data-name="&lt;Rectángulo&gt;" class="cls-7" x="161.53" y="282.06" width="2.89" height="8.36"/><rect id="_Rectángulo_60" data-name="&lt;Rectángulo&gt;" class="cls-1" x="160.96" y="277.2" width="4.03" height="4.03" transform="translate(245.17 -33.46) rotate(45)"/></g><rect id="_Rectángulo_61" data-name="&lt;Rectángulo&gt;" class="cls-1" x="132.65" y="330.41" width="5.84" height="6.24"/><rect id="_Rectángulo_62" data-name="&lt;Rectángulo&gt;" class="cls-1" x="140.53" y="330.41" width="5.84" height="6.24"/><rect id="_Rectángulo_63" data-name="&lt;Rectángulo&gt;" class="cls-1" x="148.42" y="330.41" width="5.84" height="6.24"/><rect id="_Rectángulo_64" data-name="&lt;Rectángulo&gt;" class="cls-1" x="156.3" y="330.41" width="5.84" height="6.24"/><rect id="_Rectángulo_65" data-name="&lt;Rectángulo&gt;" class="cls-1" x="164.19" y="330.41" width="5.84" height="6.24"/><rect id="_Rectángulo_66" data-name="&lt;Rectángulo&gt;" class="cls-1" x="172.08" y="330.41" width="5.84" height="6.24"/><rect id="_Rectángulo_67" data-name="&lt;Rectángulo&gt;" class="cls-1" x="179.96" y="330.41" width="5.84" height="6.24"/><rect id="_Rectángulo_68" data-name="&lt;Rectángulo&gt;" class="cls-1" x="187.85" y="330.41" width="5.84" height="6.24"/><rect id="_Rectángulo_69" data-name="&lt;Rectángulo&gt;" class="cls-1" x="121.09" y="340.89" width="84.16" height="6.18"/><rect id="_Rectángulo_70" data-name="&lt;Rectángulo&gt;" class="cls-1" x="130.93" y="347.06" width="64.47" height="6.18"/></g><rect id="_Rectángulo_71" data-name="&lt;Rectángulo&gt;" class="cls-2" x="120.35" y="333.14" width="9.92" height="27.4" transform="translate(-221.54 472.16) rotate(-90)"/></g></g></g></svg>