<svg xmlns="http://www.w3.org/2000/svg" viewBox="0 0 467.57 483.12"><defs><style>.cls-1{fill:#588c32;}.cls-2{fill:#76bd43;}.cls-3{fill:#f2f2f2;}.cls-4,.cls-5{fill:#fff;}.cls-5{opacity:0.22;}.cls-6{fill:none;stroke:gray;stroke-miterlimit:10;stroke-width:8.72px;}.cls-7{fill:gray;}.cls-8{fill:#ff4f40;}</style></defs><title>t-rex-recorrido</title><g id="Capa_2" data-name="Capa 2"><g id="Capa_1-2" data-name="Capa 1"><g id="_Grupo_" data-name="&lt;Grupo&gt;"><polygon id="_Trazado_" data-name="&lt;Trazado&gt;" class="cls-1" points="60.58 390.63 121.63 390.63 121.63 442.28 92.96 442.28 92.96 416.45 60.58 416.45 60.58 390.63"/><g id="_Grupo_2" data-name="&lt;Grupo&gt;"><g id="_Grupo_3" data-name="&lt;Grupo&gt;"><polygon class="cls-2" points="149.97 358.05 197.78 375.64 204.45 357.51 192.09 352.96 197.85 337.3 244.83 354.59 263.33 304.31 212.21 285.49 226.39 247.03 126.65 210.33 112.8 247.97 97.14 242.21 73.78 305.68 56.47 299.31 49.19 319.09 36.88 314.56 36.88 437.64 149.97 358.05"/><rect class="cls-3" x="144.78" y="243.91" width="20.8" height="20.8" transform="translate(97.38 -37.95) rotate(20.2)"/><rect class="cls-3" x="135.5" y="301.43" width="16.5" height="15.55" transform="matrix(0.94, 0.35, -0.35, 0.94, 115.63, -30.62)"/><rect class="cls-3" x="125.2" y="281" width="16.5" height="15.55" transform="translate(107.94 -28.32) rotate(20.2)"/><rect class="cls-3" x="144.38" y="327.82" width="52.31" height="16.69" transform="translate(126.59 -38.21) rotate(20.2)"/></g><polygon class="cls-4" points="182.22 179.29 120.07 156.42 115.77 168.11 99.42 162.09 95.45 172.88 76.64 165.96 71.68 179.44 59.41 174.93 54.78 187.52 41.7 182.71 0 296 13.08 300.82 6.8 317.9 20.7 323.02 15.07 338.31 116.46 375.62 120.1 365.73 91.48 355.2 96.45 341.71 80.09 335.69 131.06 197.21 148.23 203.53 152.53 191.84 174.61 199.97 182.22 179.29"/><polyline class="cls-5" points="128.93 159.67 256.41 206.59 252.11 218.28 267 223.76 263.03 234.55 280.15 240.85 275.19 254.34 286.36 258.45 281.73 271.04 293.64 275.42 251.94 388.72 240.03 384.34 233.74 401.42 221.09 396.76 215.46 412.05 59.88 354.8"/><polyline class="cls-6" points="182.22 179.29 174.61 199.97 152.53 191.84 148.23 203.53 131.06 197.21 80.09 335.69 96.45 341.71 91.48 355.2 120.1 365.73 116.46 375.62"/><rect class="cls-1" x="220.25" y="297.64" width="9.85" height="9.85" transform="translate(118.35 -59.15) rotate(20.2)"/><rect class="cls-1" x="244.21" y="306.45" width="9.85" height="9.85" transform="translate(122.87 -66.88) rotate(20.2)"/><rect class="cls-1" x="137.49" y="230.04" width="23.15" height="4.52" transform="translate(89.4 -37.19) rotate(20.2)"/><rect class="cls-7" x="45.23" y="238.24" width="34.13" height="34.13" transform="translate(92.01 -5.81) rotate(20.2)"/><rect class="cls-7" x="80.97" y="133.65" width="8.32" height="114.22" transform="translate(71.12 -17.66) rotate(20.2)"/><rect class="cls-8" x="98.53" y="120.61" width="17.77" height="17.77" transform="translate(51.33 -29.13) rotate(20.2)"/><rect class="cls-7" x="144.52" y="247.43" width="13.23" height="13.23" transform="translate(97.04 -36.57) rotate(20.2)"/><rect class="cls-3" x="147.73" y="248.27" width="4.48" height="4.48" transform="matrix(0.94, 0.35, -0.35, 0.94, 95.75, -36.38)"/><rect class="cls-3" x="151.37" y="254.28" width="2.56" height="2.56" transform="translate(97.65 -37) rotate(20.2)"/></g><polygon id="_Trazado_2" data-name="&lt;Trazado&gt;" class="cls-2" points="36.88 431.46 97.93 431.46 97.93 483.12 69.26 483.12 69.26 457.29 36.88 457.29 36.88 431.46"/></g><g id="_Grupo_4" data-name="&lt;Grupo&gt;"><g id="_Grupo_5" data-name="&lt;Grupo&gt;"><g id="_Grupo_6" data-name="&lt;Grupo&gt;"><rect id="_Trazado_3" data-name="&lt;Trazado&gt;" class="cls-4" x="458.04" y="18.79" width="9.53" height="103.56"/><rect id="_Trazado_4" data-name="&lt;Trazado&gt;" class="cls-4" x="292.49" y="140.86" width="9.53" height="35.89"/><rect id="_Trazado_5" data-name="&lt;Trazado&gt;" class="cls-4" x="263.65" y="18.79" width="9.53" height="103.56"/><rect class="cls-4" x="282.44" width="166.34" height="9.53"/><rect class="cls-4" x="329.79" y="131.6" width="118.99" height="9.53"/><rect id="_Trazado_6" data-name="&lt;Trazado&gt;" class="cls-4" x="273.19" y="9.53" width="9.26" height="9.26"/><rect id="_Trazado_7" data-name="&lt;Trazado&gt;" class="cls-4" x="448.78" y="9.53" width="9.26" height="9.26"/><rect id="_Trazado_8" data-name="&lt;Trazado&gt;" class="cls-4" x="448.78" y="122.34" width="9.26" height="9.26"/><rect id="_Trazado_9" data-name="&lt;Trazado&gt;" class="cls-4" x="273.19" y="122.34" width="9.26" height="9.26"/><rect id="_Trazado_10" data-name="&lt;Trazado&gt;" class="cls-4" x="302.02" y="158.27" width="9.26" height="9.26"/><rect id="_Trazado_11" data-name="&lt;Trazado&gt;" class="cls-4" x="311.28" y="149.01" width="9.26" height="9.26"/><rect id="_Trazado_12" data-name="&lt;Trazado&gt;" class="cls-4" x="320.53" y="139.75" width="9.26" height="9.26"/><rect id="_Trazado_13" data-name="&lt;Trazado&gt;" class="cls-4" x="282.44" y="131.6" width="17.35" height="9.26"/></g></g><g id="_Grupo_7" data-name="&lt;Grupo&gt;"><path class="cls-4" d="M286.88,66.12l6-15.31h2.68l5.81,15.31h-2.66l-5.12-14.07,1-.1L289.4,66.12ZM289.82,62l.73-2.06h7.28L298,62Z"/><path class="cls-4" d="M309.65,66.44a6.85,6.85,0,0,1-5.32-2q-1.8-2-1.8-6c0-2.65.6-4.64,1.78-6a8.12,8.12,0,0,1,10.66,0c1.21,1.31,1.82,3.32,1.82,6s-.6,4.62-1.78,6A6.79,6.79,0,0,1,309.65,66.44Zm0-2a5.23,5.23,0,0,0,2.56-.64,3.58,3.58,0,0,0,1.48-1.89,10.32,10.32,0,0,0,.48-3.48,9.47,9.47,0,0,0-.49-3.36,3.59,3.59,0,0,0-1.49-1.87,5.66,5.66,0,0,0-5.07,0,3.55,3.55,0,0,0-1.5,1.88,9.53,9.53,0,0,0-.49,3.37,10.13,10.13,0,0,0,.49,3.48,3.61,3.61,0,0,0,1.5,1.92A5,5,0,0,0,309.65,64.46Zm5.69,2.09a2.2,2.2,0,0,0,.64-.08,3,3,0,0,0,.78-.38v1.82a3.26,3.26,0,0,1-.93.34,4.61,4.61,0,0,1-.88.09,3.55,3.55,0,0,1-1.09-.17,3.84,3.84,0,0,1-1-.5,3.5,3.5,0,0,1-.83-.88,4.85,4.85,0,0,1-.62-1.27,10.6,10.6,0,0,0-.64-1.44,3.57,3.57,0,0,0-.84-1,1.86,1.86,0,0,0-1.21-.4,2.78,2.78,0,0,0-1.42.36,4.14,4.14,0,0,0-1.1.95V62a4.36,4.36,0,0,1,1.13-.85,3.93,3.93,0,0,1,3.61.06,4.85,4.85,0,0,1,1.42,1.3,7.43,7.43,0,0,1,1,2,5.73,5.73,0,0,0,.9,1.56A1.39,1.39,0,0,0,315.34,66.55Z"/><path class="cls-4" d="M326.22,66.44a6.57,6.57,0,0,1-4.77-1.6,6.3,6.3,0,0,1-1.66-4.74V50.81h2.6v9.27a4.65,4.65,0,0,0,.94,3.2,4.3,4.3,0,0,0,5.63,0,4.51,4.51,0,0,0,1-3.2V50.81h2.43V60.1a7.57,7.57,0,0,1-.74,3.51,4.87,4.87,0,0,1-2.13,2.13A7.22,7.22,0,0,1,326.22,66.44Z"/><path class="cls-4" d="M336,66.12V50.81h2.55V66.12Zm.71-16.69,1.1-2.62h2.51l-2.25,2.62Z"/><path class="cls-4" d="M348.69,66.12V50.81h10v2.13h-7.49v4.43h6.52v2.16h-6.54V64h7.51v2.14Z"/><path class="cls-4" d="M362.15,66.12V50.81h2.63l5.49,8.1-1.49.18,5.76-8.28h2.59V66.12h-2.52V53l.71.48-5.83,8.06-5.55-8,.66-.73V66.12Z"/><path class="cls-4" d="M383.28,60.63v5.49h-2.52V50.81h6.06A6.08,6.08,0,0,1,390.87,52a4.48,4.48,0,0,1,1.44,3.63,4.67,4.67,0,0,1-1.44,3.69,5.84,5.84,0,0,1-4.05,1.29Zm0-2.16h3.22a4.85,4.85,0,0,0,1.61-.22,2.14,2.14,0,0,0,1-.62,2.1,2.1,0,0,0,.47-.88,4.17,4.17,0,0,0,.13-1,4.4,4.4,0,0,0-.13-1,2.15,2.15,0,0,0-.47-.91,2.24,2.24,0,0,0-1-.63,4.82,4.82,0,0,0-1.61-.23h-3.22Z"/><path class="cls-4" d="M395.34,66.12V50.81h2.54V66.12Z"/><path class="cls-4" d="M401.51,66.12V50.81h10v2.13h-7.48v4.43h6.52v2.16H404V64h7.5v2.14Z"/><path class="cls-4" d="M414.53,66.12v-2l8.9-11.91.58.73h-9.3V50.81h11.18v1.92l-8.61,11.8-.62-.55h9.23v2.14Z"/><path class="cls-4" d="M427.75,66.12l6-15.31h2.68l5.81,15.31h-2.66l-5.12-14.07,1-.1-5.12,14.17ZM430.69,62l.73-2.06h7.28l.2,2.06Z"/><path class="cls-4" d="M288.3,93.66V78.35h10v2.14h-7.48v4.43h6.52v2.15h-6.54v4.46h7.5v2.13Z"/><path class="cls-4" d="M301.75,93.66V78.35h2.55V91.5h7.3v2.16Z"/><path class="cls-4" d="M320.57,93.66V78.35h6.8A5.27,5.27,0,0,1,331,79.51,4.42,4.42,0,0,1,332.3,83a5.1,5.1,0,0,1-.48,2.21,4.22,4.22,0,0,1-1.4,1.65,4.33,4.33,0,0,1-2.18.74l.28-.78,4.54,6.88h-3.14l-4.25-6.86,1.17,1.08H323.1v5.78Zm2.53-7.85h3.56a3.33,3.33,0,0,0,2.26-.66,2.57,2.57,0,0,0,.74-2,2.94,2.94,0,0,0-.58-2,2.51,2.51,0,0,0-2-.68h-4Z"/><path class="cls-4" d="M335.84,93.66V78.35h10v2.14h-7.48v4.43h6.52v2.15h-6.55v4.46h7.51v2.13Z"/><path class="cls-4" d="M355.86,93.89a7.1,7.1,0,0,1-5.44-2q-1.85-1.95-1.84-6t1.81-5.91a7.06,7.06,0,0,1,5.47-2,10,10,0,0,1,2.42.3,12.89,12.89,0,0,1,2.33.82V81.5a9.26,9.26,0,0,0-2.24-1,8,8,0,0,0-2.19-.31,5.82,5.82,0,0,0-2.79.6,3.56,3.56,0,0,0-1.65,1.86A8.65,8.65,0,0,0,351.2,86a8.37,8.37,0,0,0,.55,3.31,3.62,3.62,0,0,0,1.66,1.86,6.07,6.07,0,0,0,2.84.59,7.73,7.73,0,0,0,2.13-.31,10.37,10.37,0,0,0,2.23-1v2.27a10.52,10.52,0,0,1-1.49.6,11.62,11.62,0,0,1-1.63.37A10.22,10.22,0,0,1,355.86,93.89Z"/><path class="cls-4" d="M370.16,93.91a8,8,0,0,1-3.87-.87,5.57,5.57,0,0,1-2.42-2.62A10.28,10.28,0,0,1,363,86q0-3.93,1.83-5.92a6.77,6.77,0,0,1,5.29-2A8,8,0,0,1,374,79a5.74,5.74,0,0,1,2.42,2.63A10.22,10.22,0,0,1,377.3,86q0,3.9-1.83,5.9A6.84,6.84,0,0,1,370.16,93.91Zm0-2.18a4.93,4.93,0,0,0,2.53-.58,3.55,3.55,0,0,0,1.5-1.85,9.44,9.44,0,0,0,.49-3.31,9.31,9.31,0,0,0-.49-3.27,3.54,3.54,0,0,0-1.5-1.83,5.68,5.68,0,0,0-5.06,0,3.59,3.59,0,0,0-1.5,1.85,9,9,0,0,0-.5,3.27,9.12,9.12,0,0,0,.5,3.28,3.55,3.55,0,0,0,1.5,1.85A5,5,0,0,0,370.16,91.73Z"/><path class="cls-4" d="M380.3,93.66V78.35h6.8a5.27,5.27,0,0,1,3.66,1.16A4.42,4.42,0,0,1,392,83a5.1,5.1,0,0,1-.48,2.21,4.22,4.22,0,0,1-1.4,1.65,4.33,4.33,0,0,1-2.18.74l.27-.78,4.55,6.88h-3.14L385.4,86.8l1.17,1.08h-3.74v5.78Zm2.53-7.85h3.56a3.33,3.33,0,0,0,2.26-.66,2.61,2.61,0,0,0,.74-2,2.94,2.94,0,0,0-.58-2,2.51,2.51,0,0,0-2-.68h-4Z"/><path class="cls-4" d="M395.57,93.66V78.35h6.79A5.27,5.27,0,0,1,406,79.51,4.42,4.42,0,0,1,407.3,83a5,5,0,0,1-.49,2.21,4.14,4.14,0,0,1-1.4,1.65,4.33,4.33,0,0,1-2.18.74l.28-.78,4.54,6.88h-3.14l-4.25-6.86,1.17,1.08h-3.74v5.78Zm2.52-7.85h3.56a3.33,3.33,0,0,0,2.26-.66,2.58,2.58,0,0,0,.75-2,2.94,2.94,0,0,0-.59-2,2.51,2.51,0,0,0-2-.68h-4Z"/><path class="cls-4" d="M410.83,93.66V78.35h2.55V93.66Z"/><path class="cls-4" d="M417,93.66V78.35h5.37q3.72,0,5.53,1.93c1.21,1.28,1.81,3.19,1.81,5.71s-.6,4.44-1.81,5.73-3.05,1.94-5.53,1.94Zm2.52-2.13h2.59a4.91,4.91,0,0,0,3.79-1.32A6.11,6.11,0,0,0,427.13,86a6.11,6.11,0,0,0-1.22-4.2,4.92,4.92,0,0,0-3.79-1.33h-2.59Z"/><path class="cls-4" d="M439.27,93.91A8,8,0,0,1,435.4,93,5.62,5.62,0,0,1,433,90.42a10.29,10.29,0,0,1-.82-4.4c0-2.62.6-4.59,1.82-5.92a6.78,6.78,0,0,1,5.29-2,8,8,0,0,1,3.88.87,5.69,5.69,0,0,1,2.42,2.63,10.22,10.22,0,0,1,.84,4.42q0,3.9-1.82,5.9A6.85,6.85,0,0,1,439.27,93.91Zm0-2.18a5,5,0,0,0,2.54-.58,3.58,3.58,0,0,0,1.49-1.85,9.21,9.21,0,0,0,.49-3.31,9.08,9.08,0,0,0-.49-3.27,3.57,3.57,0,0,0-1.49-1.83,5,5,0,0,0-2.54-.59,4.85,4.85,0,0,0-2.52.6,3.56,3.56,0,0,0-1.51,1.85,9,9,0,0,0-.49,3.27,9.14,9.14,0,0,0,.49,3.28,3.52,3.52,0,0,0,1.51,1.85A5,5,0,0,0,439.27,91.73Z"/></g></g></g></g></svg>