<svg xmlns="http://www.w3.org/2000/svg" width="290" height="371.4"><style>.st0{fill:#75b843}.st1{fill:#f0f0f0}.st3{opacity:.15;fill:#1d1e1c}.st5{fill:#dbd9dc}</style><g id="XMLID_1_"><path id="XMLID_5_" class="st0" d="M230.1 277.7h-60.2v51h28.3v-25.5h31.9z"/><g id="XMLID_3_"><g id="XMLID_4_"><path class="st0" d="M141.9 245.5l-47.2 17.4-6.6-17.9 12.2-4.5-5.7-15.5-46.4 17.1-18.3-49.7 50.5-18.5-14-38 98.5-36.3 13.7 37.2 15.4-5.7 23.1 62.7 17.1-6.3 7.2 19.5 12.2-4.4v121.5z"/><path transform="scale(-1) rotate(-20.205 -802.92 767.334)" class="st1" d="M126.5 132.8H147v20.5h-20.5z"/><path transform="scale(-1) rotate(-20.205 -1107.152 830.688)" class="st1" d="M139.9 189.6h16.3V205h-16.3z"/><path transform="scale(-1) rotate(-20.205 -993.94 887.75)" class="st1" d="M150 169.4h16.3v15.4H150z"/><path transform="scale(-1) rotate(-20.205 -1256.585 682.254)" class="st1" d="M95.7 215.7h51.7v16.5H95.7z"/></g><path fill="#fff" d="M110 69l61.4-22.6 4.2 11.5 16.2-5.9 3.9 10.6 18.6-6.8 4.9 13.3 12.1-4.4 4.6 12.4 12.9-4.7L290 184.2l-12.9 4.8 6.2 16.9-13.8 5 5.6 15.1L175 262.9l-3.6-9.8 28.2-10.4-4.9-13.3 16.2-6-50.3-136.7-17 6.2-4.3-11.5-21.8 8z"/><path transform="scale(-1) rotate(-20.205 -1070.344 379.42)" class="st3" d="M62.7 185.8h9.7v9.7h-9.7z"/><path transform="scale(-1) rotate(-20.205 -1119.215 246.615)" class="st3" d="M39.1 194.6h9.7v9.7h-9.7z"/><path transform="scale(-1) rotate(-20.205 -680.92 801.233)" class="st3" d="M131.3 119.1h22.9v4.5h-22.9z"/><path opacity=".22" fill="#fff" d="M162.7 49.6L36.8 95.9l4.2 11.6-14.7 5.4 3.9 10.7-16.9 6.2 4.9 13.3-11 4.1 4.6 12.4L0 163.9l41.2 111.9 11.7-4.3 6.2 16.8 12.5-4.6 5.6 15.1 153.6-56.5"/><path class="st5" d="M170.9 264.3l8.1-2.9-2.1-5.8 28.3-10.4-4.9-13.3 16.1-5.9-53.3-144.8-16.9 6.2-4.3-11.6-21.8 8.1-6-16.4-8.1 3 9 24.4 21.8-8 4.2 11.6 17-6.3 47.3 128.7-16.1 5.9 4.9 13.3-28.3 10.4z"/><path transform="scale(-1) rotate(-20.205 -808.442 1282.136)" class="st5" d="M211.6 127.2h33.7v33.7h-33.7z"/><path transform="scale(-1) rotate(-20.205 -450.738 1155.58)" class="st5" d="M201.8 23.9h8.2v112.8h-8.2z"/><path transform="scale(-1) rotate(-20.205 -111.19 1032.06)" fill="#ea5246" d="M175.1 11h17.5v17.5h-17.5z"/><path transform="scale(-1) rotate(-20.205 -790.211 739.254)" fill="#3f245e" d="M125.2 134.3h13.1v13.1h-13.1z"/><path transform="scale(-1) rotate(-20.205 -770.65 745.74)" class="st1" d="M130.7 135.1h4.4v4.4h-4.4z"/><path transform="scale(-1) rotate(-20.205 -798.63 730.845)" class="st1" d="M129 141h2.5v2.5H129z"/></g><path id="XMLID_2_" class="st0" d="M253.6 318h-60.3v51h28.3v-25.5h32z"/></g><path fill="none" stroke="#fff" stroke-width="4.988" stroke-miterlimit="10" d="M253.6 0v371.4"/></svg>