<svg xmlns="http://www.w3.org/2000/svg" viewBox="0 0 42.84 44.61"><defs><style>.cls-1{fill:#ff4f40;}.cls-2{fill:#f2f2f2;}.cls-3,.cls-7{fill:#fff;}.cls-4{fill:gray;}.cls-5,.cls-8{fill:none;}.cls-5{stroke:gray;stroke-miterlimit:10;stroke-width:1.51px;}.cls-6{fill:#3d1b5e;}.cls-7{opacity:0.22;}.cls-8{stroke:#fff;stroke-linecap:round;stroke-linejoin:round;stroke-width:0.28px;}</style></defs><title>t-rex-asteroide-peligroso</title><g id="Capa_2" data-name="Capa 2"><g id="Capa_1-2" data-name="Capa 1"><g id="_Grupo_" data-name="&lt;Grupo&gt;"><g id="_Grupo_2" data-name="&lt;Grupo&gt;"><rect id="_Rectángulo_" data-name="&lt;Rectángulo&gt;" class="cls-1" x="9.29" y="13.55" width="26.47" height="26.81"/><g id="_Grupo_3" data-name="&lt;Grupo&gt;"><g id="_Grupo_4" data-name="&lt;Grupo&gt;"><polyline id="_Trazado_" data-name="&lt;Trazado&gt;" class="cls-2" points="29.05 31.66 15.3 31.66 15.3 29.42 29.8 29.42 29.8 31.66 29.05 31.66"/></g><rect id="_Rectángulo_2" data-name="&lt;Rectángulo&gt;" class="cls-2" x="29.8" y="31.66" width="2.67" height="2.35"/><rect id="_Rectángulo_3" data-name="&lt;Rectángulo&gt;" class="cls-2" x="12.59" y="31.66" width="2.7" height="2.35"/></g><g id="_Grupo_5" data-name="&lt;Grupo&gt;"><rect id="_Rectángulo_4" data-name="&lt;Rectángulo&gt;" class="cls-3" x="6.79" y="4.49" width="32.24" height="4.23"/><rect id="_Rectángulo_5" data-name="&lt;Rectángulo&gt;" class="cls-3" x="6.79" y="37.34" width="4.63" height="4.23"/><rect id="_Rectángulo_6" data-name="&lt;Rectángulo&gt;" class="cls-3" x="34.39" y="37.34" width="4.63" height="4.23"/><rect id="_Rectángulo_7" data-name="&lt;Rectángulo&gt;" class="cls-3" x="6.79" y="8.42" width="4.63" height="4.23"/><rect id="_Rectángulo_8" data-name="&lt;Rectángulo&gt;" class="cls-3" x="34.39" y="8.42" width="4.63" height="4.23"/><rect id="_Rectángulo_9" data-name="&lt;Rectángulo&gt;" class="cls-3" x="2.21" y="12.66" width="4.63" height="24.76"/><rect id="_Rectángulo_10" data-name="&lt;Rectángulo&gt;" class="cls-3" x="38.22" y="12.66" width="4.63" height="24.76" transform="translate(81.06 50.07) rotate(-180)"/><rect id="_Rectángulo_11" data-name="&lt;Rectángulo&gt;" class="cls-3" x="21.35" y="29.25" width="4.23" height="26.48" transform="translate(-19.02 65.96) rotate(-90)"/></g><rect id="_Rectángulo_12" data-name="&lt;Rectángulo&gt;" class="cls-4" y="22.38" width="2.41" height="5.32"/><rect id="_Rectángulo_13" data-name="&lt;Rectángulo&gt;" class="cls-4" x="1.55" y="2.94" width="0.86" height="19.43"/><rect id="_Rectángulo_14" data-name="&lt;Rectángulo&gt;" class="cls-1" x="0.44" width="3.08" height="3.08"/><polygon id="_Trazado_2" data-name="&lt;Trazado&gt;" class="cls-5" points="11.41 12.65 11.41 8.42 34.4 8.42 34.4 12.65 38.22 12.65 38.22 37.41 34.4 37.41 34.4 40.4 11.52 40.4 11.52 37.34 6.84 37.34 6.84 12.65 11.41 12.65"/><rect id="_Rectángulo_15" data-name="&lt;Rectángulo&gt;" class="cls-6" x="15.14" y="18.83" width="4.02" height="0.78" transform="translate(7.04 -4.47) rotate(18.62)"/><rect id="_Rectángulo_16" data-name="&lt;Rectángulo&gt;" class="cls-6" x="15.04" y="21.5" width="4.02" height="0.78" transform="translate(18.02 -5.84) rotate(39.91)"/><rect id="_Rectángulo_17" data-name="&lt;Rectángulo&gt;" class="cls-6" x="15.04" y="21.5" width="4.02" height="0.78" transform="translate(-9.96 15.52) rotate(-38.82)"/><rect id="_Rectángulo_18" data-name="&lt;Rectángulo&gt;" class="cls-6" x="25.46" y="21.5" width="4.02" height="0.78" transform="translate(20.45 -12.52) rotate(39.91)"/><rect id="_Rectángulo_19" data-name="&lt;Rectángulo&gt;" class="cls-6" x="25.46" y="21.5" width="4.02" height="0.78" transform="translate(-7.66 22.05) rotate(-38.82)"/><rect id="_Rectángulo_20" data-name="&lt;Rectángulo&gt;" class="cls-6" x="25.3" y="18.83" width="4.02" height="0.78" transform="translate(-4.91 10.43) rotate(-19.87)"/><rect id="_Rectángulo_21" data-name="&lt;Rectángulo&gt;" class="cls-6" x="19.56" y="25.04" width="1.71" height="1.71"/><rect id="_Rectángulo_22" data-name="&lt;Rectángulo&gt;" class="cls-6" x="23.99" y="25.04" width="1.71" height="1.71"/><polygon class="cls-7" points="32.7 7.4 28.55 7.4 27.43 14.51 32.7 7.4"/><path class="cls-7" d="M22,15.92l2.54-2.69s-.71-3.47-1.17-5.54a2.46,2.46,0,0,0-.07-.29H21.32l-2.78,7.11Z"/><polygon class="cls-7" points="32.01 12.47 35.69 14.19 29.21 15.92 35.06 22.54 28.2 17.33 24.39 17.33 28.2 27.21 23.88 21.36 17.91 26.66 22.48 19.88 21.34 17.33 16.13 15.92 19.36 7.4 7.22 7.4 7.22 41.16 38.59 41.16 38.59 7.4 38.12 7.4 32.01 12.47"/><path class="cls-7" d="M28.83,5.61,23,6.24c0,.13.11.41.2.78,0,.12,0,.25.08.38h5.28Z"/><polygon class="cls-7" points="21.53 6.88 19.56 6.88 19.36 7.4 21.32 7.4 21.53 6.88"/><polygon class="cls-7" points="38.74 6.88 32.9 7.13 32.7 7.4 38.12 7.4 38.74 6.88"/><polyline class="cls-8" points="19.16 7.93 16.13 15.92 21.34 17.33 22.48 19.88 17.91 26.66 23.88 21.36 28.2 27.21 24.39 17.33 28.2 17.33 35.06 22.54 29.21 15.92 35.69 14.19 32.01 12.47 35.09 9.91 35.05 7.93"/><polyline class="cls-8" points="32.49 7.69 27.41 14.73 28.51 7.69"/><path class="cls-8" d="M21.32,7.4l-2.78,7.11L22,15.93c.22-.29,2.5-2.7,2.5-2.7L23.44,7.4"/></g></g></g></g></svg>