<svg xmlns="http://www.w3.org/2000/svg" viewBox="0 0 269.54 280.63"><defs><style>.cls-1{fill:#76bd43;}.cls-2{fill:#f2f2f2;}.cls-3{fill:gray;}.cls-4,.cls-5{fill:#fff;}.cls-4{opacity:0.22;}.cls-6{fill:#ff4f40;}.cls-7{fill:none;stroke:gray;stroke-miterlimit:10;stroke-width:9.52px;}.cls-8{fill:#588c32;}</style></defs><title>-rex-graficas</title><g id="Capa_2" data-name="Capa 2"><g id="Capa_1-2" data-name="Capa 1"><g id="_Grupo_" data-name="&lt;Grupo&gt;"><g id="_Grupo_2" data-name="&lt;Grupo&gt;"><rect id="_Rectángulo_" data-name="&lt;Rectángulo&gt;" class="cls-1" x="45.84" y="30.64" width="166.54" height="168.64" transform="translate(258.23 229.91) rotate(-180)"/><g id="_Grupo_3" data-name="&lt;Grupo&gt;"><rect id="_Rectángulo_2" data-name="&lt;Rectángulo&gt;" class="cls-2" x="81.09" y="136.96" width="22.71" height="22.71" transform="translate(184.9 296.63) rotate(-180)"/><rect id="_Rectángulo_3" data-name="&lt;Rectángulo&gt;" class="cls-3" x="81.06" y="145.42" width="14.44" height="14.44" transform="translate(176.57 305.28) rotate(-180)"/><rect id="_Rectángulo_4" data-name="&lt;Rectángulo&gt;" class="cls-2" x="88.37" y="153.37" width="4.89" height="4.89" transform="translate(181.63 311.63) rotate(-180)"/><rect id="_Rectángulo_5" data-name="&lt;Rectángulo&gt;" class="cls-2" x="84.76" y="150.26" width="2.8" height="2.8" transform="translate(172.31 303.31) rotate(-180)"/></g><g id="_Grupo_4" data-name="&lt;Grupo&gt;"><rect id="_Rectángulo_6" data-name="&lt;Rectángulo&gt;" class="cls-2" x="154.03" y="136.96" width="22.71" height="22.71" transform="translate(330.76 296.63) rotate(-180)"/><rect id="_Rectángulo_7" data-name="&lt;Rectángulo&gt;" class="cls-3" x="153.99" y="145.19" width="14.44" height="14.44" transform="translate(322.43 304.81) rotate(-180)"/><rect id="_Rectángulo_8" data-name="&lt;Rectángulo&gt;" class="cls-2" x="161.3" y="153.14" width="4.89" height="4.89" transform="translate(327.49 311.16) rotate(-180)"/><rect id="_Rectángulo_9" data-name="&lt;Rectángulo&gt;" class="cls-2" x="157.69" y="150.02" width="2.8" height="2.8" transform="translate(318.18 302.84) rotate(-180)"/></g><g id="_Grupo_5" data-name="&lt;Grupo&gt;"><g id="_Grupo_6" data-name="&lt;Grupo&gt;"><polyline id="_Trazado_" data-name="&lt;Trazado&gt;" class="cls-2" points="86.78 66.97 173.3 66.97 173.3 81.08 82.07 81.08 82.07 66.97 86.78 66.97"/></g><rect id="_Rectángulo_10" data-name="&lt;Rectángulo&gt;" class="cls-2" x="65.3" y="81.08" width="16.77" height="14.81" transform="translate(147.37 176.96) rotate(-180)"/><rect id="_Rectángulo_11" data-name="&lt;Rectángulo&gt;" class="cls-2" x="173.3" y="81.08" width="17.01" height="14.81" transform="translate(363.62 176.96) rotate(-180)"/><rect id="_Rectángulo_12" data-name="&lt;Rectángulo&gt;" class="cls-2" x="190.32" y="95.89" width="17.01" height="14.81" transform="translate(397.65 206.59) rotate(-180)"/><rect id="_Rectángulo_13" data-name="&lt;Rectángulo&gt;" class="cls-2" x="48.28" y="95.89" width="17.01" height="14.81" transform="translate(113.58 206.59) rotate(-180)"/></g><rect id="_Rectángulo_14" data-name="&lt;Rectángulo&gt;" class="cls-4" x="29.54" y="25.12" width="197.3" height="205.03" transform="translate(256.38 255.26) rotate(-180)"/><g id="_Grupo_7" data-name="&lt;Grupo&gt;"><rect id="_Rectángulo_15" data-name="&lt;Rectángulo&gt;" class="cls-5" x="24.04" y="225.76" width="202.8" height="26.62" transform="translate(250.88 478.13) rotate(-180)"/><rect id="_Rectángulo_16" data-name="&lt;Rectángulo&gt;" class="cls-5" x="197.72" y="19.11" width="29.12" height="26.62" transform="translate(424.56 64.85) rotate(-180)"/><rect id="_Rectángulo_17" data-name="&lt;Rectángulo&gt;" class="cls-5" x="24.04" y="19.11" width="29.12" height="26.62" transform="translate(77.19 64.85) rotate(-180)"/><rect id="_Rectángulo_18" data-name="&lt;Rectángulo&gt;" class="cls-5" x="197.72" y="201.01" width="29.12" height="26.62" transform="translate(424.56 428.65) rotate(-180)"/><rect id="_Rectángulo_19" data-name="&lt;Rectángulo&gt;" class="cls-5" x="24.04" y="201.01" width="29.12" height="26.62" transform="translate(77.19 428.65) rotate(-180)"/><rect id="_Rectángulo_20" data-name="&lt;Rectángulo&gt;" class="cls-5" x="226.49" y="45.27" width="29.12" height="155.75" transform="translate(482.11 246.28) rotate(-180)"/><rect id="_Rectángulo_21" data-name="&lt;Rectángulo&gt;" class="cls-5" y="45.27" width="29.12" height="155.75"/><rect id="_Rectángulo_22" data-name="&lt;Rectángulo&gt;" class="cls-5" x="108.59" y="-69.99" width="26.62" height="166.61" transform="translate(135.21 -108.59) rotate(90)"/></g><rect id="_Rectángulo_23" data-name="&lt;Rectángulo&gt;" class="cls-3" x="254.35" y="106.37" width="15.19" height="33.47" transform="translate(523.89 246.21) rotate(-180)"/><rect id="_Rectángulo_24" data-name="&lt;Rectángulo&gt;" class="cls-3" x="254.35" y="139.84" width="5.41" height="122.26" transform="translate(514.11 401.94) rotate(-180)"/><rect id="_Rectángulo_25" data-name="&lt;Rectángulo&gt;" class="cls-6" x="247.35" y="261.22" width="19.4" height="19.4" transform="translate(514.11 541.85) rotate(-180)"/><polygon id="_Trazado_2" data-name="&lt;Trazado&gt;" class="cls-7" points="197.72 201.01 197.72 227.63 53.16 227.63 53.16 201.01 29.12 201.01 29.12 45.27 53.16 45.27 53.16 26.45 197.08 26.45 197.08 45.74 226.49 45.74 226.49 201.01 197.72 201.01"/><rect id="_Rectángulo_26" data-name="&lt;Rectángulo&gt;" class="cls-8" x="161.97" y="166.78" width="25.27" height="4.93" transform="translate(349.21 338.5) rotate(-180)"/><rect id="_Rectángulo_27" data-name="&lt;Rectángulo&gt;" class="cls-8" x="71.51" y="166.78" width="25.27" height="4.93" transform="translate(168.29 338.5) rotate(-180)"/><rect id="_Rectángulo_28" data-name="&lt;Rectángulo&gt;" class="cls-8" x="135.71" y="112.35" width="10.76" height="10.76" transform="translate(282.19 235.45) rotate(-180)"/><rect id="_Rectángulo_29" data-name="&lt;Rectángulo&gt;" class="cls-8" x="107.84" y="112.35" width="10.76" height="10.76" transform="translate(226.43 235.45) rotate(-180)"/></g><rect id="_Rectángulo_30" data-name="&lt;Rectángulo&gt;" class="cls-4" x="26.99" y="22.75" width="197.23" height="207.44"/></g></g></g></svg>