<svg xmlns="http://www.w3.org/2000/svg" viewBox="0 0 374.97 458.15"><defs><style>.cls-1{fill:#588c32;}.cls-2,.cls-5{fill:#fff;}.cls-3{fill:#76bd43;}.cls-4{fill:#f2f2f2;}.cls-5{opacity:0.22;}.cls-6,.cls-9{fill:none;stroke-miterlimit:10;}.cls-6{stroke:gray;stroke-width:5px;}.cls-7{fill:gray;}.cls-8{fill:#ff4f40;}.cls-9{stroke:#fff;stroke-width:2.93px;}.cls-10{fill:#b60d4f;}</style></defs><title>t-rex-cumpleano-2</title><g id="Capa_2" data-name="Capa 2"><g id="Capa_1-2" data-name="Capa 1"><g id="_Grupo_" data-name="&lt;Grupo&gt;"><polygon id="_Trazado_" data-name="&lt;Trazado&gt;" class="cls-1" points="195.68 297.13 235.11 297.13 235.21 288.91 195.68 288.91 195.68 297.13"/><polygon class="cls-2" points="206.23 310.07 201.08 311.05 177.57 188 190.25 185.59 186.27 164.72 196.1 162.85 185.46 106.99 190.61 106.01 202.22 167.02 192.4 168.89 196.37 189.75 183.7 192.17 206.23 310.07"/><polygon class="cls-2" points="217.13 311.05 211.89 311.05 211.89 202.86 224.79 202.86 224.79 181.62 234.79 181.62 234.79 124.75 240.03 124.75 240.03 186.86 230.03 186.86 230.03 208.1 217.13 208.1 217.13 311.05"/><g id="_Grupo_2" data-name="&lt;Grupo&gt;"><polygon id="_Trazado_2" data-name="&lt;Trazado&gt;" class="cls-1" points="252.73 343.58 252.73 393.88 231.62 393.88 231.62 384.92 241.86 384.92 241.86 344.22 252.73 343.58"/><polygon id="_Trazado_3" data-name="&lt;Trazado&gt;" class="cls-3" points="312.05 367.32 224.48 367.32 224.48 264.89 195.31 264.89 195.31 253.82 202.85 253.82 202.85 244.27 174.18 244.27 174.18 213.58 205.38 213.58 205.37 190.1 266.24 190.1 266.24 213.08 275.79 213.08 275.79 251.81 286.36 251.81 286.36 263.89 296.42 263.89 296.42 302.65 311.52 302.65 312.05 367.32"/><rect id="_Rectángulo_" data-name="&lt;Rectángulo&gt;" class="cls-4" x="236.24" y="202.14" width="11.92" height="11.92" transform="translate(484.4 416.2) rotate(-180)"/><rect id="_Rectángulo_2" data-name="&lt;Rectángulo&gt;" class="cls-4" x="232.76" y="235.41" width="9.45" height="8.91" transform="translate(474.97 479.73) rotate(-180)"/><rect id="_Rectángulo_3" data-name="&lt;Rectángulo&gt;" class="cls-4" x="242.33" y="226.47" width="9.45" height="8.91" transform="translate(494.12 461.85) rotate(-180)"/><rect id="_Rectángulo_4" data-name="&lt;Rectángulo&gt;" class="cls-4" x="202.77" y="244.28" width="29.96" height="9.56" transform="translate(435.51 498.12) rotate(-180)"/></g><polygon id="_Trazado_4" data-name="&lt;Trazado&gt;" class="cls-2" points="242.51 162.43 280.44 162.43 280.44 169.56 290.42 169.56 290.42 176.15 301.89 176.15 301.89 184.38 309.38 184.38 309.38 192.06 317.37 192.06 317.37 261.21 309.38 261.21 309.38 271.63 300.9 271.63 300.9 280.96 239.01 280.96 239.01 274.93 256.48 274.93 256.48 266.7 266.46 266.7 266.46 182.18 255.98 182.18 255.98 175.05 242.51 175.05 242.51 162.43"/><polyline id="_Trazado_5" data-name="&lt;Trazado&gt;" class="cls-5" points="275.03 162.43 197.23 162.43 197.23 169.56 188.14 169.56 188.14 176.15 177.69 176.15 177.69 184.38 170.87 184.38 170.87 192.06 163.6 192.06 163.6 261.21 170.87 261.21 170.87 271.63 178.6 271.63 178.6 280.96 273.55 280.96"/><polyline id="_Trazado_6" data-name="&lt;Trazado&gt;" class="cls-6" points="242.51 162.43 242.51 175.05 255.98 175.05 255.98 182.18 266.46 182.18 266.46 266.7 256.48 266.7 256.48 274.93 239.01 274.93 239.01 280.96"/><rect id="_Rectángulo_5" data-name="&lt;Rectángulo&gt;" class="cls-1" x="192.21" y="217.37" width="5.64" height="5.64" transform="translate(390.06 440.38) rotate(-180)"/><rect id="_Rectángulo_6" data-name="&lt;Rectángulo&gt;" class="cls-1" x="177.59" y="217.37" width="5.64" height="5.64" transform="translate(360.82 440.38) rotate(-180)"/><rect id="_Rectángulo_7" data-name="&lt;Rectángulo&gt;" class="cls-1" x="243.21" y="196.18" width="13.26" height="2.59" transform="translate(499.68 394.95) rotate(-180)"/><rect id="_Rectángulo_8" data-name="&lt;Rectángulo&gt;" class="cls-7" x="282.16" y="217.23" width="19.55" height="19.55" transform="translate(583.86 454.02) rotate(-180)"/><rect id="_Rectángulo_9" data-name="&lt;Rectángulo&gt;" class="cls-7" x="290.04" y="155.09" width="4.77" height="65.42" transform="translate(584.85 375.6) rotate(-180)"/><rect id="_Rectángulo_10" data-name="&lt;Rectángulo&gt;" class="cls-8" x="287.47" y="145.37" width="10.18" height="10.18" transform="translate(585.12 300.92) rotate(-180)"/><rect id="_Rectángulo_11" data-name="&lt;Rectángulo&gt;" class="cls-7" x="240.64" y="204.97" width="7.58" height="7.58" transform="translate(488.86 417.51) rotate(-180)"/><rect id="_Rectángulo_12" data-name="&lt;Rectángulo&gt;" class="cls-4" x="244.47" y="205.81" width="2.57" height="2.57" transform="translate(491.51 414.18) rotate(-180)"/><rect id="_Rectángulo_13" data-name="&lt;Rectángulo&gt;" class="cls-4" x="242.58" y="208.54" width="1.47" height="1.47" transform="translate(486.62 418.55) rotate(-180)"/><polygon id="_Trazado_7" data-name="&lt;Trazado&gt;" class="cls-3" points="288.54 343.58 288.54 393.88 267.44 393.88 267.44 384.92 277.67 384.92 277.67 344.22 288.54 343.58"/><polygon id="_Trazado_8" data-name="&lt;Trazado&gt;" class="cls-3" points="301.21 323.57 324.87 323.57 324.87 312.43 340.18 312.43 340.18 299.91 374.97 299.91 374.97 311.04 361.75 311.04 361.75 322.18 349.22 322.18 349.22 332.61 335.31 332.61 335.31 345.83 322.78 345.83 322.78 360.45 299.82 360.45 301.21 323.57"/><polygon id="_Trazado_9" data-name="&lt;Trazado&gt;" class="cls-1" points="224.44 352.68 224.44 288.92 246.79 288.92 246.79 297.91 254.56 297.91 254.56 306.91 262.01 306.91 262.01 334.42 252.65 334.42 252.65 341.9 243.3 341.9 243.3 352.65 224.44 352.68"/><polygon id="_Trazado_10" data-name="&lt;Trazado&gt;" class="cls-3" points="199.87 315.16 231.57 315.16 231.67 306.94 199.87 306.94 199.87 315.16"/><g id="_Grupo_3" data-name="&lt;Grupo&gt;"><path id="_Trazado_11" data-name="&lt;Trazado&gt;" class="cls-9" d="M168.81,457l11.5-41.75s46.36-19.68,51.87-19.28,54.34-.54,54.34-.54,7.1,5.69,16.86,20.79l26,3.95s6,14.36,18.22,37.28"/><polyline id="_Trazado_12" data-name="&lt;Trazado&gt;" class="cls-9" points="229.84 416.25 273.38 416.25 290.28 432.88 315.72 438.29"/><line id="_Trazado_13" data-name="&lt;Trazado&gt;" class="cls-9" x1="195.68" y1="427.27" x2="187.98" y2="453.03"/></g><path class="cls-10" d="M220.33,25.19l-7.66,1.46-3-15.56-6.51,1.24L202,6.11l-7.62,1.45L193,0,141,9.9l1.44,7.56-8,1.52,1.18,6.22-13.78,2.63,4.33,22.72-8,1.52,7,36.9,8-1.53,2.7,14.21,8-1.53,1.46,7.67,8-1.52,1.61,8.44,12.66-2.41,1.21,6.33,37-7-1.46-7.65,8.1-1.54-1.36-7.12,7.62-1.45L216,79.5l6.51-1.24-3-15.56,7.65-1.46Z"/><path class="cls-8" d="M284.34,50.92h-7.79V35.08h-6.63V28.74h-7.76V21.05H209.22v7.69h-8.14v6.34h-14V58.21h-8.14V95.76h8.14v14.46h8.15V118h8.14v8.6h12.89v6.44h37.69v-7.79h8.24V118h7.76V103.46h6.63V87.61h7.79Z"/><rect class="cls-2" x="262.01" y="63.64" width="5.42" height="23.59"/><rect class="cls-2" x="257.76" y="82.99" width="5.42" height="8.5" transform="translate(173.24 347.71) rotate(-90)"/><rect class="cls-2" x="253.51" y="88.41" width="5.42" height="8.5" transform="translate(163.57 348.88) rotate(-90)"/><rect class="cls-2" x="249.13" y="95.37" width="5.42" height="8.5"/><rect class="cls-2" x="240.03" y="109.69" width="6.74" height="6.74"/><g id="_Grupo_4" data-name="&lt;Grupo&gt;"><g id="_Grupo_5" data-name="&lt;Grupo&gt;"><rect id="_Trazado_14" data-name="&lt;Trazado&gt;" class="cls-2" y="125.4" width="6.86" height="74.54"/><rect id="_Trazado_15" data-name="&lt;Trazado&gt;" class="cls-2" x="119.17" y="213.27" width="6.86" height="25.84"/><rect id="_Trazado_16" data-name="&lt;Trazado&gt;" class="cls-2" x="139.93" y="125.4" width="6.86" height="74.54"/><rect id="_Trazado_17" data-name="&lt;Trazado&gt;" class="cls-2" x="13.53" y="111.87" width="119.74" height="6.86"/><rect id="_Trazado_18" data-name="&lt;Trazado&gt;" class="cls-2" x="13.53" y="206.61" width="85.66" height="6.86"/><rect id="_Trazado_19" data-name="&lt;Trazado&gt;" class="cls-2" x="133.26" y="118.74" width="6.66" height="6.66"/><rect id="_Trazado_20" data-name="&lt;Trazado&gt;" class="cls-2" x="6.86" y="118.74" width="6.66" height="6.66"/><rect id="_Trazado_21" data-name="&lt;Trazado&gt;" class="cls-2" x="6.86" y="199.94" width="6.66" height="6.66"/><rect id="_Trazado_22" data-name="&lt;Trazado&gt;" class="cls-2" x="133.26" y="199.94" width="6.66" height="6.66"/><rect id="_Trazado_23" data-name="&lt;Trazado&gt;" class="cls-2" x="112.51" y="225.8" width="6.66" height="6.66"/><rect id="_Trazado_24" data-name="&lt;Trazado&gt;" class="cls-2" x="105.84" y="219.14" width="6.66" height="6.66"/><rect id="_Trazado_25" data-name="&lt;Trazado&gt;" class="cls-2" x="99.18" y="212.47" width="6.66" height="6.66"/><rect id="_Trazado_26" data-name="&lt;Trazado&gt;" class="cls-2" x="120.77" y="206.61" width="12.49" height="6.66"/></g><g id="_Grupo_6" data-name="&lt;Grupo&gt;"><path class="cls-2" d="M30.1,148.71v-11h7.22v1.54H31.93v3.18h4.7V144H31.92v3.2h5.4v1.54Z"/><path class="cls-2" d="M43.15,148.89a10.32,10.32,0,0,1-1.45-.09,5.28,5.28,0,0,1-1.14-.29A9.73,9.73,0,0,1,39.5,148v-1.82a5.28,5.28,0,0,0,1.56.85,5.79,5.79,0,0,0,2,.33,2.37,2.37,0,0,0,1.53-.42,1.45,1.45,0,0,0,.5-1.17,1.23,1.23,0,0,0-.37-.93,3,3,0,0,0-1-.6c-.4-.17-.84-.34-1.3-.5s-.7-.27-1-.42a4.34,4.34,0,0,1-.93-.56,2.64,2.64,0,0,1-.66-.87,3.2,3.2,0,0,1,0-2.41,2.91,2.91,0,0,1,.65-1,3.25,3.25,0,0,1,1.16-.73,4.91,4.91,0,0,1,1.73-.27,7.44,7.44,0,0,1,1.14.08,4.55,4.55,0,0,1,.93.26l1,.42V140c-.28-.18-.56-.35-.84-.5a5,5,0,0,0-.91-.38,4.62,4.62,0,0,0-1.11-.17,2.92,2.92,0,0,0-1.14.17,1.5,1.5,0,0,0-.68.51,1.34,1.34,0,0,0-.23.76,1.39,1.39,0,0,0,.29.92,2.24,2.24,0,0,0,.82.56,12,12,0,0,0,1.22.44,11.24,11.24,0,0,1,1.19.45,4.16,4.16,0,0,1,1,.6,2.68,2.68,0,0,1,.71.88,2.73,2.73,0,0,1,.28,1.31,3.45,3.45,0,0,1-.39,1.61,3,3,0,0,1-1.22,1.22A4.49,4.49,0,0,1,43.15,148.89Z"/><path class="cls-2" d="M53.83,148.88a5.12,5.12,0,0,1-3.92-1.41,7.6,7.6,0,0,1,0-8.53,5.06,5.06,0,0,1,3.94-1.43,7.39,7.39,0,0,1,1.74.21,9.09,9.09,0,0,1,1.68.6V140a6.78,6.78,0,0,0-1.61-.7,5.84,5.84,0,0,0-1.58-.22,4.16,4.16,0,0,0-2,.43,2.62,2.62,0,0,0-1.19,1.34,6.19,6.19,0,0,0-.39,2.41,6,6,0,0,0,.4,2.39,2.57,2.57,0,0,0,1.2,1.33,4.35,4.35,0,0,0,2,.43,5.57,5.57,0,0,0,1.53-.23,7.12,7.12,0,0,0,1.61-.68v1.63a6.57,6.57,0,0,1-1.08.43,7.65,7.65,0,0,1-1.17.27A7.92,7.92,0,0,1,53.83,148.88Z"/><path class="cls-2" d="M64.12,148.89a5.68,5.68,0,0,1-2.78-.63,4,4,0,0,1-1.75-1.88,7.51,7.51,0,0,1-.59-3.17,6.16,6.16,0,0,1,1.31-4.27,4.94,4.94,0,0,1,3.81-1.43,5.81,5.81,0,0,1,2.79.62,4.15,4.15,0,0,1,1.75,1.9,7.39,7.39,0,0,1,.6,3.18A6.1,6.1,0,0,1,68,147.45,4.94,4.94,0,0,1,64.12,148.89Zm0-1.57A3.59,3.59,0,0,0,66,146.9,2.53,2.53,0,0,0,67,145.57a6.59,6.59,0,0,0,.36-2.38,6.41,6.41,0,0,0-.36-2.35A2.61,2.61,0,0,0,66,139.51a4.13,4.13,0,0,0-3.65,0,2.63,2.63,0,0,0-1.08,1.33,8.13,8.13,0,0,0,0,4.72,2.55,2.55,0,0,0,1.08,1.33A3.6,3.6,0,0,0,64.12,147.32Z"/><path class="cls-2" d="M76.22,148.89a6,6,0,0,1-2.84-.61,4,4,0,0,1-1.77-1.87,8.75,8.75,0,0,1,0-6.42,4,4,0,0,1,1.77-1.87,6,6,0,0,1,2.82-.61,9.21,9.21,0,0,1,1.9.19,7.86,7.86,0,0,1,1.78.57V140a13.5,13.5,0,0,0-1.71-.71,5.42,5.42,0,0,0-1.74-.28,4.21,4.21,0,0,0-2,.43,2.62,2.62,0,0,0-1.19,1.34,5.92,5.92,0,0,0-.4,2.39,6.07,6.07,0,0,0,.4,2.4,2.7,2.7,0,0,0,1.2,1.35,4,4,0,0,0,1.94.43,6.31,6.31,0,0,0,2.11-.35V144.4H76.17v-1.56H80.3v5.06a8.94,8.94,0,0,1-4.08,1Z"/><path class="cls-2" d="M82.91,148.71v-11h7.22v1.54H84.74v3.18h4.69V144h-4.7v3.2h5.4v1.54Z"/><path class="cls-2" d="M99.89,148.71v-9.48H96.33v-1.54h9v1.54h-3.57v9.48Z"/><path class="cls-2" d="M111.56,148.94a4.75,4.75,0,0,1-3.44-1.15,4.53,4.53,0,0,1-1.19-3.41v-6.69h1.87v6.67a3.37,3.37,0,0,0,.68,2.31,3.11,3.11,0,0,0,4,0,3.28,3.28,0,0,0,.71-2.31v-6.67H116v6.69a5.38,5.38,0,0,1-.54,2.53,3.53,3.53,0,0,1-1.53,1.53A5.23,5.23,0,0,1,111.56,148.94Z"/><path class="cls-2" d="M35.77,168.54v-11h7.07v1.53H37.58v3.29h4.6v1.55h-4.6v4.65Z"/><path class="cls-2" d="M44.89,168.54v-11h7.22v1.53H46.72v3.19h4.7v1.56H46.71V167h5.4v1.54Z"/><path class="cls-2" d="M59.3,168.7a5.12,5.12,0,0,1-3.92-1.4A6.06,6.06,0,0,1,54.06,163a6.15,6.15,0,0,1,1.3-4.26,5.08,5.08,0,0,1,3.94-1.42,7.39,7.39,0,0,1,1.74.21,9.05,9.05,0,0,1,1.68.59v1.64a6.78,6.78,0,0,0-1.61-.7,5.84,5.84,0,0,0-1.58-.22,4.16,4.16,0,0,0-2,.43,2.64,2.64,0,0,0-1.19,1.33,6.24,6.24,0,0,0-.39,2.42,5.93,5.93,0,0,0,.4,2.38,2.56,2.56,0,0,0,1.2,1.34,4.35,4.35,0,0,0,2,.42,5.55,5.55,0,0,0,1.53-.22,7.17,7.17,0,0,0,1.61-.69v1.64a6.57,6.57,0,0,1-1.08.43,7.65,7.65,0,0,1-1.17.27A7.88,7.88,0,0,1,59.3,168.7Z"/><path class="cls-2" d="M64.9,168.54v-11h1.82v4.74H71.8v-4.74h1.84v11H71.8v-4.69H66.72v4.69Z"/><path class="cls-2" d="M75.23,168.54l4.29-11h1.93l4.18,11H83.72L80,158.41l.7-.07L77,168.54Zm2.11-3,.53-1.49h5.24l.15,1.49Z"/><path class="cls-2" d="M91.91,168.54v-11h3.87a5.21,5.21,0,0,1,4,1.39,7.12,7.12,0,0,1,0,8.23,5.21,5.21,0,0,1-4,1.4ZM93.73,167H95.6a3.58,3.58,0,0,0,2.73-.95,5.69,5.69,0,0,0,0-6.05,3.54,3.54,0,0,0-2.73-1H93.73Z"/><path class="cls-2" d="M103.25,168.54v-11h7.22v1.53h-5.39v3.19h4.7v1.56h-4.71V167h5.4v1.54Z"/><path class="cls-2" d="M25.18,188.37v-11h1.76l6.36,8.81-.51,1v-9.8h1.73v11H32.88l-6.54-9,.58-.81v9.8Z"/><path class="cls-2" d="M36.11,188.37l4.29-11h1.93l4.19,11H44.6l-3.69-10.13.7-.07-3.69,10.2Zm2.11-3,.53-1.49H44l.15,1.49Z"/><path class="cls-2" d="M52.53,188.53a5.17,5.17,0,0,1-3.92-1.4,7.59,7.59,0,0,1,0-8.54,5.07,5.07,0,0,1,3.93-1.43,7.34,7.34,0,0,1,1.74.22A9.05,9.05,0,0,1,56,178v1.64a6.78,6.78,0,0,0-1.61-.7,5.86,5.86,0,0,0-1.58-.23,4.33,4.33,0,0,0-2,.43,2.7,2.7,0,0,0-1.19,1.34,7.67,7.67,0,0,0,0,4.8,2.68,2.68,0,0,0,1.2,1.34,4.35,4.35,0,0,0,2,.42,5.62,5.62,0,0,0,1.54-.22,7.1,7.1,0,0,0,1.6-.69v1.64a8,8,0,0,1-1.07.43,8.06,8.06,0,0,1-1.18.27A7.68,7.68,0,0,1,52.53,188.53Z"/><path class="cls-2" d="M58.13,188.37v-11H60v11Z"/><path class="cls-2" d="M62.58,188.37v-11h1.9l4,5.84-1.08.13,4.15-6h1.87v11H71.55V178.9l.51.35-4.2,5.8-4-5.75.47-.53v9.6Z"/><path class="cls-2" d="M76,188.37v-11h1.83v11Z"/><path class="cls-2" d="M80.42,188.37v-11h7.22v1.54H82.26v3.19H87v1.55H82.24v3.21h5.4v1.54Z"/><path class="cls-2" d="M90.1,188.37v-11h1.76l6.36,8.81-.51,1v-9.8h1.73v11H97.8l-6.54-9,.58-.81v9.8Z"/><path class="cls-2" d="M104.66,188.37v-9.49h-3.57v-1.54h9v1.54h-3.57v9.49Z"/><path class="cls-2" d="M116.21,188.55a5.68,5.68,0,0,1-2.78-.63,4.1,4.1,0,0,1-1.75-1.88,7.55,7.55,0,0,1-.59-3.18,6.15,6.15,0,0,1,1.31-4.26,4.91,4.91,0,0,1,3.81-1.44,5.7,5.7,0,0,1,2.79.63,4.13,4.13,0,0,1,1.75,1.89,7.46,7.46,0,0,1,.6,3.18,6.13,6.13,0,0,1-1.31,4.25A4.93,4.93,0,0,1,116.21,188.55Zm0-1.57a3.59,3.59,0,0,0,1.83-.42,2.53,2.53,0,0,0,1.07-1.33,6.59,6.59,0,0,0,.36-2.38,6.47,6.47,0,0,0-.36-2.36,2.5,2.5,0,0,0-1.07-1.32,3.59,3.59,0,0,0-1.83-.42,3.5,3.5,0,0,0-1.82.43,2.63,2.63,0,0,0-1.08,1.33,6.65,6.65,0,0,0-.35,2.35,6.81,6.81,0,0,0,.35,2.37,2.59,2.59,0,0,0,1.08,1.33A3.6,3.6,0,0,0,116.21,187Z"/></g></g></g></g></g></svg>