<svg xmlns="http://www.w3.org/2000/svg" viewBox="0 0 374.97 346.28"><defs><style>.cls-1{fill:#588c32;}.cls-2{fill:#76bd43;}.cls-3{fill:#f2f2f2;}.cls-4,.cls-5{fill:#fff;}.cls-5{opacity:0.22;}.cls-6,.cls-9{fill:none;stroke-miterlimit:10;}.cls-6{stroke:gray;stroke-width:5px;}.cls-7{fill:gray;}.cls-8{fill:#ff4f40;}.cls-9{stroke:#fff;stroke-width:2.93px;}</style></defs><title>t-rex-cumpleanos-1</title><g id="Capa_2" data-name="Capa 2"><g id="Capa_1-2" data-name="Capa 1"><g id="_Grupo_" data-name="&lt;Grupo&gt;"><polygon id="_Trazado_" data-name="&lt;Trazado&gt;" class="cls-1" points="195.68 191.27 235.11 191.27 235.21 183.05 195.68 183.05 195.68 191.27"/><g id="_Grupo_2" data-name="&lt;Grupo&gt;"><polygon id="_Trazado_2" data-name="&lt;Trazado&gt;" class="cls-1" points="252.73 231.71 252.73 282 231.62 282 231.62 273.05 241.86 273.05 241.86 232.34 252.73 231.71"/><polygon id="_Trazado_3" data-name="&lt;Trazado&gt;" class="cls-2" points="312.05 255.44 224.48 255.44 224.48 153.02 195.31 153.02 195.31 141.95 202.85 141.95 202.85 132.39 174.18 132.39 174.18 101.71 205.38 101.71 205.37 78.23 266.24 78.23 266.24 101.2 275.79 101.2 275.79 139.94 286.36 139.94 286.36 152.01 296.42 152.01 296.42 190.78 311.52 190.78 312.05 255.44"/><rect id="_Rectángulo_" data-name="&lt;Rectángulo&gt;" class="cls-3" x="236.24" y="90.27" width="11.92" height="11.92" transform="translate(484.4 192.45) rotate(-180)"/><rect id="_Rectángulo_2" data-name="&lt;Rectángulo&gt;" class="cls-3" x="232.76" y="123.54" width="9.45" height="8.91" transform="translate(474.97 255.98) rotate(-180)"/><rect id="_Rectángulo_3" data-name="&lt;Rectángulo&gt;" class="cls-3" x="242.33" y="114.6" width="9.45" height="8.91" transform="translate(494.12 238.1) rotate(-180)"/><rect id="_Rectángulo_4" data-name="&lt;Rectángulo&gt;" class="cls-3" x="202.77" y="132.41" width="29.96" height="9.56" transform="translate(435.51 274.37) rotate(-180)"/></g><polygon id="_Trazado_4" data-name="&lt;Trazado&gt;" class="cls-4" points="242.51 50.55 280.44 50.55 280.44 57.69 290.42 57.69 290.42 64.27 301.89 64.27 301.89 72.5 309.38 72.5 309.38 80.19 317.37 80.19 317.37 149.33 309.38 149.33 309.38 159.76 300.9 159.76 300.9 169.09 239.01 169.09 239.01 163.05 256.48 163.05 256.48 154.82 266.46 154.82 266.46 70.31 255.98 70.31 255.98 63.17 242.51 63.17 242.51 50.55"/><polyline id="_Trazado_5" data-name="&lt;Trazado&gt;" class="cls-5" points="275.03 50.55 197.23 50.55 197.23 57.69 188.14 57.69 188.14 64.27 177.69 64.27 177.69 72.5 170.87 72.5 170.87 80.19 163.6 80.19 163.6 149.33 170.87 149.33 170.87 159.76 178.6 159.76 178.6 169.09 273.55 169.09"/><polyline id="_Trazado_6" data-name="&lt;Trazado&gt;" class="cls-6" points="242.51 50.55 242.51 63.17 255.98 63.17 255.98 70.31 266.46 70.31 266.46 154.82 256.48 154.82 256.48 163.05 239.01 163.05 239.01 169.09"/><rect id="_Rectángulo_5" data-name="&lt;Rectángulo&gt;" class="cls-1" x="192.21" y="105.49" width="5.64" height="5.64" transform="translate(390.06 216.63) rotate(-180)"/><rect id="_Rectángulo_6" data-name="&lt;Rectángulo&gt;" class="cls-1" x="177.59" y="105.49" width="5.64" height="5.64" transform="translate(360.82 216.63) rotate(-180)"/><rect id="_Rectángulo_7" data-name="&lt;Rectángulo&gt;" class="cls-1" x="243.21" y="84.31" width="13.26" height="2.59" transform="translate(499.68 171.2) rotate(-180)"/><rect id="_Rectángulo_8" data-name="&lt;Rectángulo&gt;" class="cls-7" x="282.16" y="105.36" width="19.55" height="19.55" transform="translate(583.86 230.27) rotate(-180)"/><rect id="_Rectángulo_9" data-name="&lt;Rectángulo&gt;" class="cls-7" x="290.04" y="43.21" width="4.77" height="65.42" transform="translate(584.85 151.85) rotate(-180)"/><rect id="_Rectángulo_10" data-name="&lt;Rectángulo&gt;" class="cls-8" x="287.47" y="33.5" width="10.18" height="10.18" transform="translate(585.12 77.17) rotate(-180)"/><rect id="_Rectángulo_11" data-name="&lt;Rectángulo&gt;" class="cls-7" x="240.64" y="93.09" width="7.58" height="7.58" transform="translate(488.86 193.76) rotate(-180)"/><rect id="_Rectángulo_12" data-name="&lt;Rectángulo&gt;" class="cls-3" x="244.47" y="93.93" width="2.57" height="2.57" transform="translate(491.51 190.43) rotate(-180)"/><rect id="_Rectángulo_13" data-name="&lt;Rectángulo&gt;" class="cls-3" x="242.58" y="96.66" width="1.47" height="1.47" transform="translate(486.62 194.8) rotate(-180)"/><polygon id="_Trazado_7" data-name="&lt;Trazado&gt;" class="cls-2" points="288.54 231.71 288.54 282 267.44 282 267.44 273.05 277.67 273.05 277.67 232.34 288.54 231.71"/><polygon id="_Trazado_8" data-name="&lt;Trazado&gt;" class="cls-2" points="301.21 211.69 324.87 211.69 324.87 200.56 340.18 200.56 340.18 188.03 374.97 188.03 374.97 199.17 361.75 199.17 361.75 210.3 349.22 210.3 349.22 220.74 335.31 220.74 335.31 233.96 322.78 233.96 322.78 248.57 299.82 248.57 301.21 211.69"/><polygon id="_Trazado_9" data-name="&lt;Trazado&gt;" class="cls-1" points="224.44 240.81 224.44 177.04 246.79 177.04 246.79 186.04 254.56 186.04 254.56 195.03 262.01 195.03 262.01 222.55 252.65 222.55 252.65 230.02 243.3 230.02 243.3 240.77 224.44 240.81"/><g id="_Grupo_3" data-name="&lt;Grupo&gt;"><path id="_Trazado_10" data-name="&lt;Trazado&gt;" class="cls-9" d="M168.81,345.13l11.5-41.75s46.36-19.68,51.87-19.27,54.34-.54,54.34-.54,7.1,5.68,16.86,20.79l26,3.95s6,14.36,18.22,37.28"/><polyline id="_Trazado_11" data-name="&lt;Trazado&gt;" class="cls-9" points="229.84 304.38 273.38 304.38 290.28 321.01 315.72 326.42"/><line id="_Trazado_12" data-name="&lt;Trazado&gt;" class="cls-9" x1="195.68" y1="315.4" x2="187.98" y2="341.15"/></g><g id="_Grupo_4" data-name="&lt;Grupo&gt;"><g id="_Grupo_5" data-name="&lt;Grupo&gt;"><rect id="_Trazado_13" data-name="&lt;Trazado&gt;" class="cls-4" y="13.53" width="6.86" height="74.54"/><rect id="_Trazado_14" data-name="&lt;Trazado&gt;" class="cls-4" x="119.17" y="101.4" width="6.86" height="25.84"/><rect id="_Trazado_15" data-name="&lt;Trazado&gt;" class="cls-4" x="139.93" y="13.53" width="6.86" height="74.54"/><rect id="_Trazado_16" data-name="&lt;Trazado&gt;" class="cls-4" x="13.53" width="119.74" height="6.86"/><rect id="_Trazado_17" data-name="&lt;Trazado&gt;" class="cls-4" x="13.53" y="94.73" width="85.66" height="6.86"/><rect id="_Trazado_18" data-name="&lt;Trazado&gt;" class="cls-4" x="133.26" y="6.86" width="6.66" height="6.66"/><rect id="_Trazado_19" data-name="&lt;Trazado&gt;" class="cls-4" x="6.86" y="6.86" width="6.66" height="6.66"/><rect id="_Trazado_20" data-name="&lt;Trazado&gt;" class="cls-4" x="6.86" y="88.07" width="6.66" height="6.66"/><rect id="_Trazado_21" data-name="&lt;Trazado&gt;" class="cls-4" x="133.26" y="88.07" width="6.66" height="6.66"/><rect id="_Trazado_22" data-name="&lt;Trazado&gt;" class="cls-4" x="112.51" y="113.93" width="6.66" height="6.66"/><rect id="_Trazado_23" data-name="&lt;Trazado&gt;" class="cls-4" x="105.84" y="107.26" width="6.66" height="6.66"/><rect id="_Trazado_24" data-name="&lt;Trazado&gt;" class="cls-4" x="99.18" y="100.6" width="6.66" height="6.66"/><rect id="_Trazado_25" data-name="&lt;Trazado&gt;" class="cls-4" x="120.77" y="94.73" width="12.49" height="6.66"/></g><g id="_Grupo_6" data-name="&lt;Grupo&gt;"><path class="cls-4" d="M30.1,36.84v-11h7.22v1.54H31.93v3.19h4.7v1.55H31.92V35.3h5.4v1.54Z"/><path class="cls-4" d="M43.15,37a10.32,10.32,0,0,1-1.45-.09,5.28,5.28,0,0,1-1.14-.29c-.34-.13-.7-.3-1.06-.48V34.34a5.5,5.5,0,0,0,1.56.84,5.79,5.79,0,0,0,2,.33,2.37,2.37,0,0,0,1.53-.42,1.45,1.45,0,0,0,.5-1.16A1.24,1.24,0,0,0,44.7,33a3.34,3.34,0,0,0-1-.6c-.4-.17-.84-.33-1.3-.5s-.7-.27-1-.42a4,4,0,0,1-.93-.56,2.45,2.45,0,0,1-.66-.87,3.1,3.1,0,0,1-.25-1.3,3.22,3.22,0,0,1,.22-1.11,3,3,0,0,1,.65-1,3,3,0,0,1,1.16-.73,4.91,4.91,0,0,1,1.73-.27,6.35,6.35,0,0,1,1.14.08,4.54,4.54,0,0,1,.93.25c.29.12.61.26,1,.43v1.78c-.28-.18-.56-.34-.84-.5a5,5,0,0,0-.91-.38,4.64,4.64,0,0,0-1.11-.16,2.93,2.93,0,0,0-1.14.16,1.59,1.59,0,0,0-.68.52,1.31,1.31,0,0,0-.23.76,1.36,1.36,0,0,0,.29.91,2.14,2.14,0,0,0,.82.57c.35.14.76.29,1.22.43s.81.28,1.19.45a4.89,4.89,0,0,1,1,.6,2.7,2.7,0,0,1,1,2.19,3.42,3.42,0,0,1-.39,1.61,3.07,3.07,0,0,1-1.22,1.23A4.49,4.49,0,0,1,43.15,37Z"/><path class="cls-4" d="M53.83,37a5.15,5.15,0,0,1-3.92-1.4,6.08,6.08,0,0,1-1.32-4.28,6.12,6.12,0,0,1,1.3-4.26,5.1,5.1,0,0,1,3.94-1.43,6.92,6.92,0,0,1,1.74.22,9.05,9.05,0,0,1,1.68.59v1.64a6.4,6.4,0,0,0-1.61-.7,5.86,5.86,0,0,0-1.58-.23,4.27,4.27,0,0,0-2,.43,2.66,2.66,0,0,0-1.19,1.34,6.22,6.22,0,0,0-.39,2.41,6,6,0,0,0,.4,2.39,2.59,2.59,0,0,0,1.2,1.34,4.35,4.35,0,0,0,2,.42,5.55,5.55,0,0,0,1.53-.22,7.17,7.17,0,0,0,1.61-.69v1.64a7.78,7.78,0,0,1-2.25.7A7.88,7.88,0,0,1,53.83,37Z"/><path class="cls-4" d="M64.12,37a5.68,5.68,0,0,1-2.78-.63,4.1,4.1,0,0,1-1.75-1.88A7.55,7.55,0,0,1,59,31.33a6.15,6.15,0,0,1,1.31-4.26,4.91,4.91,0,0,1,3.81-1.44,5.7,5.7,0,0,1,2.79.63,4.18,4.18,0,0,1,1.75,1.89,7.39,7.39,0,0,1,.6,3.18A6.13,6.13,0,0,1,68,35.58,4.94,4.94,0,0,1,64.12,37Zm0-1.57A3.59,3.59,0,0,0,66,35,2.57,2.57,0,0,0,67,33.7a6.59,6.59,0,0,0,.36-2.38A6.47,6.47,0,0,0,67,29,2.55,2.55,0,0,0,66,27.64a3.59,3.59,0,0,0-1.83-.42,3.5,3.5,0,0,0-1.82.43A2.59,2.59,0,0,0,61.22,29a6.43,6.43,0,0,0-.35,2.35,6.59,6.59,0,0,0,.35,2.37A2.59,2.59,0,0,0,62.3,35,3.6,3.6,0,0,0,64.12,35.45Z"/><path class="cls-4" d="M76.22,37a6.14,6.14,0,0,1-2.84-.61,4,4,0,0,1-1.77-1.88A7.32,7.32,0,0,1,71,31.32a7.3,7.3,0,0,1,.61-3.2,4,4,0,0,1,1.77-1.88,6.12,6.12,0,0,1,2.82-.61,10,10,0,0,1,1.9.19,9,9,0,0,1,1.78.57v1.75a15.15,15.15,0,0,0-1.71-.71,5.71,5.71,0,0,0-1.74-.28,4.33,4.33,0,0,0-2,.43,2.66,2.66,0,0,0-1.19,1.34,6,6,0,0,0-.4,2.4,6,6,0,0,0,.4,2.39,2.73,2.73,0,0,0,1.2,1.36,4.09,4.09,0,0,0,1.94.43,6.31,6.31,0,0,0,2.11-.35V32.52H76.17V31H80.3V36a9,9,0,0,1-2,.74A9.12,9.12,0,0,1,76.22,37Z"/><path class="cls-4" d="M82.91,36.84v-11h7.22v1.54H84.74v3.19h4.69v1.55h-4.7V35.3h5.4v1.54Z"/><path class="cls-4" d="M99.89,36.84V27.35H96.33V25.81h9v1.54h-3.57v9.49Z"/><path class="cls-4" d="M111.56,37.07a4.8,4.8,0,0,1-3.44-1.15,4.56,4.56,0,0,1-1.19-3.41v-6.7h1.87v6.68a3.36,3.36,0,0,0,.68,2.3,3.08,3.08,0,0,0,4,0,3.26,3.26,0,0,0,.71-2.3V25.81H116v6.7a5.34,5.34,0,0,1-.54,2.52,3.43,3.43,0,0,1-1.53,1.53A5.1,5.1,0,0,1,111.56,37.07Z"/><path class="cls-4" d="M35.77,56.66v-11h7.07v1.54H37.58v3.29h4.6V52h-4.6v4.64Z"/><path class="cls-4" d="M44.89,56.66v-11h7.22v1.54H46.72v3.19h4.7v1.55H46.71v3.21h5.4v1.53Z"/><path class="cls-4" d="M59.3,56.83a5.12,5.12,0,0,1-3.92-1.41,6,6,0,0,1-1.32-4.28,6.11,6.11,0,0,1,1.3-4.25,5.08,5.08,0,0,1,3.94-1.43,6.92,6.92,0,0,1,1.74.22,9.05,9.05,0,0,1,1.68.59v1.64a6.83,6.83,0,0,0-1.61-.71A5.84,5.84,0,0,0,59.53,47a4.16,4.16,0,0,0-2,.43,2.66,2.66,0,0,0-1.19,1.34,6.19,6.19,0,0,0-.39,2.41,6,6,0,0,0,.4,2.39,2.59,2.59,0,0,0,1.2,1.34,4.35,4.35,0,0,0,2,.42,6,6,0,0,0,1.53-.22,7.17,7.17,0,0,0,1.61-.69V56a9,9,0,0,1-1.08.43,7.65,7.65,0,0,1-1.17.27A7.88,7.88,0,0,1,59.3,56.83Z"/><path class="cls-4" d="M64.9,56.66v-11h1.82v4.74H71.8V45.64h1.84v11H71.8V52H66.72v4.69Z"/><path class="cls-4" d="M75.23,56.66l4.29-11h1.93l4.18,11H83.72L80,46.53l.7-.06L77,56.66Zm2.11-3,.53-1.48h5.24l.15,1.48Z"/><path class="cls-4" d="M91.91,56.66v-11h3.87a5.21,5.21,0,0,1,4,1.39,5.81,5.81,0,0,1,1.31,4.11,5.85,5.85,0,0,1-1.31,4.13,5.21,5.21,0,0,1-4,1.39Zm1.82-1.53H95.6a3.58,3.58,0,0,0,2.73-1,4.43,4.43,0,0,0,.87-3,4.41,4.41,0,0,0-.87-3,3.54,3.54,0,0,0-2.73-1H93.73Z"/><path class="cls-4" d="M103.25,56.66v-11h7.22v1.54h-5.39v3.19h4.7v1.55h-4.71v3.21h5.4v1.53Z"/><path class="cls-4" d="M25.18,76.49v-11h1.76l6.36,8.81-.51,1v-9.8h1.73v11H32.88l-6.54-9,.58-.81v9.8Z"/><path class="cls-4" d="M36.11,76.49l4.29-11h1.93l4.19,11H44.6L40.91,66.36l.7-.06L37.92,76.49Zm2.11-3L38.75,72H44l.15,1.49Z"/><path class="cls-4" d="M52.53,76.66a5.14,5.14,0,0,1-3.92-1.41A6,6,0,0,1,47.29,71a6.11,6.11,0,0,1,1.31-4.25,5,5,0,0,1,3.93-1.43,7.33,7.33,0,0,1,1.74.21,9.09,9.09,0,0,1,1.68.6v1.63a6.78,6.78,0,0,0-1.61-.7,5.84,5.84,0,0,0-1.58-.22,4.21,4.21,0,0,0-2,.43,2.62,2.62,0,0,0-1.19,1.34,7.67,7.67,0,0,0,0,4.8,2.72,2.72,0,0,0,1.2,1.34,4.35,4.35,0,0,0,2,.42,5.64,5.64,0,0,0,1.54-.23,7,7,0,0,0,1.6-.68v1.63a6.83,6.83,0,0,1-1.07.43,8.09,8.09,0,0,1-1.18.28A7.68,7.68,0,0,1,52.53,76.66Z"/><path class="cls-4" d="M58.13,76.49v-11H60v11Z"/><path class="cls-4" d="M62.58,76.49v-11h1.9l4,5.83-1.08.13,4.15-6h1.87v11H71.55V67l.51.35-4.2,5.8-4-5.75.47-.53v9.6Z"/><path class="cls-4" d="M76,76.49v-11h1.83v11Z"/><path class="cls-4" d="M80.42,76.49v-11h7.22V67H82.26V70.2H87v1.55H82.24V75h5.4v1.54Z"/><path class="cls-4" d="M90.1,76.49v-11h1.76l6.36,8.81-.51,1v-9.8h1.73v11H97.8l-6.54-9,.58-.81v9.8Z"/><path class="cls-4" d="M104.66,76.49V67h-3.57V65.47h9V67h-3.57v9.48Z"/><path class="cls-4" d="M116.21,76.67a5.8,5.8,0,0,1-2.78-.62,4.07,4.07,0,0,1-1.75-1.89,7.51,7.51,0,0,1-.59-3.17,6.14,6.14,0,0,1,1.31-4.26,4.91,4.91,0,0,1,3.81-1.44,5.7,5.7,0,0,1,2.79.63,4.13,4.13,0,0,1,1.75,1.89,7.39,7.39,0,0,1,.6,3.18A6.14,6.14,0,0,1,120,75.24,5,5,0,0,1,116.21,76.67Zm0-1.57a3.59,3.59,0,0,0,1.83-.42,2.49,2.49,0,0,0,1.07-1.33,6.55,6.55,0,0,0,.36-2.38,6.41,6.41,0,0,0-.36-2.35A2.5,2.5,0,0,0,118,67.3a3.49,3.49,0,0,0-1.83-.42,3.6,3.6,0,0,0-1.82.42,2.62,2.62,0,0,0-1.08,1.34A6.62,6.62,0,0,0,113,71a6.71,6.71,0,0,0,.35,2.36,2.55,2.55,0,0,0,1.08,1.33A3.6,3.6,0,0,0,116.21,75.1Z"/></g></g><rect class="cls-8" x="164.37" y="159.65" width="43.63" height="43.63" transform="translate(372.38 362.94) rotate(-180)"/><rect class="cls-4" x="173.11" y="159.65" width="5.14" height="43.63" transform="translate(351.35 362.94) rotate(-180)"/><rect class="cls-4" x="164.37" y="167.54" width="43.63" height="5.01" transform="translate(372.38 340.09) rotate(-180)"/><rect class="cls-4" x="168.36" y="149.33" width="4.74" height="10.32"/><rect class="cls-4" x="177.21" y="149.33" width="4.74" height="10.32"/><polygon id="_Trazado_26" data-name="&lt;Trazado&gt;" class="cls-2" points="199.87 203.28 231.57 203.28 231.67 195.06 199.87 195.06 199.87 203.28"/></g></g></g></svg>