<svg xmlns="http://www.w3.org/2000/svg" viewBox="0 0 394.97 290.14"><defs><style>.cls-1{fill:#75b843;}.cls-2{fill:#3f245e;}.cls-3{fill:#f1f1f1;}.cls-4{fill:#fff;}.cls-5{fill:#818080;}</style></defs><title>isotipo-t-rexpace</title><g id="Capa_2" data-name="Capa 2"><g id="Capa_1-2" data-name="Capa 1"><polygon class="cls-1" points="349.03 64.44 320.35 64.44 320.35 35.7 94.65 35.7 94.65 64.44 66.14 64.44 66.14 233.72 94.65 233.72 94.65 261.93 179.29 261.93 179.29 279.03 193.39 279.03 193.39 290.14 221.61 290.14 221.61 279.03 235.71 279.03 235.71 261.93 320.35 261.93 320.35 233.72 349.03 233.72 349.03 64.44"/><polygon class="cls-2" points="339.01 56.42 310.34 56.42 310.34 27.68 84.64 27.68 84.64 56.42 56.13 56.42 56.13 225.7 84.64 225.7 84.64 253.91 169.27 253.91 169.27 271.01 183.38 271.01 183.38 282.12 211.59 282.12 211.59 271.01 225.7 271.01 225.7 253.91 310.34 253.91 310.34 225.7 339.01 225.7 339.01 56.42"/><g id="_Grupo_" data-name="&lt;Grupo&gt;"><polygon class="cls-1" points="247.22 175.77 256.17 175.77 256.17 188.91 221.54 188.91 221.54 225.7 136.16 225.7 136.16 187.72 148.1 187.72 148.1 173.39 160.64 173.39 160.64 127.41 171.99 127.41 171.99 100.14 244.23 100.14 244.22 128.01 281.25 128.01 281.25 164.43 247.22 164.43 247.22 175.77"/><rect class="cls-3" x="193.44" y="114.43" width="14.14" height="14.14"/><rect class="cls-3" x="200.5" y="153.92" width="11.22" height="10.57"/><rect class="cls-3" x="189.13" y="143.31" width="11.22" height="10.57"/><rect class="cls-3" x="211.74" y="164.45" width="35.56" height="11.34"/></g><polygon class="cls-4" points="200.15 67.29 155.13 67.29 155.13 75.76 143.28 75.76 143.28 83.58 129.66 83.58 129.66 93.35 120.78 93.35 120.78 102.47 111.3 102.47 111.3 184.54 120.78 184.54 120.78 196.91 130.85 196.91 130.85 207.99 204.29 207.99 204.29 200.82 183.56 200.82 183.56 191.05 171.72 191.05 171.72 90.74 184.15 90.74 184.15 82.28 200.15 82.28 200.15 67.29"/><polygon class="cls-4" points="276.79 207.99 206.11 207.99 206.11 206.4 275.21 206.4 275.21 195.45 284.38 195.45 284.38 183.22 293.01 183.22 293.01 103.66 284.38 103.66 284.38 94.64 276.29 94.64 276.29 84.98 263.89 84.98 263.89 77.25 253.1 77.25 253.1 68.88 201.39 68.88 201.39 67.29 254.67 67.29 254.67 75.67 265.46 75.67 265.46 83.39 277.87 83.39 277.87 93.05 285.96 93.05 285.96 102.07 294.59 102.07 294.59 184.8 285.96 184.8 285.96 197.04 276.79 197.04 276.79 207.99"/><polygon class="cls-5" points="207.26 207.99 201.33 207.99 201.33 203.79 180.6 203.79 180.6 194.02 168.75 194.02 168.75 87.78 181.19 87.78 181.19 79.31 197.18 79.31 197.18 67.29 203.11 67.29 203.11 85.24 187.12 85.24 187.12 93.71 174.68 93.71 174.68 188.09 186.53 188.09 186.53 197.86 207.26 197.86 207.26 207.99"/><rect class="cls-5" x="253.15" y="132.51" width="6.7" height="6.7"/><rect class="cls-5" x="270.5" y="132.51" width="6.7" height="6.7"/><rect class="cls-5" x="183.57" y="107.36" width="15.74" height="3.07"/><rect class="cls-5" x="129.89" y="132.35" width="23.2" height="23.2"/><rect class="cls-5" x="138.07" y="58.59" width="5.66" height="77.65"/><rect class="cls-1" x="134.7" y="47.05" width="12.08" height="12.08"/><rect class="cls-5" x="198.47" y="114.58" width="8.99" height="8.99"/><rect class="cls-3" x="199.86" y="115.57" width="3.05" height="3.05"/><rect class="cls-3" x="203.42" y="118.81" width="1.74" height="1.74"/><rect class="cls-2" x="366.76" y="253.91" width="28.21" height="28.21"/><rect class="cls-1" x="366.76" y="28.21" width="28.21" height="28.21"/><rect class="cls-2" x="28.21" width="28.21" height="28.21"/><rect class="cls-1" y="141.06" width="28.21" height="28.21"/></g></g></svg>