<svg xmlns="http://www.w3.org/2000/svg" width="191.2" height="29.8"><style>.st0{fill:#fff}.st1{fill:#75b843}</style><path class="st0" d="M21.8 0v4.6h-8.4v25.2h-5V4.6H0V0h21.8zM31.6 14.7V18H20.4v-3.3h11.2z"/><path class="st1" d="M51.8 0l3.9 6v7.1l-3.5 5.2L57 29.8h-5.2l-4.4-10.6h-7.8v10.6h-5V0h17.2zM39.6 15.3h8.9l2.3-3.8V7.8l-2.1-3.6h-9.1v11.1zM76.9 0v4.6H65v7.9h11.7v4.1H65v8.6h12v4.6H60V0h16.9zM102.8 0l-8.4 14.3 9 15.5h-5.7L91.5 18l-6.6 11.8h-5.3l9.4-16L80.8 0h5.7l5.3 10 5.6-10h5.4z"/><path class="st0" d="M123.6 0l4.6 7.1V14l-4.6 7.1h-12.1v8.7h-5V0h17.1zm-12.2 16.9h9.2l2.4-4.2V8.5l-2.4-4.2h-9.2v12.6zM141.8 0l9.2 29.8h-5.1l-1.9-6.7h-10.3l-1.9 6.7h-4.9l9-29.8h5.9zm-7.1 19.3h8.1l-4.1-14.1-4 14.1zM164.8 0l5.4 1.6v4.8l-5-1.8h-5.6l-3.1 5.5v9.7l3.1 5.4h6.1l4.6-1.6v4.7l-4.7 1.5h-8.7l-5.6-8.8V8.9l5.6-8.9h7.9zM191.2 0v4.6h-11.9v7.9H191v4.1h-11.7v8.6h12v4.6h-17V0h16.9z"/></svg>