<svg xmlns="http://www.w3.org/2000/svg" width="255" height="250.2"><style>.st1{fill:#3f245e}.st3{fill:#f1f1f1}.st7{opacity:.15;fill:#1d1e1c}.st8{fill:#dbd9dc}</style><g id="_Grupo_7_2_"><path d="M34.3 6.2h178.6c18.9 0 34.3 15.4 34.3 34.3v175.4c0 18.9-15.4 34.3-34.3 34.3H34.3C15.4 250.2 0 234.8 0 215.9V40.5C0 21.6 15.4 6.2 34.3 6.2z" fill="#ea5246" id="_Grupo_8_2_"/></g><g id="_Grupo_9_2_"><path id="_Rectángulo_15_2_" class="st1" d="M42.1 0h178.6c19 0 34.3 15.4 34.3 34.3v175.4c0 18.9-15.4 34.3-34.3 34.3H42.1c-18.9 0-34.3-15.4-34.3-34.3V34.3C7.8 15.4 23.2 0 42.1 0z"/></g><g id="_Grupo_12_2_"><path fill="#75b843" d="M88.9 169.6h-9v13h34.6V244h85.1v-62.6h-11.9v-14.2h-12.5v-45.9h-11.3V94.2H91.8l.1 27.7h-37v36.3h34z"/><path id="_Rectángulo_16_2_" class="st3" d="M128.4 108.4h14.1v14.1h-14.1z"/><path id="_Rectángulo_17_2_" class="st3" d="M124.3 147.8h11.2v10.5h-11.2z"/><path id="_Rectángulo_18_2_" class="st3" d="M135.6 137.2h11.2v10.5h-11.2z"/><path id="_Rectángulo_19_2_" class="st3" d="M88.8 158.3h35.5v11.3H88.8z"/></g><path id="_Trazado_4_1_" fill="#fff" d="M135.8 61.4h44.9v8.4h11.8v7.8h13.6v9.8h8.8v9.1h9.4v81.8h-9.4v12.3h-10v11.1h-73.2v-7.2h20.6v-9.7h11.8v-100h-12.4v-8.5h-15.9z"/><path id="_Trazado_5_1_" opacity=".22" fill="#fff" d="M174.3 61.4H82.2v8.4H71.5v7.8H59.1v9.8H51v9.1h-8.6v81.8H51v12.3h9.2v11.1h112.3"/><path id="_Trazado_6_1_" fill="none" stroke="#dbd9dc" stroke-width="5.91" stroke-miterlimit="10" d="M135.8 61.4v14.9h15.9v8.5h12.4v100h-11.8v9.7h-20.6v7.2"/><path id="_Rectángulo_20_2_" class="st7" d="M76.3 126.4H83v6.7h-6.7z"/><path id="_Rectángulo_21_2_" class="st7" d="M59 126.4h6.7v6.7H59z"/><path id="_Rectángulo_22_2_" class="st7" d="M136.6 101.4h15.7v3.1h-15.7z"/><path id="_Rectángulo_23_2_" class="st8" d="M182.7 126.3h23.1v23.1h-23.1z"/><path id="_Rectángulo_24_2_" class="st8" d="M192 52.7h5.6v77.4H192z"/><path id="_Rectángulo_25_2_" fill="#dd5043" d="M189 41.2h12v12h-12z"/><path id="_Rectángulo_26_2_" class="st1" d="M133.6 111.8h9v9h-9z"/><path id="_Rectángulo_27_2_" class="st3" d="M138.1 112.7h3v3h-3z"/><path id="_Rectángulo_28_2_" class="st3" d="M135.9 116h1.7v1.7h-1.7z"/></svg>