<svg xmlns="http://www.w3.org/2000/svg" width="459" height="482"><style>.st0{fill:#fff}.st1{fill:#75b843}.st2{fill:#f0f0f0}.st3{opacity:.15;fill:#1d1e1c}.st5{fill:#dbd9dc}</style><g id="XMLID_6_"><g id="XMLID_7_"><g id="XMLID_8_"><path id="XMLID_22_" class="st0" d="M449.7 18.3h9.3V119h-9.3z"/><path id="XMLID_21_" class="st0" d="M288.8 136.9h9.3v34.9h-9.3z"/><path id="XMLID_20_" class="st0" d="M260.8 18.3h9.3V119h-9.3z"/><path id="XMLID_19_" class="st0" d="M279 0h161.7v9.3H279z"/><path id="XMLID_18_" class="st0" d="M325.1 127.9h115.7v9.3H325.1z"/><path id="XMLID_17_" class="st0" d="M270 9.3h9v9h-9z"/><path id="XMLID_16_" class="st0" d="M440.7 9.3h9v9h-9z"/><path id="XMLID_15_" class="st0" d="M440.7 118.9h9v9h-9z"/><path id="XMLID_14_" class="st0" d="M270 118.9h9v9h-9z"/><path id="XMLID_13_" class="st0" d="M298.1 153.8h9v9h-9z"/><path id="XMLID_12_" class="st0" d="M307.1 144.8h9v9h-9z"/><path id="XMLID_11_" class="st0" d="M316.1 135.8h9v9h-9z"/><path id="XMLID_10_" class="st0" d="M279 127.9h16.9v9H279z"/></g><path class="st0" d="M277.9 64.5l5.6-14.3h2.5l5.4 14.3h-2.5l-4.8-13.1.9-.1-4.8 13.2h-2.3zm2.7-3.8l.7-1.9h6.8l.2 1.9h-7.7zM299.1 64.8c-2.2 0-3.8-.6-5-1.8-1.1-1.2-1.7-3.1-1.7-5.6 0-2.5.6-4.3 1.7-5.6 1.1-1.2 2.8-1.9 5-1.9s3.8.6 5 1.8c1.1 1.2 1.7 3.1 1.7 5.6 0 2.5-.6 4.3-1.7 5.5-1.1 1.4-2.7 2-5 2zm0-1.8c1 0 1.8-.2 2.4-.6.6-.4 1.1-1 1.4-1.8.3-.8.4-1.9.4-3.2 0-1.3-.2-2.3-.5-3.1s-.8-1.4-1.4-1.7-1.4-.6-2.4-.6c-.9 0-1.7.2-2.4.6-.6.4-1.1 1-1.4 1.8-.3.8-.5 1.8-.5 3.1s.2 2.4.5 3.2c.3.8.8 1.4 1.4 1.8.8.3 1.6.5 2.5.5zm5.3 2c.2 0 .4 0 .6-.1.2 0 .4-.2.7-.4v1.7c-.3.2-.6.3-.9.3-.3.1-.6.1-.8.1-.4 0-.7-.1-1-.2-.3-.1-.6-.3-.9-.5-.3-.2-.6-.5-.8-.8-.2-.3-.4-.7-.6-1.2-.2-.5-.4-.9-.6-1.3-.2-.4-.5-.7-.8-1-.3-.2-.7-.4-1.1-.4-.5 0-.9.1-1.3.3-.4.2-.7.5-1 .9v-1.8c.2-.3.6-.5 1.1-.8.5-.3 1-.4 1.7-.4.6 0 1.2.1 1.7.4s.9.7 1.3 1.2.7 1.1.9 1.8c.3.6.6 1.1.8 1.5.3.5.7.7 1 .7zM314.6 64.8c-1.9 0-3.4-.5-4.4-1.5-1-1-1.5-2.5-1.5-4.4v-8.7h2.4v8.6c0 1.3.3 2.3.9 3 .6.6 1.5 1 2.6 1s2-.3 2.6-1c.6-.6.9-1.6.9-3v-8.6h2.3v8.7c0 1.3-.2 2.4-.7 3.3-.5.9-1.1 1.5-2 2-.9.4-1.9.6-3.1.6zM323.7 64.5V50.3h2.4v14.3h-2.4zm.6-15.5l1-2.4h2.3l-2.1 2.4h-1.2zM341.6 64.8c-2.2 0-3.9-.6-5.1-1.8-1.1-1.2-1.7-3.1-1.7-5.5s.6-4.3 1.7-5.5c1.1-1.2 2.8-1.9 5.1-1.9.8 0 1.5.1 2.3.3s1.5.4 2.2.8v2.1c-.7-.4-1.4-.7-2.1-.9-.7-.2-1.4-.3-2-.3-1 0-1.9.2-2.6.6-.7.4-1.2.9-1.5 1.7s-.5 1.8-.5 3.1.2 2.3.5 3.1c.3.8.9 1.4 1.6 1.7.7.4 1.6.5 2.6.5.6 0 1.3-.1 2-.3.7-.2 1.4-.5 2.1-.9v2.1c-.4.2-.9.4-1.4.6-.5.2-1 .3-1.5.4-.7 0-1.2.1-1.7.1zM355 64.8c-1.4 0-2.6-.3-3.6-.8s-1.7-1.4-2.3-2.4c-.5-1.1-.8-2.5-.8-4.1 0-2.4.6-4.3 1.7-5.5 1.1-1.2 2.8-1.9 4.9-1.9 1.4 0 2.6.3 3.6.8s1.7 1.4 2.3 2.4c.5 1.1.8 2.5.8 4.1 0 2.4-.6 4.3-1.7 5.5-1.1 1.3-2.8 1.9-4.9 1.9zm0-2.1c1 0 1.7-.2 2.4-.5.6-.4 1.1-.9 1.4-1.7s.5-1.8.5-3.1-.2-2.3-.5-3-.8-1.3-1.4-1.7c-.6-.4-1.4-.5-2.4-.5-.9 0-1.7.2-2.4.6-.6.4-1.1.9-1.4 1.7-.3.8-.5 1.8-.5 3s.2 2.3.5 3.1c.3.8.8 1.4 1.4 1.7.6.3 1.4.4 2.4.4zM364.4 64.5V50.3h2.5l5.1 7.6-1.4.2 5.4-7.7h2.4v14.3H376V52.3l.7.4-5.4 7.5-5.2-7.4.6-.7v12.4h-2.3zM381.8 64.5V50.3h2.4v14.3h-2.4zM387.5 64.5V50.3h9.3v2h-7v4.1h6.1v2h-6.1v4.1h7v2h-9.3zM400 64.5V50.3h2.3l8.2 11.4-.7 1.3V50.3h2.2v14.3h-2L401.5 53l.7-1v12.7H400zM415.1 64.5v-1.9l8.3-11.1.5.7h-8.7v-2h10.4V52l-8 11-.6-.5h8.6v2h-10.5zM427.4 64.5l5.6-14.3h2.5l5.4 14.3h-2.5l-4.8-13.1.9-.1-4.8 13.2h-2.3zm2.8-3.8l.7-1.9h6.8l.2 1.9h-7.7zM286 90V75.8h9.3v2h-7v4.1h6.1v2h-6.1V88h7v2H286zM298.6 90V75.8h2.4V88h6.8v2h-9.2zM316.1 90V75.8h6.3c1.5 0 2.6.4 3.4 1.1.8.7 1.2 1.8 1.2 3.2 0 .7-.1 1.4-.4 2.1-.3.6-.7 1.1-1.3 1.5-.6.4-1.2.6-2 .7l.3-.7 4.2 6.4h-2.9l-4-6.4 1.1 1h-3.5V90h-2.4zm2.4-7.3h3.3c.9 0 1.6-.2 2.1-.6.5-.4.7-1 .7-1.9 0-.8-.2-1.4-.5-1.8s-1-.6-1.9-.6h-3.7v4.9zM330.3 90V75.8h9.3v2h-7v4.1h6.1v2h-6.1V88h7v2h-9.3zM349 90.3c-2.2 0-3.9-.6-5.1-1.8-1.1-1.2-1.7-3.1-1.7-5.5s.6-4.3 1.7-5.5c1.1-1.2 2.8-1.9 5.1-1.9.8 0 1.5.1 2.3.3s1.5.4 2.2.8v2.1c-.7-.4-1.4-.7-2.1-.9-.7-.2-1.4-.3-2-.3-1 0-1.9.2-2.6.6-.7.4-1.2.9-1.5 1.7s-.5 1.8-.5 3.1.2 2.3.5 3.1c.3.8.9 1.4 1.6 1.7.7.4 1.6.5 2.6.5.6 0 1.3-.1 2-.3.7-.2 1.4-.5 2.1-.9v2.1c-.4.2-.9.4-1.4.6-.5.2-1 .3-1.5.4-.7 0-1.2.1-1.7.1zM362.3 90.3c-1.4 0-2.6-.3-3.6-.8s-1.7-1.4-2.3-2.4c-.5-1.1-.8-2.5-.8-4.1 0-2.4.6-4.3 1.7-5.5 1.1-1.2 2.8-1.9 4.9-1.9 1.4 0 2.6.3 3.6.8s1.7 1.4 2.3 2.4c.5 1.1.8 2.5.8 4.1 0 2.4-.6 4.3-1.7 5.5-1.1 1.3-2.7 1.9-4.9 1.9zm0-2c1 0 1.7-.2 2.4-.5.6-.4 1.1-.9 1.4-1.7s.5-1.8.5-3.1-.2-2.3-.5-3-.8-1.3-1.4-1.7c-.6-.4-1.4-.5-2.4-.5-.9 0-1.7.2-2.4.6-.6.4-1.1.9-1.4 1.7-.3.8-.5 1.8-.5 3s.2 2.3.5 3.1c.3.8.8 1.4 1.4 1.7.7.2 1.5.4 2.4.4zM371.8 90V75.8h6.3c1.5 0 2.6.4 3.4 1.1.8.7 1.2 1.8 1.2 3.2 0 .7-.1 1.4-.4 2.1-.3.6-.7 1.1-1.3 1.5-.6.4-1.2.6-2 .7l.3-.7 4.2 6.4h-2.9l-4-6.4 1.1 1h-3.5V90h-2.4zm2.3-7.3h3.3c.9 0 1.6-.2 2.1-.6.5-.4.7-1 .7-1.9 0-.8-.2-1.4-.5-1.8s-1-.6-1.9-.6h-3.7v4.9zM386 90V75.8h6.3c1.5 0 2.6.4 3.4 1.1.8.7 1.2 1.8 1.2 3.2 0 .7-.1 1.4-.4 2.1-.3.6-.7 1.1-1.3 1.5-.6.4-1.2.6-2 .7l.3-.7 4.2 6.4h-2.9l-4-6.4 1.1 1h-3.5V90H386zm2.3-7.3h3.3c.9 0 1.6-.2 2.1-.6.5-.4.7-1 .7-1.9 0-.8-.2-1.4-.5-1.8s-1-.6-1.9-.6h-3.7v4.9zM400.2 90V75.8h2.4V90h-2.4zM406 90V75.8h5c2.3 0 4 .6 5.2 1.8 1.1 1.2 1.7 3 1.7 5.3 0 2.4-.6 4.1-1.7 5.3-1.1 1.2-2.8 1.8-5.2 1.8h-5zm2.3-1.9h2.4c1.6 0 2.8-.4 3.5-1.2s1.1-2.1 1.1-3.9c0-1.8-.4-3.1-1.1-3.9s-1.9-1.2-3.5-1.2h-2.4v10.2zM426.7 90.3c-1.4 0-2.6-.3-3.6-.8s-1.7-1.4-2.3-2.4c-.5-1.1-.8-2.5-.8-4.1 0-2.4.6-4.3 1.7-5.5 1.1-1.2 2.8-1.9 4.9-1.9 1.4 0 2.6.3 3.6.8s1.7 1.4 2.3 2.4c.5 1.1.8 2.5.8 4.1 0 2.4-.6 4.3-1.7 5.5-1.1 1.3-2.7 1.9-4.9 1.9zm0-2c1 0 1.7-.2 2.4-.5.6-.4 1.1-.9 1.4-1.7s.5-1.8.5-3.1-.2-2.3-.5-3-.8-1.3-1.4-1.7c-.6-.4-1.4-.5-2.4-.5-.9 0-1.7.2-2.4.6-.6.4-1.1.9-1.4 1.7-.3.8-.5 1.8-.5 3s.2 2.3.5 3.1c.3.8.8 1.4 1.4 1.7.7.2 1.5.4 2.4.4z"/></g></g><g id="XMLID_1_"><path id="XMLID_5_" class="st1" d="M59.8 388.3h60.3v51H91.8v-25.5h-32z"/><g id="XMLID_3_"><g id="XMLID_4_"><path class="st1" d="M148.1 356.1l47.2 17.4 6.6-17.9-12.2-4.5 5.7-15.5 46.4 17.1L260 303l-50.4-18.6 14-37.9-98.5-36.3-13.7 37.2-15.5-5.7-23 62.7-17.1-6.3-7.2 19.5-12.2-4.4v121.5z"/><path transform="rotate(20.205 153.234 253.624)" class="st2" d="M143 243.4h20.5v20.5H143z"/><path transform="rotate(20.205 141.946 307.828)" class="st2" d="M133.8 300.2h16.3v15.4h-16.3z"/><path transform="rotate(20.205 131.78 287.657)" class="st2" d="M123.6 280h16.3v15.4h-16.3z"/><path transform="rotate(20.205 168.392 334.451)" class="st2" d="M142.6 326.2h51.7v16.5h-51.7z"/></g><path class="st0" d="M179.9 179.6L118.6 157l-4.3 11.5-16.1-5.9-3.9 10.6-18.6-6.8-4.9 13.3-12.1-4.4-4.6 12.4-12.9-4.8L0 294.8l12.9 4.8-6.2 16.9 13.7 5-5.5 15.1L115 373.4l3.6-9.7-28.3-10.4 4.9-13.3-16.1-6 50.3-136.7 17 6.2 4.2-11.5 21.8 8z"/><path transform="rotate(20.205 222.346 301.27)" class="st3" d="M217.5 296.4h9.7v9.7h-9.7z"/><path transform="rotate(20.205 246.007 309.977)" class="st3" d="M241.2 305.1h9.7v9.7h-9.7z"/><path transform="rotate(20.205 147.194 231.889)" class="st3" d="M135.8 229.7h22.9v4.5h-22.9z"/><path opacity=".22" fill="#fff" d="M127.3 160.2l125.9 46.3-4.2 11.6 14.7 5.4-4 10.6 17 6.3-4.9 13.3 11 4-4.6 12.5 11.8 4.3-41.2 111.9-11.8-4.3-6.2 16.8-12.5-4.6-5.5 15.1-153.7-56.5"/><path class="st5" d="M119.1 374.9L111 372l2.1-5.8-28.3-10.4 4.9-13.3-16.1-5.9 53.3-144.9 16.9 6.3 4.3-11.6 21.8 8.1 6-16.4 8.1 3-9 24.4-21.8-8-4.3 11.5-16.9-6.2-47.4 128.7 16.2 5.9-4.9 13.3 28.2 10.4z"/><path transform="rotate(20.205 61.515 254.608)" class="st5" d="M44.7 237.8h33.7v33.7H44.7z"/><path transform="rotate(20.205 84.063 190.879)" class="st5" d="M80 134.5h8.2v112.8H80z"/><path transform="rotate(20.205 106.069 130.383)" fill="#ea5246" d="M97.3 121.6h17.5v17.5H97.3z"/><path transform="rotate(20.205 149.237 253.36)" fill="#3f245e" d="M142.7 246.9h13.1V260h-13.1z"/><path transform="rotate(20.205 148.082 249.875)" class="st2" d="M145.9 247.7h4.4v4.4h-4.4z"/><path transform="rotate(20.205 150.735 254.86)" class="st2" d="M149.5 253.6h2.5v2.5h-2.5z"/></g><path id="XMLID_2_" class="st1" d="M36.4 428.6h60.3v51H68.4v-25.5h-32z"/></g><path fill="none" stroke="#fff" stroke-width="4.988" stroke-miterlimit="10" d="M36.4 110.6V482"/></svg>