<svg xmlns="http://www.w3.org/2000/svg" width="269.5" height="280.6"><style>.st1{fill:#f1f1f1}.st2{fill:#3f245e}.st3{opacity:.22}.st3,.st4{fill:#fff}.st5{fill:#dbd9dc}.st8{opacity:.15;fill:#1d1e1c}</style><path id="XMLID_41_" transform="rotate(-180 129.114 114.957)" fill="#75b843" d="M45.8 30.6h166.5v168.6H45.8z"/><g id="XMLID_36_"><path id="XMLID_40_" transform="rotate(-180 92.452 148.314)" class="st1" d="M81.1 137h22.7v22.7H81.1z"/><path id="XMLID_39_" transform="rotate(-180 88.285 152.639)" class="st2" d="M81.1 145.4h14.4v14.4H81.1z"/><path id="XMLID_38_" transform="rotate(-180 90.815 155.814)" class="st1" d="M88.4 153.4h4.9v4.9h-4.9z"/><path id="XMLID_37_" transform="rotate(-180 86.157 151.654)" class="st1" d="M84.8 150.3h2.8v2.8h-2.8z"/></g><g id="XMLID_31_"><path id="XMLID_35_" transform="rotate(-180 165.382 148.314)" class="st1" d="M154 137h22.7v22.7H154z"/><path id="XMLID_34_" transform="rotate(-180 161.215 152.406)" class="st2" d="M154 145.2h14.4v14.4H154z"/><path id="XMLID_33_" transform="rotate(-180 163.746 155.582)" class="st1" d="M161.3 153.1h4.9v4.9h-4.9z"/><path id="XMLID_32_" transform="rotate(-180 159.088 151.422)" class="st1" d="M157.7 150h2.8v2.8h-2.8z"/></g><g id="XMLID_24_"><g id="XMLID_29_"><path id="XMLID_30_" class="st1" d="M86.8 67h86.5v14.1H82.1V67h4.7"/></g><path id="XMLID_28_" transform="rotate(-180 73.684 88.482)" class="st1" d="M65.3 81.1h16.8v14.8H65.3z"/><path id="XMLID_27_" transform="rotate(-180 181.809 88.482)" class="st1" d="M173.3 81.1h17v14.8h-17z"/><path id="XMLID_26_" transform="rotate(-180 198.823 103.296)" class="st1" d="M190.3 95.9h17v14.8h-17z"/><path id="XMLID_25_" transform="rotate(-180 56.79 103.296)" class="st1" d="M48.3 95.9h17v14.8h-17z"/></g><path id="XMLID_23_" transform="rotate(-180 128.19 127.63)" class="st3" d="M29.5 25.1h197.3v205H29.5z"/><path id="XMLID_22_" transform="rotate(-180 125.44 239.067)" class="st4" d="M24 225.8h202.8v26.6H24z"/><path id="XMLID_21_" transform="rotate(-180 212.282 32.426)" class="st4" d="M197.7 19.1h29.1v26.6h-29.1z"/><path id="XMLID_20_" transform="rotate(-180 38.596 32.426)" class="st4" d="M24 19.1h29.1v26.6H24z"/><path id="XMLID_19_" transform="rotate(-180 212.282 214.323)" class="st4" d="M197.7 201h29.1v26.6h-29.1z"/><path id="XMLID_18_" transform="rotate(-180 38.596 214.323)" class="st4" d="M24 201h29.1v26.6H24z"/><path id="XMLID_17_" transform="rotate(-180 241.053 123.139)" class="st4" d="M226.5 45.3h29.1V201h-29.1z"/><path id="XMLID_16_" class="st4" d="M0 45.3h29.1V201H0z"/><path id="XMLID_15_" transform="rotate(90 121.902 13.312)" class="st4" d="M108.6-70h26.6V96.6h-26.6z"/><path id="XMLID_14_" transform="rotate(-180 261.944 123.107)" class="st5" d="M254.3 106.4h15.2v33.5h-15.2z"/><path id="XMLID_13_" transform="rotate(-180 257.054 200.97)" class="st5" d="M254.3 139.8h5.4v122.3h-5.4z"/><path id="XMLID_11_" transform="rotate(-180 257.054 270.926)" fill="#ea5246" d="M247.4 261.2h19.4v19.4h-19.4z"/><path id="XMLID_10_" fill="none" stroke="#dbd9dc" stroke-width="9.524" stroke-miterlimit="10" d="M197.7 201v26.6H53.2V201H29.1V45.3h24.1V26.4h143.9v19.3h29.4V201z"/><path id="XMLID_8_" transform="rotate(-180 174.607 169.248)" class="st8" d="M162 166.8h25.3v4.9H162z"/><path id="XMLID_6_" transform="rotate(-180 84.146 169.248)" class="st8" d="M71.5 166.8h25.3v4.9H71.5z"/><path id="XMLID_4_" transform="rotate(-180 141.094 117.727)" class="st8" d="M135.7 112.3h10.8v10.8h-10.8z"/><path id="XMLID_2_" transform="rotate(-180 113.217 117.727)" class="st8" d="M107.8 112.3h10.8v10.8h-10.8z"/><path id="XMLID_1_" class="st3" d="M27 22.7h197.2v207.4H27z"/></svg>