<svg xmlns="http://www.w3.org/2000/svg" width="272.8" height="508.9"><style>.st0{fill:#75b843}.st1{fill:#ea5246}.st2{fill:#f0f0f0}.st3{fill:#fff}.st4{opacity:.15;fill:#1d1e1c}.st6{fill:#dbd9dc}.st8{fill:#3c245e}.st9{fill:none;stroke:#fff;stroke-width:3.3997;stroke-miterlimit:10}</style><g id="XMLID_1_"><g id="XMLID_4_"><path class="st0" d="M115.4 294.6H69.5v21.2H79v-11.6h36.3z"/><path transform="rotate(-180 74.96 202.797)" class="st1" d="M69.5 74.6h11V331h-11z"/><g id="XMLID_5_"><path class="st0" d="M130.8 362.9v58.5h-24.6v-10.5h11.9v-47.2z"/><path class="st0" d="M199.7 390.5H97.9v-119H64v-12.9h8.8v-11.1H39.5v-35.7h36.2v-27.2h70.8v26.7h11.1v45h12.2v14h11.7v45h17.6z"/><path transform="rotate(-180 118.528 205.476)" class="st2" d="M111.6 198.6h13.8v13.8h-13.8z"/><path transform="rotate(-180 113.05 242.39)" class="st2" d="M107.6 237.2h11v10.3h-11z"/><path transform="rotate(-180 124.177 231.998)" class="st2" d="M118.7 226.8h11v10.3h-11z"/><path transform="rotate(-180 90.124 253.075)" class="st2" d="M72.7 247.5h34.8v11.1H72.7z"/></g><path class="st3" d="M118.9 152.4H163v8.3h11.6v7.6h13.3v9.6h8.7v8.9h9.3v80.4h-9.3v12.1h-9.9v10.8h-71.9v-7h20.3v-9.5h11.6v-98.2h-12.2v-8.3h-15.6z"/><path transform="rotate(-180 63.719 219.526)" class="st4" d="M60.4 216.2H67v6.6h-6.6z"/><path transform="rotate(-180 46.725 219.526)" class="st4" d="M43.4 216.2H50v6.6h-6.6z"/><path transform="rotate(-180 127.408 193.132)" class="st4" d="M119.7 191.6h15.4v3h-15.4z"/><path opacity=".22" fill="#fff" d="M156.7 152.4H66.3v8.3H55.7v7.6H43.6v9.6h-8v8.9h-8.4v80.4h8.4v12.1h9v10.8H155"/><path class="st6" d="M117.7 290.1h-5.8v-9.9h20.3v-9.5h11.6v-92.4h-12.2V170H116v-17.6h5.8v11.8h15.6v8.3h12.2v104H138v9.5h-20.3z"/><path transform="rotate(-180 176.317 227.448)" class="st6" d="M165 216.1h22.7v22.7H165z"/><path transform="rotate(-180 176.89 181.886)" class="st6" d="M174.1 143.9h5.5v76h-5.5z"/><path transform="rotate(-180 177.05 138.497)" class="st1" d="M171.1 132.6h11.8v11.8h-11.8z"/><path transform="rotate(-180 116.129 203.095)" fill="#3f245e" d="M111.7 198.7h8.8v8.8h-8.8z"/><path transform="rotate(-180 117.671 201.16)" class="st2" d="M116.2 199.7h3v3h-3z"/><path transform="rotate(-180 114.832 203.695)" class="st2" d="M114 202.8h1.7v1.7H114z"/><path class="st0" d="M172.4 362.9v58.5h-24.5v-10.5h11.8v-47.2zM187.1 339.7h27.5v-13h17.8v-14.5h40.4v12.9h-15.4V338h-14.5v12.2h-16.2v15.3h-14.5v17h-26.7z"/><path class="st4" d="M97.9 373.5v-74.1h26v10.4h9v10.5h8.7v32h-10.9v8.7h-10.9v12.4z"/><path class="st0" d="M106.1 312.5H82.7v21.2h8.5V322H106z"/><path transform="rotate(-180 75.5 305.22)" class="st0" d="M69.5 301.1h12.1v8.2H69.5z"/></g><path class="st3" d="M7.6 83.1v-8.2H3.5v-8.2H0V45.5h3v-9.4h4.2V29h3.4v-8.2h8.1v-7.2h7.2V8.5h7.5V3.9h7.5V0h76v3.9h6.3v4.6h7.5v5.1h7.2v7.2h7.9V29h3.5v7.3h4.2v9.2h3v21.2H153v8.2h-4.2v9h-3v7.4h-8.4v7.2h-7.1v4.9H123v4.4h-6.2v3.7H42.3v-3.7H35v-4.4h-7.3v-4.9h-7.1v-7.2h-10v-8.2"/><path class="st8" d="M26.7 70.7V43.3h3v12.3h14.5V43.3h3v27.3h-3V58.4H29.7v12.3h-3zM65.4 71.1c-2.7 0-5-.5-6.8-1.6-1.8-1.1-3.2-2.6-4.1-4.7-.9-2.1-1.4-4.7-1.4-7.8 0-4.6 1-8.1 3.1-10.5 2.1-2.4 5.1-3.5 9.2-3.5 2.7 0 5 .5 6.8 1.6 1.8 1.1 3.2 2.6 4.1 4.7.9 2.1 1.4 4.7 1.4 7.8 0 4.6-1 8.1-3.1 10.5s-5.2 3.5-9.2 3.5zm0-2.8c2.2 0 3.9-.4 5.3-1.2 1.4-.8 2.4-2 3-3.7.6-1.7 1-3.8 1-6.4 0-2.6-.3-4.7-1-6.4-.7-1.6-1.7-2.8-3-3.6-1.4-.8-3.1-1.2-5.3-1.2-2.1 0-3.9.4-5.2 1.2-1.4.8-2.4 2-3 3.7-.6 1.7-1 3.8-1 6.4 0 2.6.3 4.7 1 6.4s1.6 2.9 3 3.7c1.3.7 3 1.1 5.2 1.1zM83.6 70.7V43.3h3v24.5h14v2.9h-17zM102.4 70.7l10.9-27.3h3l10.9 27.3H124l-9.5-24.6.6-.1-9.5 24.7h-3.2zm4.8-8.5l1.3-2.8h13.4l.2 2.8h-14.9z"/><path class="st9" d="M30.9 508.4l17.6-64s53.9-22.9 60.3-22.4 63.1-.6 63.1-.6 8.2 6.6 19.6 24.2l30.2 4.6s6.9 16.7 21.2 43.3c0 0-1.6 6.7-4.2 15"/><path id="XMLID_3_" class="st9" d="M106.1 445.5h50.6l19.6 19.4 29.6 6.2"/><path id="XMLID_2_" class="st9" d="M66.4 458.3l-9 30"/></g></svg>