<svg xmlns="http://www.w3.org/2000/svg" width="407.1" height="287.5"><style>.st0{fill:#ea5246}.st1{fill:#3f245e}.st2{fill:#75b843}.st3{fill:#f1f1f1}.st4,.st5{fill:#fff}.st5{opacity:.22;enable-background:new}.st6{fill:none;stroke:#dbd9dc;stroke-width:5.91;stroke-miterlimit:10}.st7{opacity:.15;fill:#1d1e1c}.st8{fill:#7f7f7f}.st9{fill:#dd5043}.st10{fill:#dbd9dc}</style><g id="_Grupo__1_"><path class="st0" d="M26.6 48.9l174-40.2c18.5-4.3 36.9 7.2 41.1 25.7l39.5 170.9c4.3 18.5-7.2 36.9-25.7 41.1l-174 40.2c-18.5 4.3-36.9-7.2-41.1-25.7L.9 90c-4.3-18.4 7.2-36.8 25.7-41.1z" id="_Grupo_2_1_"/></g><g id="_Grupo_3_2_"><path id="_Rectángulo__2_" class="st1" d="M32.8 41.1L206.8.9c18.5-4.3 36.9 7.2 41.1 25.7l39.5 170.9c4.3 18.5-7.2 36.9-25.7 41.1l-174 40.2c-18.5 4.3-36.9-7.2-41.1-25.7L7.1 82.2c-4.3-18.5 7.2-36.9 25.7-41.1z"/></g><g id="_Grupo_6_1_"><path class="st2" d="M116.5 195.7l-8.7 2.1 2.9 12.7 33.7-7.7 13.8 59.7 82.9-19.1-14.1-60.9-11.6 2.6-3.2-13.9L200 174l-10.3-44.6-11 2.5-6.1-26.5-70.2 16.2 6.3 27.1-36 8.3 8.2 35.4 33.1-7.7z"/><path id="_Rectángulo_2_2_" transform="rotate(-13.002 149.645 132.565)" class="st3" d="M142.6 125.5h14.1v14.1h-14.1z"/><path id="_Rectángulo_3_2_" transform="rotate(-13.002 152.67 170.425)" class="st3" d="M147.1 165.2h11.2v10.5h-11.2z"/><path id="_Rectángulo_4_2_" transform="rotate(-13.002 161.322 157.576)" class="st3" d="M155.8 152.3H167v10.5h-11.2z"/><path id="_Rectángulo_5_2_" transform="rotate(-13.002 132.374 186.267)" class="st3" d="M114.7 180.6h35.4v11.3h-35.4z"/></g><path id="_Trazado__2_" class="st4" d="M137.9 79.8l43.7-10.1 1.9 8.3 11.5-2.7 1.8 7.6 13.2-3.1 2.2 9.5 8.6-2 2.1 8.9 9.2-2.1 18.4 79.7-9.2 2.1 2.7 12-9.7 2.3 2.4 10.7-71.3 16.5-1.6-6.9 20.1-4.7-2.2-9.5 11.6-2.6-22.5-97.5-12.1 2.8-1.9-8.2-15.5 3.6z"/><path id="_Trazado_2_2_" class="st5" d="M175.4 71.2L85.7 91.9l1.9 8.2-10.5 2.4 1.8 7.6-12.1 2.8 2.2 9.5-7.8 1.8 2 8.9-8.4 1.9 18.4 79.7 8.4-1.9 2.8 12 8.9-2.1 2.5 10.8 109.4-25.3"/><path id="_Trazado_3_2_" class="st6" d="M137.9 79.8l3.4 14.6 15.5-3.6 1.9 8.2 12.1-2.8 22.5 97.5-11.6 2.6 2.2 9.5-20.1 4.7 1.6 6.9"/><path id="_Rectángulo_6_2_" transform="rotate(-13.002 98.505 159.039)" class="st7" d="M95.2 155.7h6.7v6.7h-6.7z"/><path id="_Rectángulo_7_2_" transform="rotate(-13.002 81.652 162.924)" class="st7" d="M78.3 159.6H85v6.7h-6.7z"/><path id="_Rectángulo_8_2_" transform="rotate(-13.002 155.624 118.289)" class="st7" d="M147.8 116.8h15.7v3.1h-15.7z"/><path id="_Rectángulo_9_2_" transform="rotate(-13.002 211.995 141.126)" class="st8" d="M200.5 129.6h23.1v23.1h-23.1z"/><path id="_Rectángulo_10_2_" transform="rotate(-13.002 202.138 95.81)" class="st8" d="M199.4 57.1h5.6v77.4h-5.6z"/><path id="_Rectángulo_11_2_" transform="rotate(-13.002 192.372 52.727)" class="st9" d="M186.4 46.7h12v12h-12z"/><path id="_Rectángulo_12_2_" transform="rotate(-13.002 152.396 132.716)" class="st1" d="M148 128.3h9v9h-9z"/><path id="_Rectángulo_13_2_" transform="rotate(-13.002 153.475 130.443)" class="st3" d="M152 128.9h3v3h-3z"/><path id="_Rectángulo_14_1_" transform="rotate(-13.002 151.247 133.61)" class="st3" d="M150.4 132.8h1.7v1.7h-1.7z"/><g id="_Grupo_7_1_"><path class="st0" d="M186.3 37.9H365c18.9 0 34.3 15.4 34.3 34.3v175.4c0 18.9-15.4 34.3-34.3 34.3H186.3c-18.9 0-34.3-15.4-34.3-34.3V72.2c0-18.9 15.4-34.3 34.3-34.3z" id="_Grupo_8_1_"/></g><g id="_Grupo_9_1_"><path id="_Rectángulo_15_1_" class="st1" d="M194.1 31.7h178.6c18.9 0 34.3 15.4 34.3 34.3v175.4c0 18.9-15.4 34.3-34.3 34.3H194.1c-18.9 0-34.3-15.4-34.3-34.3V66c.1-19 15.4-34.3 34.3-34.3z"/></g><g id="_Grupo_12_1_"><path class="st2" d="M240.9 201.2H232v13.1h34.5v61.3h85.1v-62.5h-11.9v-14.3h-12.5V153h-11.3v-27.2h-72v27.8H207v36.3h33.9z"/><path id="_Rectángulo_16_1_" class="st3" d="M280.4 140.1h14.1v14.1h-14.1z"/><path id="_Rectángulo_17_1_" class="st3" d="M276.3 179.4h11.2v10.5h-11.2z"/><path id="_Rectángulo_18_1_" class="st3" d="M287.6 168.9h11.2v10.5h-11.2z"/><path id="_Rectángulo_19_1_" class="st3" d="M240.8 189.9h35.5v11.3h-35.5z"/></g><path id="_Trazado_4_2_" class="st4" d="M287.8 93.1h44.9v8.4h11.8v7.8h13.6v9.8h8.9v9h9.4V210H367v12.3h-10.1v11h-73.2v-7.1h20.7v-9.8h11.8v-99.9h-12.4V108h-16z"/><path id="_Trazado_5_2_" class="st5" d="M326.3 93.1h-92v8.4h-10.8v7.8h-12.3v9.8h-8.1v9h-8.6V210h8.6v12.3h9.1v11h112.4"/><path id="_Trazado_6_2_" class="st6" d="M287.8 93.1V108h16v8.5h12.4v99.9h-11.8v9.8h-20.7v7.1"/><path id="_Rectángulo_20_1_" class="st7" d="M228.3 158.1h6.7v6.7h-6.7z"/><path id="_Rectángulo_21_1_" class="st7" d="M211 158.1h6.7v6.7H211z"/><path id="_Rectángulo_22_1_" class="st7" d="M288.7 133h15.7v3.1h-15.7z"/><path id="_Rectángulo_23_1_" class="st10" d="M334.7 157.9h23.1V181h-23.1z"/><path id="_Rectángulo_24_1_" class="st10" d="M344.1 84.4h5.6v77.4h-5.6z"/><path id="_Rectángulo_25_1_" class="st9" d="M341 72.9h12v12h-12z"/><path id="_Rectángulo_26_1_" class="st1" d="M285.6 143.4h9v9h-9z"/><path id="_Rectángulo_27_1_" class="st3" d="M290.2 144.4h3v3h-3z"/><path id="_Rectángulo_28_1_" class="st3" d="M287.9 147.6h1.7v1.7h-1.7z"/></svg>