<svg xmlns="http://www.w3.org/2000/svg" width="379.9" height="356.2" overflow="visible"><style>.st0{fill:#fff}.st1{fill:#75b843}.st2{fill:#f0f0f0}.st3{opacity:.15;fill:#1d1e1c}.st5{fill:#dbd9dc}.st6{fill:#ea5246}.st8{fill:none;stroke:#fff;stroke-width:2.9604;stroke-miterlimit:10}</style><g id="XMLID_36_"><g id="XMLID_37_"><g id="XMLID_38_"><path id="XMLID_52_" class="st0" d="M0 14.2h7.2v78.5H0z"/><path id="XMLID_51_" class="st0" d="M125.4 106.7h7.2v27.2h-7.2z"/><path id="XMLID_50_" class="st0" d="M147.3 14.2h7.2v78.5h-7.2z"/><path id="XMLID_49_" class="st0" d="M14.2 0h126v7.2h-126z"/><path id="XMLID_48_" class="st0" d="M14.2 99.7h90.2v7.2H14.2z"/><path id="XMLID_47_" class="st0" d="M140.3 7.2h7v7h-7z"/><path id="XMLID_46_" class="st0" d="M7.2 7.2h7v7h-7z"/><path id="XMLID_45_" class="st0" d="M7.2 92.7h7v7h-7z"/><path id="XMLID_44_" class="st0" d="M140.3 92.7h7v7h-7z"/><path id="XMLID_43_" class="st0" d="M118.4 119.9h7v7h-7z"/><path id="XMLID_42_" class="st0" d="M111.4 112.9h7v7h-7z"/><path id="XMLID_41_" class="st0" d="M104.4 105.9h7v7h-7z"/><path id="XMLID_40_" class="st0" d="M127.1 99.7h13.1v7h-13.1z"/></g><path class="st0" d="M31.7 38.8V27.2h7.6v1.6h-5.7v3.4h4.9v1.6h-5v3.4h5.7v1.6h-7.5zM45.4 39c-.6 0-1.1 0-1.5-.1l-1.2-.3c-.4-.1-.7-.3-1.1-.5v-1.9c.5.4 1 .7 1.6.9.6.2 1.3.3 2.1.3.7 0 1.3-.1 1.6-.4.4-.3.5-.7.5-1.2 0-.4-.1-.7-.4-1-.3-.2-.6-.5-1-.6-.4-.2-.9-.3-1.4-.5-.4-.1-.7-.3-1.1-.4s-.7-.4-1-.6c-.3-.2-.5-.5-.7-.9-.2-.4-.3-.8-.3-1.4 0-.4.1-.8.2-1.2.2-.4.4-.8.7-1.1.3-.3.7-.6 1.2-.8.5-.2 1.1-.3 1.8-.3.5 0 .9 0 1.2.1.3.1.7.1 1 .3.3.1.6.3 1 .4v1.9c-.3-.2-.6-.4-.9-.5-.3-.2-.6-.3-1-.4-.3-.1-.7-.2-1.2-.2s-.9 0-1.2.2c-.3.1-.6.3-.7.5-.2.2-.2.5-.2.8 0 .4.1.7.3 1 .2.2.5.4.9.6.4.2.8.3 1.3.5.4.1.8.3 1.3.5.4.2.8.4 1.1.6.3.2.6.6.8.9.2.4.3.8.3 1.4 0 .6-.1 1.2-.4 1.7-.3.5-.7 1-1.3 1.3s-1.3.4-2.3.4zM56.7 38.9c-1.8 0-3.2-.5-4.1-1.5-.9-1-1.4-2.5-1.4-4.5s.5-3.5 1.4-4.5c.9-1 2.3-1.5 4.1-1.5.6 0 1.2.1 1.8.2l1.8.6v1.7c-.6-.3-1.1-.6-1.7-.7-.6-.2-1.1-.2-1.7-.2-.8 0-1.6.2-2.1.5-.6.3-1 .8-1.3 1.4-.3.6-.4 1.5-.4 2.5s.1 1.9.4 2.5c.3.6.7 1.1 1.3 1.4.6.3 1.3.4 2.1.4.5 0 1.1-.1 1.6-.2.6-.2 1.1-.4 1.7-.7V38c-.3.2-.7.3-1.1.5s-.8.2-1.2.3-.8.1-1.2.1zM67.5 39c-1.1 0-2.1-.2-2.9-.7-.8-.4-1.4-1.1-1.8-2-.4-.9-.6-2-.6-3.3 0-2 .5-3.5 1.4-4.5.9-1 2.3-1.5 4-1.5 1.2 0 2.1.2 2.9.7.8.4 1.4 1.1 1.8 2 .4.9.6 2 .6 3.3 0 2-.5 3.5-1.4 4.5-.9 1-2.2 1.5-4 1.5zm0-1.7c.8 0 1.4-.1 1.9-.4.5-.3.9-.8 1.1-1.4.2-.6.4-1.5.4-2.5s-.1-1.8-.4-2.5c-.2-.6-.6-1.1-1.1-1.4-.5-.3-1.1-.4-1.9-.4-.8 0-1.4.2-1.9.5s-.9.8-1.1 1.4c-.2.6-.4 1.5-.4 2.5s.1 1.8.4 2.5c.2.6.6 1.1 1.1 1.4.5.2 1.1.3 1.9.3zM80.2 39c-1.2 0-2.2-.2-3-.6-.8-.4-1.4-1.1-1.9-2-.4-.9-.6-2-.6-3.4s.2-2.5.6-3.4c.4-.9 1.1-1.5 1.9-2 .8-.4 1.8-.6 3-.6.7 0 1.4.1 2 .2.6.1 1.3.3 1.9.6v1.8c-.6-.3-1.2-.6-1.8-.7-.6-.2-1.2-.3-1.8-.3-.8 0-1.6.2-2.1.5-.6.3-1 .8-1.3 1.4-.3.6-.4 1.5-.4 2.5s.1 1.9.4 2.5.7 1.1 1.3 1.4c.6.3 1.2.5 2 .5.4 0 .8 0 1.2-.1.4-.1.7-.2 1.1-.3v-2.8h-2.4v-1.6h4.3v5.3c-.7.3-1.4.6-2.1.8-.8.2-1.5.3-2.3.3zM87.3 38.8V27.2h7.6v1.6h-5.7v3.4h4.9v1.6h-5v3.4h5.7v1.6h-7.5zM105.1 38.8v-10h-3.8v-1.6h9.4v1.6h-3.8v10h-1.8zM117.4 39c-1.6 0-2.8-.4-3.6-1.2-.8-.8-1.3-2-1.3-3.6v-7h2v7c0 1.1.2 1.9.7 2.4.5.5 1.2.8 2.1.8.9 0 1.6-.3 2.1-.8s.7-1.3.7-2.4v-7h1.8v7c0 1.1-.2 1.9-.6 2.7-.4.7-.9 1.3-1.6 1.6-.5.3-1.3.5-2.3.5zM37.6 59.6V48H45v1.6h-5.5v3.5h4.8v1.6h-4.8v4.9h-1.9zM47.2 59.6V48h7.6v1.6h-5.7V53H54v1.6h-5V58h5.7v1.6h-7.5zM62.4 59.8c-1.8 0-3.2-.5-4.1-1.5-.9-1-1.4-2.5-1.4-4.5s.5-3.5 1.4-4.5c.9-1 2.3-1.5 4.1-1.5.6 0 1.2.1 1.8.2l1.8.6v1.7c-.6-.3-1.1-.6-1.7-.7-.6-.2-1.1-.2-1.7-.2-.8 0-1.6.2-2.1.5-.6.3-1 .8-1.3 1.4-.3.6-.4 1.5-.4 2.5s.1 1.9.4 2.5c.3.6.7 1.1 1.3 1.4.6.3 1.3.4 2.1.4.5 0 1.1-.1 1.6-.2.6-.2 1.1-.4 1.7-.7V59c-.3.2-.7.3-1.1.5s-.8.2-1.2.3h-1.2zM68.3 59.6V48h1.9v5h5.4v-5h1.9v11.6h-1.9v-4.9h-5.4v4.9h-1.9zM79.2 59.6L83.7 48h2l4.4 11.6h-2L84.2 49l.7-.1L81 59.6h-1.8zm2.2-3.1l.6-1.6h5.5l.2 1.6h-6.3zM96.7 59.6V48h4.1c1.9 0 3.3.5 4.2 1.5.9 1 1.4 2.4 1.4 4.3s-.5 3.4-1.4 4.3c-.9 1-2.3 1.5-4.2 1.5h-4.1zm2-1.6h2c1.3 0 2.3-.3 2.9-1 .6-.7.9-1.7.9-3.2 0-1.4-.3-2.5-.9-3.2-.6-.7-1.6-1-2.9-1h-2V58zM108.7 59.6V48h7.6v1.6h-5.7V53h4.9v1.6h-5V58h5.7v1.6h-7.5zM26.5 80.5V68.9h1.8l6.7 9.3-.5 1V68.9h1.8v11.6h-1.7L27.7 71l.6-.9v10.3h-1.8zM38 80.5l4.5-11.6h2L49 80.5h-2l-3.9-10.7.7-.1-3.9 10.7H38zm2.2-3.1l.6-1.6h5.5l.2 1.6h-6.3zM55.3 80.7c-1.8 0-3.2-.5-4.1-1.5-.9-1-1.4-2.5-1.4-4.5s.5-3.5 1.4-4.5c.9-1 2.3-1.5 4.1-1.5.6 0 1.2.1 1.8.2l1.8.6v1.7c-.6-.3-1.1-.6-1.7-.7s-1.1-.2-1.7-.2c-.8 0-1.6.2-2.1.5-.6.3-1 .8-1.3 1.4-.3.6-.4 1.5-.4 2.5s.1 1.9.4 2.5c.3.6.7 1.1 1.3 1.4.6.3 1.3.4 2.1.4.5 0 1.1-.1 1.6-.2s1.1-.4 1.7-.7v1.7c-.3.2-.7.3-1.1.5s-.8.2-1.2.3c-.4.1-.8.1-1.2.1zM61.2 80.5V68.9h1.9v11.6h-1.9zM65.9 80.5V68.9h2l4.2 6.1-1.1.1 4.4-6.3h2v11.6h-1.9v-10l.5.4-4.6 6.2-4.2-6 .5-.6v10.1h-1.8zM80 80.5V68.9h1.9v11.6H80zM84.6 80.5V68.9h7.6v1.6h-5.7v3.4h4.9v1.6h-5v3.4h5.7v1.6h-7.5zM94.8 80.5V68.9h1.8l6.7 9.3-.5 1V68.9h1.8v11.6h-1.7L96 71l.6-.9v10.3h-1.8zM110.2 80.5v-10h-3.8v-1.6h9.4v1.6H112v10h-1.8zM122.3 80.7c-1.1 0-2.1-.2-2.9-.7-.8-.4-1.4-1.1-1.8-2-.4-.9-.6-2-.6-3.3 0-2 .5-3.5 1.4-4.5.9-1 2.3-1.5 4-1.5 1.2 0 2.1.2 2.9.7.8.4 1.4 1.1 1.8 2 .4.9.6 2 .6 3.3 0 2-.5 3.5-1.4 4.5s-2.2 1.5-4 1.5zm0-1.6c.8 0 1.4-.1 1.9-.4.5-.3.9-.8 1.1-1.4.2-.6.4-1.5.4-2.5s-.1-1.8-.4-2.5c-.2-.6-.6-1.1-1.1-1.4-.5-.3-1.1-.4-1.9-.4-.8 0-1.4.2-1.9.5s-.9.8-1.1 1.4-.4 1.5-.4 2.5.1 1.8.4 2.5c.2.6.6 1.1 1.1 1.4.5.1 1.2.3 1.9.3z"/></g></g><g id="XMLID_1_"><path id="XMLID_35_" class="st1" d="M198.4 199.4h39.9l.1-8.3h-40z"/><g id="XMLID_28_"><path id="XMLID_34_" class="st1" d="M256.2 240.3v50.9h-21.4v-9.1h10.4V241z"/><path id="XMLID_33_" class="st1" d="M316.2 264.3h-88.6V160.7h-29.5v-11.2h7.6v-9.7h-29v-31h31.6l-.1-23.8h61.6v23.3h9.7v39.2h10.7v12.2h10.2v39.2h15.3z"/><path id="XMLID_32_" transform="rotate(-180 245.51 103.22)" class="st2" d="M239.5 97.2h12.1v12.1h-12.1z"/><path id="XMLID_31_" transform="rotate(-180 240.74 135.365)" class="st2" d="M236 130.9h9.6v9H236z"/><path id="XMLID_30_" transform="rotate(-180 250.429 126.315)" class="st2" d="M245.6 121.8h9.6v9h-9.6z"/><path id="XMLID_29_" transform="rotate(-180 220.777 144.67)" class="st2" d="M205.6 139.8h30.3v9.7h-30.3z"/></g><path id="XMLID_26_" class="st0" d="M245.8 57h38.4v7.2h10.1v6.7h11.6v8.3h7.6V87h8.1v70h-8.1v10.5h-8.6v9.5h-62.6v-6.2H260v-8.3h10.1V77h-10.6v-7.2h-13.7z"/><path id="XMLID_25_" transform="rotate(-180 197.783 115.455)" class="st3" d="M194.9 112.6h5.7v5.7h-5.7z"/><path id="XMLID_24_" transform="rotate(-180 182.985 115.455)" class="st3" d="M180.1 112.6h5.7v5.7h-5.7z"/><path id="XMLID_23_" transform="rotate(-180 253.243 92.47)" class="st3" d="M246.5 91.2h13.4v2.6h-13.4z"/><path id="XMLID_22_" opacity=".22" fill="#fff" d="M278.7 57H200v7.2h-9.2v6.7h-10.6v8.3h-6.9V87H166v70h7.3v10.5h7.9v9.5h96"/><path class="st5" d="M244.8 177h-5v-8.7h17.6V160h10.1V79.5h-10.6v-7.2h-13.6V57h5.1v10.2H262v7.3h10.6V165h-10.1v8.4h-17.7z" id="XMLID_20_"/><path id="XMLID_18_" transform="rotate(-180 295.833 122.353)" class="st5" d="M285.9 112.5h19.8v19.8h-19.8z"/><path id="XMLID_16_" transform="rotate(-180 296.331 82.678)" class="st5" d="M293.9 49.6h4.8v66.2h-4.8z"/><path id="XMLID_14_" transform="rotate(-180 296.472 44.895)" class="st6" d="M291.3 39.7h10.3V50h-10.3z"/><path id="XMLID_12_" transform="rotate(-180 247.765 103.884)" fill="#3f245e" d="M243.9 100.1h7.7v7.7h-7.7z"/><path id="XMLID_11_" transform="rotate(-180 249.108 102.199)" class="st2" d="M247.8 100.9h2.6v2.6h-2.6z"/><path id="XMLID_10_" transform="rotate(-180 246.636 104.407)" class="st2" d="M245.9 103.7h1.5v1.5h-1.5z"/><path id="XMLID_9_" class="st1" d="M292.4 240.3v50.9H271v-9.1h10.4V241z"/><path id="XMLID_8_" class="st1" d="M305.2 220.1h24v-11.3h15.5v-12.7h35.2v11.3h-13.4v11.3h-12.7v10.5h-14.1v13.4H327v14.8h-23.2z"/><path id="XMLID_7_" class="st3" d="M227.5 249.5V185h22.7v9.1h7.8v9.1h7.6V231h-9.5v7.6h-9.5v10.9z"/><g id="XMLID_3_"><path id="XMLID_6_" class="st8" d="M171.2 355.1l11.6-42.2s46.9-19.9 52.5-19.5c5.6.4 55-.5 55-.5s7.2 5.8 17.1 21l26.3 4s6.1 14.5 18.4 37.7"/><path id="XMLID_5_" class="st8" d="M233 313.8h44.1l17.1 16.9 25.7 5.4"/><path id="XMLID_4_" class="st8" d="M198.4 325l-7.7 26.1"/></g><path transform="rotate(-180 188.835 189.476)" class="st6" d="M166.8 167.4H211v44.2h-44.2z"/><path transform="rotate(-180 178.197 189.476)" class="st0" d="M175.6 167.4h5.2v44.2h-5.2z"/><path transform="rotate(-180 188.835 177.916)" class="st0" d="M166.8 175.4H211v5.1h-44.2z"/><path class="st0" d="M170.8 157h4.8v10.4h-4.8zM179.7 157h4.8v10.4h-4.8z"/><path id="XMLID_2_" class="st1" d="M202.7 211.6h32.1l.1-8.4h-32.2z"/></g></svg>