<svg xmlns="http://www.w3.org/2000/svg" width="390.3" height="560.7"><style>.st0{fill:#fff}.st1{fill:none;stroke:#fff;stroke-width:3.4654;stroke-miterlimit:10}.st2{fill:#75b843}.st3{fill:#f1f1f1}.st6{fill:#7f7f7f}.st9{fill:#8dbb4e}.st10{opacity:.15;fill:#1d1e1c}.st11{fill:#3f245e}</style><g id="XMLID_56_"><g id="XMLID_57_"><path id="XMLID_71_" class="st0" d="M4.9 14.2h7.2v78.4H4.9z"/><path id="XMLID_70_" class="st0" d="M130.2 106.6h7.2v27.2h-7.2z"/><path id="XMLID_69_" class="st0" d="M152 14.2h7.2v78.4H152z"/><path id="XMLID_68_" class="st0" d="M19.1 0H145v7.2H19.1z"/><path id="XMLID_67_" class="st0" d="M19.1 99.6h90.1v7.2H19.1z"/><path id="XMLID_66_" class="st0" d="M145 7.2h7v7h-7z"/><path id="XMLID_65_" class="st0" d="M12.1 7.2h7v7h-7z"/><path id="XMLID_64_" class="st0" d="M12.1 92.6h7v7h-7z"/><path id="XMLID_63_" class="st0" d="M145 92.6h7v7h-7z"/><path id="XMLID_62_" class="st0" d="M123.2 119.8h7v7h-7z"/><path id="XMLID_61_" class="st0" d="M116.2 112.8h7v7h-7z"/><path id="XMLID_60_" class="st0" d="M109.2 105.8h7v7h-7z"/><path id="XMLID_59_" class="st0" d="M131.9 99.6H145v7h-13.1z"/></g><path class="st0" d="M54.2 43V25.7H57l10 13.9-.8 1.6V25.7h2.7V43h-2.6L56.1 28.9l.9-1.3V43h-2.8zM80.4 43.3c-1.7 0-3.2-.3-4.4-1-1.2-.7-2.1-1.6-2.7-3s-.9-3-.9-5c0-3 .7-5.2 2.1-6.7 1.4-1.5 3.4-2.3 6-2.3 1.7 0 3.2.3 4.4 1 1.2.7 2.1 1.7 2.7 3 .6 1.3.9 3 .9 5 0 2.9-.7 5.2-2.1 6.7-1.3 1.6-3.3 2.3-6 2.3zm0-2.4c1.2 0 2.1-.2 2.9-.7.8-.4 1.3-1.1 1.7-2.1.4-1 .6-2.2.6-3.7s-.2-2.8-.6-3.7c-.4-.9-.9-1.6-1.7-2.1-.8-.4-1.7-.7-2.9-.7-1.1 0-2.1.2-2.9.7-.8.5-1.3 1.1-1.7 2.1-.4.9-.6 2.2-.6 3.7s.2 2.8.6 3.7c.4 1 .9 1.7 1.7 2.1.8.4 1.8.7 2.9.7zM97.2 43.3c-.9 0-1.6 0-2.3-.1-.7-.1-1.3-.2-1.8-.5s-1.1-.4-1.6-.7v-2.9c.7.5 1.5 1 2.5 1.3s2 .5 3.1.5 1.9-.2 2.4-.7c.5-.4.8-1.1.8-1.8 0-.6-.2-1.1-.6-1.5s-.9-.7-1.5-.9c-.6-.3-1.3-.5-2.1-.8-.6-.2-1.1-.4-1.6-.7-.5-.2-1-.5-1.5-.9-.4-.4-.8-.8-1-1.4-.3-.6-.4-1.2-.4-2.1 0-.6.1-1.2.3-1.7.2-.6.6-1.1 1-1.6s1.1-.9 1.8-1.1c.8-.3 1.7-.4 2.7-.4.7 0 1.3 0 1.8.1s1 .2 1.5.4 1 .4 1.5.7v2.8c-.4-.3-.9-.5-1.3-.8-.4-.2-.9-.4-1.4-.6-.5-.2-1.1-.2-1.7-.3-.7 0-1.3.1-1.8.3-.5.2-.8.5-1.1.8s-.4.7-.4 1.2c0 .6.2 1.1.5 1.4.3.4.7.7 1.3.9.6.2 1.2.5 1.9.7.6.2 1.3.4 1.9.7.6.3 1.1.6 1.6.9.5.4.8.8 1.1 1.4.3.6.4 1.2.4 2.1 0 .9-.2 1.7-.6 2.5-.4.8-1 1.4-1.9 1.9-.9.7-2.1.9-3.5.9zM22.7 68v6.2h-2.9V56.9h6.9c2 0 3.5.5 4.6 1.4 1.1.9 1.6 2.3 1.6 4.1 0 1.8-.5 3.2-1.6 4.2s-2.6 1.5-4.6 1.5h-4zm0-2.4h3.6c.7 0 1.4-.1 1.8-.2.5-.2.8-.4 1.1-.7.3-.3.4-.6.5-1 .1-.4.1-.7.1-1.1s0-.8-.1-1.2c-.1-.4-.3-.7-.5-1-.3-.3-.6-.5-1.1-.7-.5-.2-1.1-.3-1.8-.3h-3.6v6.2zM36.4 74.2V56.9h11.4v2.4h-8.5v5h7.4v2.4h-7.4v5h8.5v2.4H36.4zM51.6 74.2V56.9h7.7c1.8 0 3.2.4 4.1 1.3 1 .9 1.4 2.2 1.4 3.9 0 .9-.2 1.7-.5 2.5-.4.8-.9 1.4-1.6 1.9-.7.5-1.5.8-2.5.8l.3-.9 5.1 7.8H62l-4.8-7.8 1.3 1.2h-4.2v6.6h-2.7zm2.9-8.9h4c1.1 0 2-.3 2.6-.8.6-.5.8-1.3.8-2.3 0-1-.2-1.7-.7-2.2-.4-.5-1.2-.8-2.3-.8h-4.5v6.1zM68.9 74.2V56.9H75c2.8 0 4.9.7 6.3 2.2s2.1 3.6 2.1 6.5-.7 5-2.1 6.5c-1.4 1.5-3.5 2.2-6.3 2.2h-6.1zm2.8-2.4h2.9c1.9 0 3.4-.5 4.3-1.5.9-1 1.4-2.6 1.4-4.8 0-2.2-.5-3.8-1.4-4.8-.9-1-2.3-1.5-4.3-1.5h-2.9v12.6zM86.7 74.2V56.9h2.9v17.3h-2.9zM93.7 74.2V56.9h3l6.2 9.2-1.7.2 6.5-9.4h2.9v17.3h-2.9V59.3l.8.5L102 69l-6.3-9 .8-.8v15.1h-2.8zM122.2 74.5c-1.7 0-3.2-.3-4.4-1-1.2-.7-2.1-1.6-2.7-3s-.9-3-.9-5c0-3 .7-5.2 2.1-6.7 1.4-1.5 3.4-2.3 6-2.3 1.7 0 3.2.3 4.4 1 1.2.7 2.1 1.7 2.7 3 .6 1.3.9 3 .9 5 0 2.9-.7 5.2-2.1 6.7-1.4 1.6-3.4 2.3-6 2.3zm0-2.4c1.2 0 2.1-.2 2.9-.7.8-.4 1.3-1.1 1.7-2.1.4-1 .6-2.2.6-3.7s-.2-2.8-.6-3.7c-.4-.9-.9-1.6-1.7-2.1-.8-.4-1.7-.7-2.9-.7-1.1 0-2.1.2-2.9.7-.8.5-1.3 1.1-1.7 2.1-.4.9-.6 2.2-.6 3.7s.2 2.8.6 3.7c.4 1 .9 1.7 1.7 2.1.8.4 1.7.7 2.9.7zM139 74.5c-.9 0-1.6 0-2.3-.1-.7-.1-1.3-.2-1.8-.5s-1.1-.5-1.7-.8v-2.9c.7.5 1.5 1 2.5 1.3s2 .5 3.1.5 1.9-.2 2.4-.7c.5-.4.8-1.1.8-1.8 0-.6-.2-1.1-.6-1.5s-.9-.7-1.5-.9c-.6-.3-1.3-.5-2.1-.8-.6-.2-1.1-.4-1.6-.7-.5-.2-1-.5-1.5-.9-.4-.4-.8-.8-1-1.4-.3-.6-.4-1.2-.4-2.1 0-.6.1-1.2.3-1.7.2-.6.6-1.1 1-1.6s1.1-.9 1.8-1.1c.8-.3 1.7-.4 2.7-.4.7 0 1.3 0 1.8.1s1 .2 1.5.4 1 .4 1.5.7v2.8c-.4-.3-.9-.5-1.3-.8-.4-.2-.9-.4-1.4-.6-.5-.2-1.1-.2-1.7-.3-.7 0-1.3.1-1.8.3-.5.2-.8.5-1.1.8s-.4.7-.4 1.2c0 .6.2 1.1.5 1.4.3.4.7.7 1.3.9.6.2 1.2.5 1.9.7.6.2 1.3.4 1.9.7.6.3 1.1.6 1.6.9.5.4.8.8 1.1 1.4.3.6.4 1.2.4 2.1 0 .9-.2 1.7-.6 2.5-.4.8-1 1.4-1.9 1.9-.9.8-2 1-3.4 1z"/></g><path id="XMLID_55_" class="st1" d="M340.9 536.4v-20.9h-96.3v-20.9H124.1v24.1H43.2v18.9"/><path id="XMLID_54_" class="st1" d="M27 542.8h334.2"/><path id="XMLID_53_" class="st1" d="M0 558.9h390.3"/><path id="XMLID_52_" class="st2" d="M147.8 391.4H113v-16.3H90.6v-18.4H39.5V373h19.4v16.4h18.4v15.3h20.4v19.4h18.4v21.5h33.7z"/><path id="XMLID_50_" class="st2" d="M134.2 325.3h107.1v126.8H134.2z"/><path id="XMLID_49_" class="st2" d="M123.5 195.5h128.3v129.9H123.5z"/><path class="st3" d="M157 223l-7.1 3v14.5h17.5V223z"/><path id="XMLID_46_" fill="#6a8a3c" d="M224.6 364.8v-12.1h-9.5v-12.2h-53.8v12.2h-9.5v12.1h-9.2v37h11.5v10h11.5v14.5h45.2v-14.5h11.5v-10h11.5v-37z"/><path id="XMLID_44_" class="st2" d="M160.6 452.1h13.6v40.4h-13.6z"/><path id="XMLID_42_" class="st2" d="M204.7 452.1h13.6v40.4h-13.6z"/><path id="XMLID_40_" class="st2" d="M156.2 477.9h22.5v14.6h-22.5z"/><path id="XMLID_38_" class="st2" d="M200.2 477.9h22.5v14.6h-22.5z"/><g id="XMLID_33_"><g id="XMLID_36_"><path id="XMLID_37_" class="st3" d="M219.2 283.2h-66.6v-10.8h70.2v10.8h-3.6"/></g><path id="XMLID_35_" class="st3" d="M222.8 283.2h12.9v11.4h-12.9z"/><path id="XMLID_34_" class="st3" d="M139.4 283.2h13.1v11.4h-13.1z"/></g><path id="XMLID_32_" opacity=".22" fill="#fff" d="M111.3 168.7h152v157.9h-152z"/><g id="XMLID_23_"><path id="XMLID_31_" class="st0" d="M111.3 151.6h156.2v20.5H111.3z"/><path id="XMLID_30_" class="st0" d="M111.3 310.7h22.4v20.5h-22.4z"/><path id="XMLID_29_" class="st0" d="M245.1 310.7h22.4v20.5h-22.4z"/><path id="XMLID_28_" class="st0" d="M111.3 170.6h22.4v20.5h-22.4z"/><path id="XMLID_27_" class="st0" d="M245.1 170.6h22.4v20.5h-22.4z"/><path id="XMLID_26_" class="st0" d="M89.2 191.1h22.4v120H89.2z"/><path id="XMLID_25_" transform="rotate(-180 274.813 251.093)" class="st0" d="M263.6 191.1H286v120h-22.4z"/><path id="XMLID_24_" transform="rotate(-90 192.139 335.681)" class="st0" d="M181.9 271.5h20.5v128.3h-20.5z"/></g><path id="XMLID_22_" class="st6" d="M78.4 238.2h11.7V264H78.4z"/><path id="XMLID_21_" class="st6" d="M86 144.1h4.2v94.2H86z"/><path id="XMLID_18_" fill="#dd5043" d="M80.6 129.8h14.9v14.9H80.6z"/><path id="XMLID_17_" fill="none" stroke="#7f7f7f" stroke-width="7.335" stroke-miterlimit="10" d="M133.7 191.1v-20.5h111.4v20.5h18.5v120h-18.5v14.5H134.2v-14.9h-22.6V191.1z"/><path id="XMLID_16_" class="st9" d="M167.4 364.9h11.2v31h-11.2z"/><path id="XMLID_15_" class="st9" d="M202.1 364.9h11.2v31h-11.2z"/><path id="XMLID_13_" transform="rotate(-23.24 152.107 222.982)" class="st10" d="M142.4 221.1h19.5v3.8h-19.5z"/><path id="XMLID_11_" transform="rotate(25.133 220.384 222.945)" class="st10" d="M210.7 221.1h19.5v3.8h-19.5z"/><path class="st3" d="M215.9 223h-9.8v17.5h17.5v-14z"/><path id="XMLID_9_" class="st10" d="M173.2 251.1h8.3v8.3h-8.3z"/><path id="XMLID_7_" class="st10" d="M194.7 251.1h8.3v8.3h-8.3z"/><path id="XMLID_6_" class="st11" d="M152.1 229.3h11.1v11.1h-11.1z"/><path id="XMLID_5_" class="st3" d="M153.8 230.6h3.8v3.8h-3.8z"/><path id="XMLID_4_" class="st3" d="M158.2 234.6h2.2v2.2h-2.2z"/><path id="XMLID_3_" class="st11" d="M208.4 229.3h11.1v11.1h-11.1z"/><path id="XMLID_2_" class="st3" d="M210.1 230.6h3.8v3.8h-3.8z"/><path id="XMLID_1_" class="st3" d="M214.5 234.6h2.2v2.2h-2.2z"/></svg>