<svg xmlns="http://www.w3.org/2000/svg" width="379.5" height="461.2"><style>.st0{fill:#75b843}.st1{fill:#fff}.st2{fill:#f0f0f0}.st3{opacity:.15;fill:#1d1e1c}.st5{fill:#dbd9dc}.st6{fill:#ea5246}.st8{fill:none;stroke:#fff;stroke-width:2.9449;stroke-miterlimit:10}</style><g id="XMLID_31_"><path id="XMLID_65_" class="st0" d="M199 299.1h39.7l.1-8.3H199z"/><path class="st1" d="M209.6 312.1l-5.2 1-23.6-123.9 12.7-2.4-4-21 9.9-1.9-10.7-56.2 5.2-1 11.7 61.4-9.9 1.9 4 21-12.7 2.4zM220.6 313.1h-5.3V204.2h13v-21.4h10.1v-57.2h5.2v62.5h-10v21.4h-13z"/><g id="XMLID_58_"><path id="XMLID_64_" class="st0" d="M256.4 345.8v50.7h-21.2v-9h10.3v-41z"/><path id="XMLID_63_" class="st0" d="M316.1 369.7H228V266.6h-29.4v-11.1h7.6v-9.6h-28.8V215h31.4v-23.6H270v23.1h9.6v39h10.7v12.1h10.1v39h15.2z"/><path id="XMLID_62_" transform="rotate(-180 245.834 209.47)" class="st2" d="M239.8 203.5h12v12h-12z"/><path id="XMLID_61_" transform="rotate(-180 241.09 241.446)" class="st2" d="M236.3 237h9.5v9h-9.5z"/><path id="XMLID_60_" transform="rotate(-180 250.727 232.444)" class="st2" d="M246 228h9.5v9H246z"/><path id="XMLID_59_" transform="rotate(-180 221.23 250.702)" class="st2" d="M206.2 245.9h30.2v9.6h-30.2z"/></g><path id="XMLID_56_" class="st1" d="M246.1 163.5h38.2v7.2h10.1v6.6h11.5v8.3h7.6v7.7h8v69.6h-8v10.5h-8.6v9.4h-62.3v-6.1h17.6v-8.2h10.1v-85.1h-10.6v-7.2h-13.6z"/><path id="XMLID_55_" transform="rotate(-180 198.356 221.64)" class="st3" d="M195.5 218.8h5.7v5.7h-5.7z"/><path id="XMLID_54_" transform="rotate(-180 183.636 221.64)" class="st3" d="M180.8 218.8h5.7v5.7h-5.7z"/><path id="XMLID_53_" transform="rotate(-180 253.526 198.777)" class="st3" d="M246.9 197.5h13.3v2.6h-13.3z"/><path id="XMLID_52_" opacity=".22" fill="#fff" d="M278.9 163.5h-78.3v7.2h-9.2v6.6h-10.5v8.3H174v7.7h-7.3v69.6h7.3v10.5h7.8v9.4h95.6"/><path class="st5" d="M245.1 282.8h-5v-8.6h17.6v-8.3h10v-80h-10.5v-7.2h-13.6v-15.2h5.1v10.2h13.5v7.2h10.6V271h-10.1v8.3h-17.6z" id="XMLID_50_"/><path id="XMLID_48_" transform="rotate(-180 295.893 228.503)" class="st5" d="M286.1 218.7h19.7v19.7h-19.7z"/><path id="XMLID_46_" transform="rotate(-180 296.389 189.036)" class="st5" d="M294 156.1h4.8V222H294z"/><path id="XMLID_44_" transform="rotate(-180 296.529 151.45)" class="st6" d="M291.4 146.3h10.2v10.2h-10.2z"/><path id="XMLID_42_" transform="rotate(-180 248.077 210.13)" fill="#3f245e" d="M244.3 206.3h7.6v7.6h-7.6z"/><path id="XMLID_41_" transform="rotate(-180 249.413 208.454)" class="st2" d="M248.1 207.2h2.6v2.6h-2.6z"/><path id="XMLID_40_" transform="rotate(-180 246.954 210.65)" class="st2" d="M246.2 209.9h1.5v1.5h-1.5z"/><path id="XMLID_39_" class="st0" d="M292.5 345.8v50.7h-21.3v-9h10.3v-41z"/><path id="XMLID_38_" class="st0" d="M305.2 325.7H329v-11.2h15.5v-12.6h35v11.2h-13.3v11.2h-12.6v10.5h-14v13.3h-12.7v14.7h-23.1z"/><path id="XMLID_37_" class="st3" d="M228 355v-64.2h22.5v9.1h7.8v9h7.5v27.7h-9.4v7.6h-9.5V355z"/><path id="XMLID_36_" class="st0" d="M203.2 317.2h31.9l.1-8.2h-32z"/><g id="XMLID_32_"><path id="XMLID_35_" class="st8" d="M172 460l11.6-42s46.7-19.8 52.2-19.4 54.7-.5 54.7-.5 7.1 5.7 17 20.9l26.1 4s6 14.5 18.3 37.5"/><path id="XMLID_34_" class="st8" d="M233.4 419h43.8l17 16.7 25.6 5.5"/><path id="XMLID_33_" class="st8" d="M199 430.1l-7.7 25.9"/></g><path d="M223.8 25.4l-7.7 1.5-3-15.7-6.6 1.2-1.2-6.3-7.7 1.5-1.3-7.6L144 10l1.4 7.6-8.1 1.5 1.2 6.3-13.9 2.6 4.4 22.9-8.1 1.5 7.1 37.1 8.1-1.5 2.7 14.3 8.1-1.5 1.5 7.7 8.1-1.5 1.6 8.5 12.7-2.4 1.2 6.4 37.3-7.1-1.5-7.7 8.2-1.6-1.4-7.2 7.7-1.5-2.9-14.4 6.6-1.2-3-15.7 7.7-1.5-6.9-36.2z" fill="#d1066a"/><path class="st6" d="M288.3 51.3h-7.8v-16h-6.7v-6.4H266v-7.7h-53.3v7.7h-8.2v6.4h-14.1v23.3h-8.2v37.8h8.2V111h8.2v7.9h8.2v8.7h13v6.5h37.9v-7.8h8.3V119h7.8v-14.7h6.7V88.2h7.8V51.3z"/><path class="st1" d="M265.8 64.1h5.5v23.7h-5.5z"/><path transform="rotate(-90 264.23 87.81)" class="st1" d="M261.5 83.5h5.5v8.6h-5.5z"/><path transform="rotate(-90 259.952 93.269)" class="st1" d="M257.2 89h5.5v8.6h-5.5z"/><path class="st1" d="M252.8 96h5.5v8.6h-5.5zM243.6 110.4h6.8v6.8h-6.8z"/></g><g id="XMLID_1_"><g id="XMLID_2_"><g id="XMLID_3_"><path id="XMLID_17_" class="st1" d="M0 120.2h7.2v78.5H0z"/><path id="XMLID_16_" class="st1" d="M125.4 212.7h7.2v27.2h-7.2z"/><path id="XMLID_15_" class="st1" d="M147.3 120.2h7.2v78.5h-7.2z"/><path id="XMLID_14_" class="st1" d="M14.2 105.9h126v7.2h-126z"/><path id="XMLID_13_" class="st1" d="M14.2 205.6h90.2v7.2H14.2z"/><path id="XMLID_12_" class="st1" d="M140.3 113.2h7v7h-7z"/><path id="XMLID_11_" class="st1" d="M7.2 113.2h7v7h-7z"/><path id="XMLID_10_" class="st1" d="M7.2 198.6h7v7h-7z"/><path id="XMLID_9_" class="st1" d="M140.3 198.6h7v7h-7z"/><path id="XMLID_8_" class="st1" d="M118.4 225.9h7v7h-7z"/><path id="XMLID_7_" class="st1" d="M111.4 218.8h7v7h-7z"/><path id="XMLID_6_" class="st1" d="M104.4 211.8h7v7h-7z"/><path id="XMLID_5_" class="st1" d="M127.1 205.6h13.1v7h-13.1z"/></g><path class="st1" d="M31.7 144.7v-11.6h7.6v1.6h-5.7v3.4h4.9v1.6h-5v3.4h5.7v1.6h-7.5zM45.4 144.9c-.6 0-1.1 0-1.5-.1l-1.2-.3c-.4-.1-.7-.3-1.1-.5v-1.9c.5.4 1 .7 1.6.9.6.2 1.3.3 2.1.3.7 0 1.3-.1 1.6-.4.4-.3.5-.7.5-1.2 0-.4-.1-.7-.4-1-.3-.2-.6-.5-1-.6-.4-.2-.9-.3-1.4-.5-.4-.1-.7-.3-1.1-.4-.4-.2-.7-.4-1-.6-.3-.2-.5-.5-.7-.9-.2-.4-.3-.8-.3-1.4 0-.4.1-.8.2-1.2.2-.4.4-.8.7-1.1.3-.3.7-.6 1.2-.8.5-.2 1.1-.3 1.8-.3.5 0 .9 0 1.2.1.3.1.7.1 1 .3.3.1.6.3 1 .4v1.9c-.3-.2-.6-.4-.9-.5-.3-.2-.6-.3-1-.4-.3-.1-.7-.2-1.2-.2s-.9 0-1.2.2c-.3.1-.6.3-.7.5-.2.2-.2.5-.2.8 0 .4.1.7.3 1 .2.2.5.4.9.6.4.2.8.3 1.3.5.4.1.8.3 1.3.5.4.2.8.4 1.1.6.3.2.6.6.8.9.2.4.3.8.3 1.4 0 .6-.1 1.2-.4 1.7-.3.5-.7 1-1.3 1.3s-1.3.4-2.3.4zM56.7 144.9c-1.8 0-3.2-.5-4.1-1.5-.9-1-1.4-2.5-1.4-4.5s.5-3.5 1.4-4.5c.9-1 2.3-1.5 4.1-1.5.6 0 1.2.1 1.8.2l1.8.6v1.7c-.6-.3-1.1-.6-1.7-.7-.6-.2-1.1-.2-1.7-.2-.8 0-1.6.2-2.1.5-.6.3-1 .8-1.3 1.4-.3.6-.4 1.5-.4 2.5s.1 1.9.4 2.5c.3.6.7 1.1 1.3 1.4.6.3 1.3.4 2.1.4.5 0 1.1-.1 1.6-.2.6-.2 1.1-.4 1.7-.7v1.7c-.3.2-.7.3-1.1.5l-1.2.3c-.4.1-.8.1-1.2.1zM67.5 144.9c-1.1 0-2.1-.2-2.9-.7-.8-.4-1.4-1.1-1.8-2-.4-.9-.6-2-.6-3.3 0-2 .5-3.5 1.4-4.5.9-1 2.3-1.5 4-1.5 1.2 0 2.1.2 2.9.7.8.4 1.4 1.1 1.8 2 .4.9.6 2 .6 3.3 0 2-.5 3.5-1.4 4.5-.9 1-2.2 1.5-4 1.5zm0-1.7c.8 0 1.4-.1 1.9-.4.5-.3.9-.8 1.1-1.4.2-.6.4-1.5.4-2.5s-.1-1.8-.4-2.5c-.2-.6-.6-1.1-1.1-1.4-.5-.3-1.1-.4-1.9-.4-.8 0-1.4.2-1.9.5s-.9.8-1.1 1.4c-.2.6-.4 1.5-.4 2.5s.1 1.8.4 2.5c.2.6.6 1.1 1.1 1.4.5.2 1.1.3 1.9.3zM80.2 144.9c-1.2 0-2.2-.2-3-.6-.8-.4-1.4-1.1-1.9-2-.4-.9-.6-2-.6-3.4s.2-2.5.6-3.4c.4-.9 1.1-1.5 1.9-2 .8-.4 1.8-.6 3-.6.7 0 1.4.1 2 .2.6.1 1.3.3 1.9.6v1.8c-.6-.3-1.2-.6-1.8-.7-.6-.2-1.2-.3-1.8-.3-.8 0-1.6.2-2.1.5-.6.3-1 .8-1.3 1.4-.3.6-.4 1.5-.4 2.5s.1 1.9.4 2.5.7 1.1 1.3 1.4c.6.3 1.2.5 2 .5.4 0 .8 0 1.2-.1.4-.1.7-.2 1.1-.3v-2.8h-2.4v-1.6h4.3v5.3c-.7.3-1.4.6-2.1.8-.8.2-1.5.3-2.3.3zM87.3 144.7v-11.6h7.6v1.6h-5.7v3.4h4.9v1.6h-5v3.4h5.7v1.6h-7.5zM105.1 144.7v-10h-3.8v-1.6h9.4v1.6h-3.8v10h-1.8zM117.4 144.9c-1.6 0-2.8-.4-3.6-1.2-.8-.8-1.3-2-1.3-3.6v-7h2v7c0 1.1.2 1.9.7 2.4.5.5 1.2.8 2.1.8.9 0 1.6-.3 2.1-.8s.7-1.3.7-2.4v-7h1.8v7c0 1.1-.2 1.9-.6 2.7s-.9 1.3-1.6 1.6c-.5.4-1.3.5-2.3.5zM37.6 165.6V154H45v1.6h-5.5v3.5h4.8v1.6h-4.8v4.9h-1.9zM47.2 165.6V154h7.6v1.6h-5.7v3.4H54v1.6h-5v3.4h5.7v1.6h-7.5zM62.4 165.7c-1.8 0-3.2-.5-4.1-1.5-.9-1-1.4-2.5-1.4-4.5s.5-3.5 1.4-4.5c.9-1 2.3-1.5 4.1-1.5.6 0 1.2.1 1.8.2l1.8.6v1.7c-.6-.3-1.1-.6-1.7-.7-.6-.2-1.1-.2-1.7-.2-.8 0-1.6.2-2.1.5-.6.3-1 .8-1.3 1.4-.3.6-.4 1.5-.4 2.5s.1 1.9.4 2.5c.3.6.7 1.1 1.3 1.4.6.3 1.3.4 2.1.4.5 0 1.1-.1 1.6-.2.6-.2 1.1-.4 1.7-.7v1.7c-.3.2-.7.3-1.1.5l-1.2.3c-.4.1-.8.1-1.2.1zM68.3 165.6V154h1.9v5h5.4v-5h1.9v11.6h-1.9v-4.9h-5.4v4.9h-1.9zM79.2 165.6l4.5-11.6h2l4.4 11.6h-2l-3.9-10.7.7-.1-3.9 10.7h-1.8zm2.2-3.2l.6-1.6h5.5l.2 1.6h-6.3zM96.7 165.6V154h4.1c1.9 0 3.3.5 4.2 1.5.9 1 1.4 2.4 1.4 4.3s-.5 3.4-1.4 4.3c-.9 1-2.3 1.5-4.2 1.5h-4.1zm2-1.6h2c1.3 0 2.3-.3 2.9-1 .6-.7.9-1.7.9-3.2 0-1.4-.3-2.5-.9-3.2-.6-.7-1.6-1-2.9-1h-2v8.4zM108.7 165.6V154h7.6v1.6h-5.7v3.4h4.9v1.6h-5v3.4h5.7v1.6h-7.5zM26.5 186.4v-11.6h1.8l6.7 9.3-.5 1v-10.3h1.8v11.6h-1.7l-6.9-9.5.6-.9v10.3h-1.8zM38 186.4l4.5-11.6h2l4.4 11.6h-2L43 175.7l.7-.1-3.9 10.7H38zm2.2-3.1l.6-1.6h5.5l.2 1.6h-6.3zM55.3 186.6c-1.8 0-3.2-.5-4.1-1.5-.9-1-1.4-2.5-1.4-4.5s.5-3.5 1.4-4.5c.9-1 2.3-1.5 4.1-1.5.6 0 1.2.1 1.8.2l1.8.6v1.7c-.6-.3-1.1-.6-1.7-.7-.6-.2-1.1-.2-1.7-.2-.8 0-1.6.2-2.1.5-.6.3-1 .8-1.3 1.4-.3.6-.4 1.5-.4 2.5s.1 1.9.4 2.5c.3.6.7 1.1 1.3 1.4.6.3 1.3.4 2.1.4.5 0 1.1-.1 1.6-.2.6-.2 1.1-.4 1.7-.7v1.7c-.3.2-.7.3-1.1.5l-1.2.3c-.4.1-.8.1-1.2.1zM61.2 186.4v-11.6h1.9v11.6h-1.9zM65.9 186.4v-11.6h2L72 181l-1.1.1 4.4-6.3h2v11.6h-1.9v-10l.5.4-4.4 6.1-4.2-6.1.5-.6v10.1h-1.9zM80 186.4v-11.6h1.9v11.6H80zM84.6 186.4v-11.6h7.6v1.6h-5.7v3.4h4.9v1.6h-5v3.4h5.7v1.6h-7.5zM94.8 186.4v-11.6h1.8l6.7 9.3-.5 1v-10.3h1.8v11.6h-1.7l-6.9-9.5.6-.9v10.3h-1.8zM110.2 186.4v-10h-3.8v-1.6h9.4v1.6H112v10h-1.8zM122.3 186.6c-1.1 0-2.1-.2-2.9-.7-.8-.4-1.4-1.1-1.8-2-.4-.9-.6-2-.6-3.3 0-2 .5-3.5 1.4-4.5.9-1 2.3-1.5 4-1.5 1.2 0 2.1.2 2.9.7.8.4 1.4 1.1 1.8 2 .4.9.6 2 .6 3.3 0 2-.5 3.5-1.4 4.5-.9 1-2.2 1.5-4 1.5zm0-1.6c.8 0 1.4-.1 1.9-.4.5-.3.9-.8 1.1-1.4.2-.6.4-1.5.4-2.5s-.1-1.8-.4-2.5c-.2-.6-.6-1.1-1.1-1.4-.5-.3-1.1-.4-1.9-.4-.8 0-1.4.2-1.9.5s-.9.8-1.1 1.4-.4 1.5-.4 2.5.1 1.8.4 2.5c.2.6.6 1.1 1.1 1.4.5.1 1.2.3 1.9.3z"/></g></g></svg>