<svg xmlns="http://www.w3.org/2000/svg" viewBox="0 0 369.71 588.3"><defs><style>.cls-1{fill:#76bd43;}.cls-2{fill:#588c32;}.cls-3{fill:#f2f2f2;}.cls-4,.cls-5{fill:#fff;}.cls-4{opacity:0.22;}.cls-6{fill:gray;}.cls-7{fill:#ff4f40;}.cls-8{fill:none;stroke:gray;stroke-miterlimit:10;stroke-width:9.55px;}</style></defs><title>t-rex-memorama</title><g id="Capa_2" data-name="Capa 2"><g id="Capa_1-2" data-name="Capa 1"><g id="_Grupo_" data-name="&lt;Grupo&gt;"><polygon id="_Trazado_" data-name="&lt;Trazado&gt;" class="cls-1" points="141.03 509.27 95.79 509.27 95.79 487.98 66.52 487.98 66.52 464.04 0 464.04 0 485.32 25.28 485.32 25.28 506.61 49.23 506.61 49.23 526.57 75.83 526.57 75.83 551.85 99.78 551.85 99.78 579.78 143.69 579.78 141.03 509.27"/><rect id="_Rectángulo_" data-name="&lt;Rectángulo&gt;" class="cls-1" x="123.4" y="423.2" width="139.51" height="165.1"/><rect id="_Rectángulo_2" data-name="&lt;Rectángulo&gt;" class="cls-1" x="109.36" y="254.1" width="167.04" height="169.15"/><polygon id="_Trazado_2" data-name="&lt;Trazado&gt;" class="cls-2" points="241.1 474.54 241.1 458.78 228.66 458.78 228.66 443.02 194.39 443.02 192.92 443.02 158.65 443.02 158.65 458.78 146.21 458.78 146.21 474.54 134.3 474.54 134.3 522.74 149.27 522.74 149.27 535.84 164.22 535.84 164.22 554.68 192.92 554.73 192.92 554.74 193.66 554.73 194.39 554.74 194.39 554.73 223.09 554.68 223.09 535.84 238.04 535.84 238.04 522.74 253.01 522.74 253.01 474.54 241.1 474.54"/><g id="_Grupo_2" data-name="&lt;Grupo&gt;"><g id="_Grupo_3" data-name="&lt;Grupo&gt;"><polyline id="_Trazado_3" data-name="&lt;Trazado&gt;" class="cls-3" points="234.03 382.86 147.25 382.86 147.25 368.72 238.75 368.72 238.75 382.86 234.03 382.86"/></g><rect id="_Rectángulo_3" data-name="&lt;Rectángulo&gt;" class="cls-3" x="238.75" y="353.86" width="16.83" height="14.86"/><rect id="_Rectángulo_4" data-name="&lt;Rectángulo&gt;" class="cls-3" x="130.18" y="353.86" width="17.06" height="14.86"/><rect id="_Rectángulo_5" data-name="&lt;Rectángulo&gt;" class="cls-3" x="113.12" y="339" width="17.06" height="14.86"/><rect id="_Rectángulo_6" data-name="&lt;Rectángulo&gt;" class="cls-3" x="255.57" y="339" width="17.06" height="14.86"/></g><rect id="_Rectángulo_7" data-name="&lt;Rectángulo&gt;" class="cls-4" x="93.55" y="219.2" width="197.89" height="205.64"/><g id="_Grupo_4" data-name="&lt;Grupo&gt;"><rect id="_Rectángulo_8" data-name="&lt;Rectángulo&gt;" class="cls-5" x="93.55" y="196.9" width="203.41" height="26.7"/><rect id="_Rectángulo_9" data-name="&lt;Rectángulo&gt;" class="cls-5" x="93.55" y="404.16" width="29.21" height="26.7"/><rect id="_Rectángulo_10" data-name="&lt;Rectángulo&gt;" class="cls-5" x="267.75" y="404.16" width="29.21" height="26.7"/><rect id="_Rectángulo_11" data-name="&lt;Rectángulo&gt;" class="cls-5" x="93.55" y="221.72" width="29.21" height="26.7"/><rect id="_Rectángulo_12" data-name="&lt;Rectángulo&gt;" class="cls-5" x="267.75" y="221.72" width="29.21" height="26.7"/><rect id="_Rectángulo_13" data-name="&lt;Rectángulo&gt;" class="cls-5" x="64.69" y="248.42" width="29.21" height="156.21"/><rect id="_Rectángulo_14" data-name="&lt;Rectángulo&gt;" class="cls-5" x="291.86" y="248.42" width="29.21" height="156.21" transform="translate(612.93 653.05) rotate(-180)"/><rect id="_Rectángulo_15" data-name="&lt;Rectángulo&gt;" class="cls-5" x="185.45" y="353.13" width="26.7" height="167.11" transform="translate(-237.88 635.48) rotate(-90)"/></g><rect id="_Rectángulo_16" data-name="&lt;Rectángulo&gt;" class="cls-6" x="50.72" y="309.77" width="15.23" height="33.57"/><rect id="_Rectángulo_17" data-name="&lt;Rectángulo&gt;" class="cls-6" x="60.53" y="187.15" width="5.43" height="122.63"/><rect id="_Rectángulo_18" data-name="&lt;Rectángulo&gt;" class="cls-7" x="53.51" y="168.57" width="19.46" height="19.46"/><rect class="cls-4" x="95.37" y="216.97" width="197.14" height="206.54"/><polygon id="_Trazado_4" data-name="&lt;Trazado&gt;" class="cls-8" points="122.75 248.42 122.75 221.72 267.75 221.72 267.75 248.42 291.86 248.42 291.86 404.63 267.75 404.63 267.75 423.51 123.4 423.51 123.4 404.16 93.89 404.16 93.89 248.42 122.75 248.42"/><rect id="_Rectángulo_19" data-name="&lt;Rectángulo&gt;" class="cls-2" x="133.26" y="277.81" width="25.35" height="4.95"/><rect id="_Rectángulo_20" data-name="&lt;Rectángulo&gt;" class="cls-2" x="223.99" y="277.81" width="25.35" height="4.95"/><rect id="_Rectángulo_21" data-name="&lt;Rectángulo&gt;" class="cls-2" x="174.15" y="326.56" width="10.79" height="10.79"/><rect id="_Rectángulo_22" data-name="&lt;Rectángulo&gt;" class="cls-2" x="202.12" y="326.56" width="10.79" height="10.79"/><rect class="cls-2" x="134.19" y="295.83" width="6.34" height="13.94"/><rect class="cls-2" x="151.34" y="295.83" width="6.34" height="13.94"/><rect class="cls-2" x="142.13" y="287.83" width="6.34" height="22.22" transform="translate(-153.65 444.24) rotate(-90)"/><rect class="cls-2" x="224.92" y="295.83" width="6.34" height="13.94"/><rect class="cls-2" x="242.08" y="295.83" width="6.34" height="13.94"/><rect class="cls-2" x="232.86" y="287.83" width="6.34" height="22.22" transform="translate(-62.91 534.97) rotate(-90)"/><rect class="cls-1" x="160.53" y="475.15" width="15.54" height="38.54"/><rect class="cls-1" x="211.58" y="475.15" width="15.54" height="38.54"/></g><g id="_Grupo_5" data-name="&lt;Grupo&gt;"><g id="_Grupo_6" data-name="&lt;Grupo&gt;"><rect id="_Trazado_5" data-name="&lt;Trazado&gt;" class="cls-5" x="360.18" y="18.79" width="9.53" height="103.56"/><rect id="_Trazado_6" data-name="&lt;Trazado&gt;" class="cls-5" x="194.63" y="140.86" width="9.53" height="35.89"/><rect id="_Trazado_7" data-name="&lt;Trazado&gt;" class="cls-5" x="165.79" y="18.79" width="9.53" height="103.56"/><rect id="_Trazado_8" data-name="&lt;Trazado&gt;" class="cls-5" x="184.58" width="166.34" height="9.53"/><rect id="_Trazado_9" data-name="&lt;Trazado&gt;" class="cls-5" x="231.93" y="131.6" width="118.99" height="9.53"/><rect id="_Trazado_10" data-name="&lt;Trazado&gt;" class="cls-5" x="175.33" y="9.53" width="9.26" height="9.26"/><rect id="_Trazado_11" data-name="&lt;Trazado&gt;" class="cls-5" x="350.92" y="9.53" width="9.26" height="9.26"/><rect id="_Trazado_12" data-name="&lt;Trazado&gt;" class="cls-5" x="350.92" y="122.34" width="9.26" height="9.26"/><rect id="_Trazado_13" data-name="&lt;Trazado&gt;" class="cls-5" x="175.33" y="122.34" width="9.26" height="9.26"/><rect id="_Trazado_14" data-name="&lt;Trazado&gt;" class="cls-5" x="204.16" y="158.27" width="9.26" height="9.26"/><rect id="_Trazado_15" data-name="&lt;Trazado&gt;" class="cls-5" x="213.42" y="149.01" width="9.26" height="9.26"/><rect id="_Trazado_16" data-name="&lt;Trazado&gt;" class="cls-5" x="222.67" y="139.75" width="9.26" height="9.26"/><rect id="_Trazado_17" data-name="&lt;Trazado&gt;" class="cls-5" x="184.58" y="131.6" width="17.35" height="9.26"/></g><g id="_Grupo_7" data-name="&lt;Grupo&gt;"><path class="cls-5" d="M209.26,84a13.85,13.85,0,0,1-6.48-1.4,9.21,9.21,0,0,1-4.05-4.28,16.88,16.88,0,0,1-1.4-7.34,16.8,16.8,0,0,1,1.4-7.31,9.21,9.21,0,0,1,4.05-4.28,13.73,13.73,0,0,1,6.44-1.4,21.51,21.51,0,0,1,4.34.44,20,20,0,0,1,4.08,1.3v4a31.13,31.13,0,0,0-3.93-1.62,12.36,12.36,0,0,0-4-.65,9.57,9.57,0,0,0-4.59,1,6.06,6.06,0,0,0-2.73,3,13.78,13.78,0,0,0-.91,5.48,13.88,13.88,0,0,0,.92,5.47,6.25,6.25,0,0,0,2.74,3.1,9.22,9.22,0,0,0,4.42,1,14.81,14.81,0,0,0,2.53-.21,14.09,14.09,0,0,0,2.3-.59v-6h-5.29V70.15h9.44V81.7a19.57,19.57,0,0,1-4.53,1.7A20.19,20.19,0,0,1,209.26,84Z"/><path class="cls-5" d="M224.55,83.55V58.38H241v3.51H228.73v7.28h10.72v3.55H228.7V80H241v3.51Z"/><path class="cls-5" d="M246.67,83.55V58.38h4L265.2,78.5,264,80.76V58.38h4V83.55h-3.73L249.31,63l1.32-1.85V83.55Z"/><path class="cls-5" d="M274,83.55V58.38h4.19V83.55Z"/><path class="cls-5" d="M281.77,83.55l9.81-25.17H296l9.55,25.17h-4.38l-8.42-23.13,1.59-.16-8.42,23.29Zm4.83-6.83,1.21-3.4h12l.34,3.4Z"/><path class="cls-5" d="M309.17,83.55V58.38h4.19V80h12v3.54Z"/><path class="cls-5" d="M332.43,77,332,58.38h3.85L335.41,77Zm-.46,6.6V80h3.89v3.54Z"/></g></g></g></g></svg>