<svg xmlns="http://www.w3.org/2000/svg" width="492.1" height="559.5"><style>.st0{fill:#fff}.st1{fill:#75b843}.st2{fill:#f0f0f0}.st3{opacity:.15;fill:#1d1e1c}.st5{fill:#dbd9dc}</style><g id="XMLID_29_"><g id="XMLID_30_"><path id="XMLID_44_" class="st0" d="M247.6 19.8h10.1v109.3h-10.1z"/><path id="XMLID_43_" class="st0" d="M422.4 148.7h10.1v37.9h-10.1z"/><path id="XMLID_42_" class="st0" d="M452.8 19.8h10.1v109.3h-10.1z"/><path id="XMLID_41_" class="st0" d="M267.4 0H443v10.1H267.4z"/><path id="XMLID_40_" class="st0" d="M267.4 138.9H393V149H267.4z"/><path id="XMLID_39_" class="st0" d="M443 10.1h9.8v9.8H443z"/><path id="XMLID_38_" class="st0" d="M257.7 10.1h9.8v9.8h-9.8z"/><path id="XMLID_37_" class="st0" d="M257.7 129.2h9.8v9.8h-9.8z"/><path id="XMLID_36_" class="st0" d="M443 129.2h9.8v9.8H443z"/><path id="XMLID_35_" class="st0" d="M412.6 167.1h9.8v9.8h-9.8z"/><path id="XMLID_34_" class="st0" d="M402.8 157.3h9.8v9.8h-9.8z"/><path id="XMLID_33_" class="st0" d="M393.1 147.5h9.8v9.8h-9.8z"/><path id="XMLID_32_" class="st0" d="M424.7 138.9H443v9.8h-18.3z"/></g><path class="st0" d="M278.7 51.9v-3.3h3.5v3.3h-3.5zm0 19.9l.4-17.1h2.7l.4 17.1h-3.5zM293.5 57.6v8.3h-3.8V42.8h9.2c2.6 0 4.7.6 6.1 1.8 1.4 1.2 2.2 3.1 2.2 5.5s-.7 4.3-2.2 5.6c-1.4 1.3-3.5 1.9-6.1 1.9h-5.4zm0-3.2h4.9c1 0 1.8-.1 2.4-.3.6-.2 1.1-.5 1.5-.9.3-.4.6-.8.7-1.3.1-.5.2-1 .2-1.5s-.1-1.1-.2-1.6-.4-1-.7-1.4c-.3-.4-.8-.7-1.5-1-.6-.2-1.4-.3-2.4-.3h-4.9v8.3zM319 66.4c-1.7 0-3.2-.3-4.5-1-1.3-.7-2.2-1.7-2.9-3.1-.7-1.4-1-3-1-5 0-3 .7-5.3 2.1-6.9 1.4-1.6 3.4-2.3 5.9-2.3 1.9 0 3.4.4 4.5 1.2 1.2.8 2 2 2.5 3.5s.8 3.2.7 5.2h-13.7l-.1-2.7h11l-.9.9c-.1-1.8-.4-3.1-1.1-3.9-.7-.8-1.7-1.2-3.2-1.2-.9 0-1.7.2-2.4.6-.6.4-1.1 1-1.5 1.9-.3.9-.5 2.2-.5 3.8 0 1.9.5 3.4 1.4 4.4.9 1 2.2 1.5 4 1.5.8 0 1.5-.1 2.2-.2.7-.1 1.3-.3 1.9-.5.6-.2 1.1-.4 1.5-.6v3.4c-.8.3-1.7.6-2.7.8-.8.1-1.9.2-3.2.2zM330.7 65.9V50.1c.3-.2.9-.4 1.7-.8s1.8-.6 2.9-.8c1.1-.2 2.2-.4 3.4-.4.6 0 1.1 0 1.4.1.4.1.7.2.9.3v2.9c-.5-.1-1.1-.1-1.7-.2h-1.7c-.6 0-1.1.1-1.7.2-.6.1-1.1.1-1.5.2v14.2h-3.7zM351.3 66.4c-1.1 0-2.1-.1-3.1-.4-1-.3-1.9-.7-2.8-1.4-.8-.7-1.5-1.6-2-2.9-.5-1.2-.7-2.8-.7-4.8 0-2.8.7-4.9 2-6.5 1.3-1.6 3.4-2.4 6.1-2.4.4 0 1 .1 1.6.2.6.1 1.3.3 2 .5s1.2.5 1.7.8l-.9 1.2v-9.6h3.6v21.1c0 .7-.2 1.3-.7 1.9-.5.5-1 1-1.8 1.3-.7.3-1.5.6-2.4.7-.9.3-1.8.3-2.6.3zm.1-3.1c1 0 1.9-.1 2.7-.4.7-.3 1.1-.6 1.1-1v-9.7c-.6-.3-1.2-.6-1.9-.8-.7-.2-1.3-.2-1.9-.2-1.1 0-2.1.2-2.8.7-.7.5-1.3 1.1-1.6 2-.3.9-.5 1.9-.5 3.2 0 1.2.1 2.2.4 3.1.3.9.8 1.7 1.5 2.2.6.6 1.7.9 3 .9zM363.9 45.7v-3.3h3.9v3.3h-3.9zm.1 20.2V48.6h3.6v17.3H364zM388 54.4v11.5h-3.6v-11c0-.4-.1-.9-.2-1.3s-.3-.8-.6-1.2c-.3-.4-.7-.6-1.2-.8-.5-.2-1.3-.3-2.1-.3-.6 0-1.2.1-1.9.2-.6.1-1.2.3-1.8.5v14H373V50c.5-.3 1.1-.5 1.7-.7.6-.2 1.3-.4 2-.6.7-.2 1.4-.3 2.2-.4.7-.1 1.5-.1 2.2-.1 1.6 0 3 .2 4 .7 1 .5 1.8 1.1 2.3 2.1.4.8.6 2 .6 3.4zm-4.2-3.6c.7-.6 1.6-1.1 2.4-1.5.9-.4 1.8-.7 2.8-.9 1-.2 1.9-.3 2.8-.3 1.6 0 3 .2 4 .7 1 .5 1.8 1.1 2.3 2.1.5.9.7 2.1.7 3.5v11.5h-3.6v-11c0-.4-.1-.9-.2-1.3s-.3-.8-.6-1.2c-.3-.4-.7-.6-1.2-.8-.5-.2-1.3-.3-2.1-.3-.6 0-1.2.1-1.9.3-.6.2-1.2.5-1.8.9l-3.6-1.7zM411.5 66.4c-2.8 0-4.9-.8-6.3-2.4-1.4-1.6-2.1-3.9-2.1-6.8 0-3.1.7-5.5 2.1-6.9 1.4-1.5 3.5-2.2 6.2-2.2 1.9 0 3.5.4 4.8 1.1 1.2.7 2.2 1.7 2.8 3.1.6 1.4.9 3 .9 5 0 2.9-.7 5.2-2.2 6.8-1.5 1.5-3.5 2.3-6.2 2.3zm0-3c1.2 0 2.1-.3 2.8-.8.7-.5 1.2-1.2 1.5-2.2s.5-2 .5-3.2c0-1.3-.2-2.5-.5-3.4-.3-.9-.8-1.6-1.5-2-.7-.5-1.6-.7-2.8-.7-1.2 0-2.1.2-2.8.7-.7.5-1.2 1.2-1.5 2.1-.3.9-.5 2-.5 3.3 0 1.9.4 3.4 1.1 4.5.7 1.1 1.9 1.7 3.7 1.7zM429.1 66.4c-1.2 0-2.3-.1-3.2-.4-.9-.3-1.7-.6-2.5-1v-3.4c.6.4 1.2.7 1.8 1 .6.3 1.2.5 1.8.7.6.2 1.3.2 2.1.2 1 0 1.8-.2 2.3-.6.6-.4.8-.9.8-1.6 0-.5-.2-.9-.5-1.2-.4-.3-.8-.6-1.4-.8s-1.1-.4-1.7-.6c-.6-.2-1.2-.4-1.9-.6-.6-.2-1.2-.5-1.7-.9s-.9-.9-1.2-1.5c-.3-.6-.5-1.3-.5-2.2 0-1 .2-1.8.6-2.5.4-.7.9-1.2 1.5-1.7.6-.4 1.3-.7 2.1-.9.8-.2 1.5-.3 2.3-.3 1.2 0 2.2.2 3 .5.8.3 1.5.6 2.3 1v3.1c-.8-.4-1.6-.8-2.4-1.1-.7-.3-1.6-.5-2.6-.5-.9 0-1.7.2-2.3.5-.6.3-.9.8-.9 1.5 0 .6.2 1 .5 1.3.3.3.8.6 1.3.8.5.2 1.1.4 1.8.6l1.8.6c.6.2 1.2.5 1.7.8.5.4 1 .9 1.3 1.5.3.6.5 1.4.5 2.4 0 1.3-.4 2.3-1 3.2-.7.8-1.5 1.4-2.6 1.8-.8.2-1.9.3-3.1.3zM279.8 107.6h-3.6v-24h3.6v24zM291.2 108.1c-.9 0-1.8-.1-2.6-.3-.8-.2-1.6-.5-2.3-.9s-1.2-1-1.6-1.7-.6-1.6-.6-2.7c0-1.3.3-2.4.8-3.2.5-.8 1.2-1.5 2.2-1.9.9-.4 2.1-.6 3.4-.6.9 0 1.7.1 2.4.2s1.3.3 1.9.6c.6.2 1 .5 1.4.8l.4 2.4c-.5-.3-1.2-.6-2-.9s-1.8-.4-2.8-.4c-1.3 0-2.3.2-3 .7-.7.5-1 1.2-1 2.1 0 .7.2 1.3.6 1.7.4.4.9.7 1.5.9.6.2 1.2.3 1.9.3 1.4 0 2.4-.1 3-.3.6-.2 1-.6 1-1.3v-7.3c0-1.2-.4-2.1-1.1-2.7-.7-.6-1.8-.8-3.2-.8-1 0-2 .2-3 .5s-1.9.7-2.6 1.3v-3.4c.6-.4 1.6-.8 2.8-1.1 1.2-.3 2.5-.4 3.8-.4.6 0 1.3.1 2 .2s1.3.3 1.9.6c.6.3 1.1.6 1.5 1.1.5.5.8 1 1.1 1.6.3.6.4 1.4.4 2.3v8.3c0 1.1-.4 2-1.1 2.6-.7.6-1.7 1-2.9 1.2-1.3.4-2.6.5-4.2.5zM314.2 107.6V91.7c.3-.2.9-.4 1.7-.8s1.8-.6 2.9-.8c1.1-.2 2.2-.4 3.4-.4.6 0 1.1 0 1.4.1.4.1.7.2.9.3V93c-.5-.1-1.1-.1-1.7-.2h-1.7c-.6 0-1.1.1-1.7.2s-1.1.1-1.5.2v14.2h-3.7zM335.8 108.1c-1.6 0-3-.3-4.1-.8-1.1-.5-2-1.3-2.7-2.3-.6-1-.9-2.3-.9-3.9v-11h3.6v10.4c0 1.5.3 2.6 1 3.3.7.7 1.7 1.1 3.1 1.1s2.4-.4 3.1-1.1c.7-.7 1-1.8 1-3.3V90.1h3.5V101c0 2.3-.7 4.1-2 5.2-1.4 1.3-3.2 1.9-5.6 1.9zM354.7 108c-1.6 0-2.8-.4-3.7-1.2-.9-.8-1.4-2.1-1.4-3.7v-9.9h-2.8v-3h2.8v-4.9h3.7v4.9h4.2v3h-4.2v9.2c0 .8.1 1.4.4 1.8.3.4.8.6 1.6.6.4 0 .8-.1 1.2-.2.4-.1.7-.2 1-.4v3.2c-.4.2-.9.3-1.4.4-.4.2-.9.2-1.4.2zM368.1 108.1c-.9 0-1.8-.1-2.6-.3-.8-.2-1.6-.5-2.3-.9s-1.2-1-1.6-1.7-.6-1.6-.6-2.7c0-1.3.3-2.4.8-3.2.5-.8 1.2-1.5 2.2-1.9.9-.4 2.1-.6 3.4-.6.9 0 1.7.1 2.4.2s1.3.3 1.9.6c.6.2 1 .5 1.4.8l.4 2.4c-.5-.3-1.2-.6-2-.9s-1.8-.4-2.8-.4c-1.3 0-2.3.2-3 .7-.7.5-1 1.2-1 2.1 0 .7.2 1.3.6 1.7.4.4.9.7 1.5.9.6.2 1.2.3 1.9.3 1.4 0 2.4-.1 3-.3.6-.2 1-.6 1-1.3v-7.3c0-1.2-.4-2.1-1.1-2.7-.7-.6-1.8-.8-3.2-.8-1 0-2 .2-3 .5s-1.9.7-2.6 1.3v-3.4c.6-.4 1.6-.8 2.8-1.1 1.2-.3 2.5-.4 3.8-.4.6 0 1.3.1 2 .2s1.3.3 1.9.6c.6.3 1.1.6 1.5 1.1.5.5.8 1 1.1 1.6.3.6.4 1.4.4 2.3v8.3c0 1.1-.4 2-1.1 2.6-.7.6-1.7 1-2.9 1.2-1.3.4-2.6.5-4.2.5zM394.1 101.5l-.4-17.1h3.5l-.4 17.1h-2.7zm-.4 6.1v-3.3h3.6v3.3h-3.6z"/></g><g id="XMLID_1_"><path transform="rotate(52.048 421.423 357.323)" class="st1" d="M415.1 338.5h12.6v37.6h-12.6z"/><g id="XMLID_2_"><g id="XMLID_24_"><path id="XMLID_28_" class="st1" d="M424.4 444.7l58.2 22.5 9.5-24.4-10.4-4-4.6 11.8-47.1-18.2z"/><path id="XMLID_27_" class="st1" d="M380 494.1l85.7-66.9-78.2-100.3 28.6-22.3-8.5-10.8-7.4 5.8-7.3-9.4 28.1-21.9-23.4-30-30.6 23.8-17.9-23-59.6 46.5 17.5 22.5-9.3 7.3 29.6 37.9-10.4 8.1 9.2 11.8-9.8 7.7 29.6 38-14.8 11.5z"/><path id="XMLID_26_" transform="rotate(-37.957 326.742 284.842)" class="st2" d="M319.4 277.5h14.8v14.8h-14.8z"/><path id="XMLID_25_" class="st2" d="M400.3 299.5l-9.8 7.4-7.3-9.3 9.8-7.4z"/></g><path id="XMLID_22_" class="st0" d="M291.6 240.4l-37.2 28.9 5.5 7-9.8 7.6 5 6.5-11.2 8.8 6.3 8-7.4 5.7 5.9 7.6-7.8 6.1 52.8 67.7 7.8-6.1 8 10.2 8.3-6.5 7.1 9.2 60.6-47.3-4.6-5.9-17.1 13.3-6.3-8.1-9.7 7.7-64.6-82.8 10.3-8-5.5-7 13.2-10.3z"/><path id="XMLID_21_" transform="rotate(-37.957 382.167 260.653)" class="st3" d="M378.7 257.2h7v7h-7z"/><path id="XMLID_20_" transform="rotate(-37.957 396.488 249.482)" class="st3" d="M393 246h7v7h-7z"/><path id="XMLID_19_" transform="rotate(-37.957 317.11 270.657)" class="st3" d="M308.9 269.1h16.5v3.2h-16.5z"/><path id="XMLID_18_" opacity=".22" fill="#fff" d="M259.7 265.2l76.2-59.4 5.5 7 8.9-7 5 6.5 10.2-8 6.3 8 6.7-5.2 5.9 7.6 7.1-5.6 52.8 67.7-7.1 5.6 7.9 10.2-7.5 5.9 7.1 9.1-93 72.6"/><path class="st5" d="M363.3 365.6l-6.3-8.1-9.8 7.6-68.4-87.6 10.3-8-5.4-7 13.2-10.3-7.8-9.9 4.9-3.8 11.6 14.8-13.2 10.3 5.4 6.9-10.2 8 60.7 77.9 9.8-7.6 6.3 8.1 17.1-13.4 6.5 8.4-4.9 3.8-2.7-3.5z" id="XMLID_16_"/><path id="XMLID_14_" transform="rotate(-37.957 292.487 341.348)" class="st5" d="M280.4 329.2h24.3v24.3h-24.3z"/><path id="XMLID_12_" transform="rotate(-37.957 262.054 303.329)" class="st5" d="M259.1 262.7h5.9V344h-5.9z"/><path id="XMLID_10_" transform="rotate(-37.957 233.394 266.87)" fill="#ea5246" d="M227.1 260.6h12.6v12.6h-12.6z"/><path id="XMLID_8_" transform="rotate(-37.957 327.152 281.003)" fill="#3f245e" d="M322.5 276.3h9.4v9.4h-9.4z"/><path id="XMLID_7_" transform="rotate(-37.957 324.58 280.385)" class="st2" d="M323 278.8h3.2v3.2H323z"/><path id="XMLID_6_" transform="rotate(-37.957 328.639 280.656)" class="st2" d="M327.7 279.8h1.8v1.8h-1.8z"/><path id="XMLID_5_" class="st1" d="M384.9 452.9l38.4 49.3 20.7-16.1-6.9-8.8-10 7.8-31.1-39.8z"/><path id="XMLID_4_" class="st1" d="M385.4 478.2l-22.5 18.9 8.8 10.6-14.6 12.2 10 11.9-33.2 27.7-8.8-10.6 12.6-10.5-8.9-10.6 11.9-10-8.3-10 13.3-11-10.5-12.6 11.9-10-11.6-13.9 21.9-18.3z"/><path id="XMLID_3_" class="st3" d="M454.6 412.9l-48.7-62.5-21.9 17.1 6.9 8.8-7.6 6 6.8 8.8-7.3 5.7 21.1 26.9 9.1-7.2 5.7 7.4 9.2-7.2 8.2 10.6z"/></g><path transform="rotate(52.048 424.232 377.476)" class="st1" d="M417.9 362.6h12.6v29.7h-12.6z"/></g><path class="st0" d="M310.5 390.3l.7-3.7.8-3.7 7.2 1.6-.8 3.5-.6 3.6zM308.7 400.4l1.3-7.3 7.3 1.3-1.3 7.3zM306.8 410.4c.5-2.4.9-4.8 1.4-7.2l7.3 1.3c-.5 2.4-.9 4.9-1.4 7.3l-7.3-1.4zM304.7 420.3c.6-2.3 1.1-4.7 1.6-7.1l7.3 1.5c-.5 2.4-1 4.9-1.6 7.3l-7.3-1.7zM302.1 430.1c.7-2.3 1.3-4.6 1.9-7l7.2 1.8c-.6 2.4-1.3 4.9-2 7.3l-7.1-2.1zM298.9 439.5c.9-2.2 1.6-4.5 2.4-6.8l7.1 2.2c-.8 2.4-1.5 4.8-2.5 7.2l-7-2.6zM295 448.7c.5-1.1 1-2.1 1.5-3.2s1-2.2 1.4-3.3l6.9 2.8c-.5 1.2-1 2.3-1.5 3.5-.5 1.2-1 2.3-1.6 3.5l-6.7-3.3zM290.3 457.3c.7-1 1.2-2 1.8-3 .6-1 1.2-2 1.7-3.1l6.6 3.4c-.5 1.2-1.2 2.2-1.8 3.4-.7 1.1-1.2 2.3-2 3.3l-6.3-4zM284.6 465.2c.8-.9 1.4-1.8 2.2-2.8l1.1-1.4c.4-.5.7-1 1-1.5l6.1 4.2c-.4.5-.7 1.1-1.1 1.6l-1.2 1.5c-.8 1-1.5 2.1-2.4 3.1l-5.7-4.7zM277.8 472.2l2.5-2.4c.4-.4.9-.8 1.3-1.2l1.2-1.3 5.5 5-1.3 1.5c-.4.5-.9.9-1.4 1.4l-2.8 2.7-5-5.7zM270 477.8l2.9-1.8.8-.5.7-.6 1.3-1 4.6 5.8-1.5 1.2-.8.6-.8.5-3.3 2.2zM261.4 482.1c1.1-.4 2.2-.8 3.2-1.3l3.1-1.6 3.6 6.5-3.5 1.8-3.6 1.5-2.8-6.9zM252.2 485c1.2-.2 2.3-.6 3.4-.9l3.3-1 2.4 7-3.7 1.1c-1.2.4-2.5.8-3.8 1l-1.6-7.2zM242.5 486.6c2.3-.3 4.7-.4 7-1l1.4 7.3c-2.5.6-5.1.8-7.6 1.1l-.8-7.4zM232.7 487c2.4 0 4.7-.1 7.1-.2l.5 7.4c-2.6.1-5.1.2-7.7.2l.1-7.4zM222.8 486.4c1.2.1 2.4.3 3.6.3l3.6.1-.3 7.4-3.8-.2c-1.3 0-2.5-.3-3.8-.4l.7-7.2zM212.9 485l3.5.6c1.2.2 2.4.3 3.6.5l-.9 7.4c-1.3-.2-2.5-.2-3.8-.5l-3.7-.7 1.3-7.3zM203.1 483c1.2.3 2.3.5 3.5.8l1.8.4 1.8.3-1.4 7.3-1.9-.3-1.9-.4c-1.2-.3-2.5-.5-3.7-.9l1.8-7.2zM193.6 480.2c1.1.4 2.2.8 3.4 1.1 1.1.3 2.3.7 3.4 1l-2 7.1c-1.2-.3-2.4-.7-3.7-1.1l-3.6-1.2 2.5-6.9zM184.5 476.4c2.1 1 4.3 2 6.5 2.8l-2.7 6.9c-2.4-.9-4.8-1.9-7.1-3.1l3.3-6.6zM176.1 471.5c.9.7 1.9 1.3 2.9 1.9l3 1.7-3.5 6.5-3.4-1.9-3.3-2.1 4.3-6.1zM168.7 465.4c1.6 1.6 3.4 3.1 5.2 4.6l-4.5 5.9c-2.1-1.6-4.1-3.3-5.9-5.2l5.2-5.3zM162.6 458c.7.9 1.3 1.9 2 2.8l1.1 1.3 1.1 1.3-5.5 4.9-1.3-1.5-1.2-1.5c-.8-1-1.6-2.1-2.3-3.2l6.1-4.1zM158 449.6c.9 2.1 2.1 4.2 3.2 6.1l-6.3 3.8c-1.3-2.2-2.6-4.6-3.6-6.9l6.7-3zM154.5 440.5c.7 2.2 1.5 4.5 2.4 6.6l-6.9 2.8c-1-2.4-1.8-4.8-2.6-7.3l7.1-2.1zM152.1 430.8c.5 2.4 1.1 4.7 1.7 7l-7.1 2c-.7-2.5-1.3-4.9-1.8-7.4l7.2-1.6zM150.3 420.9l1.2 7.2-7.3 1.4c-.5-2.5-.9-4.9-1.3-7.4l7.4-1.2zM148.8 410.8l1 7.3-7.3 1.1-1-7.4zM147.4 400.6l1 7.4-7.3 1-1-7.3zM145.8 390.4c.4 2.5.8 4.9 1.2 7.4l-7.3 1.1c-.4-2.4-.7-4.8-1.2-7.2l7.3-1.3zM143.7 380.1c.6 2.5 1.1 4.9 1.5 7.4l-7.3 1.4c-.4-2.4-.9-4.7-1.5-7.1l7.3-1.7zM141 369.9c.8 2.4 1.5 4.9 2.1 7.3l-7.2 1.8c-.6-2.3-1.2-4.6-2-6.9l7.1-2.2zM137.3 359.9c1 2.4 1.9 4.7 2.7 7.1l-7 2.4c-.8-2.3-1.6-4.5-2.6-6.6l6.9-2.9zM132.5 350.4c1.3 2.2 2.5 4.5 3.5 6.8l-6.7 3.1c-1-2.1-2.1-4.2-3.2-6.3l6.4-3.6zM126.6 341.4c1.5 2.1 3 4.2 4.3 6.4l-6.3 3.9c-1.2-2-2.6-3.9-4-5.8l6-4.5zM119.7 333.2c.9.9 1.8 1.9 2.6 2.8.8 1 1.7 1.9 2.5 3l-5.8 4.6c-.7-.9-1.5-1.8-2.3-2.7-.8-.9-1.6-1.7-2.4-2.6l5.4-5.1zM111.9 326c2 1.6 3.9 3.3 5.7 5.1l-5.2 5.3c-1.7-1.7-3.4-3.2-5.3-4.7l4.8-5.7zM103.4 319.6c2.1 1.4 4.2 2.9 6.2 4.5l-4.6 5.8c-1.9-1.4-3.8-2.9-5.8-4.2l4.2-6.1zM94.6 314l6.3 4-4 6.2-6.2-3.9zM86.2 308.5c2 1.3 4 2.8 6 4l-4 6.2c-2.1-1.3-4.2-2.8-6.2-4.2l4.2-6zM78 302.6c2 1.4 3.9 2.9 5.9 4.3l-4.3 6c-2-1.4-4-3-6-4.4l4.4-5.9zM70 296.3l5.7 4.6-4.5 5.8-5.9-4.7zM62.4 289.7c1.8 1.6 3.6 3.2 5.5 4.8l-4.8 5.6c-1.9-1.7-3.8-3.3-5.6-4.9l4.9-5.5zM55.1 282.7c1.7 1.8 3.5 3.4 5.2 5l-5.1 5.4c-1.8-1.7-3.7-3.4-5.4-5.2l5.3-5.2zM48.2 275.4l2.4 2.7c.8.9 1.7 1.7 2.5 2.6l-5.3 5.2c-.9-.9-1.8-1.8-2.6-2.7l-2.5-2.8 5.5-5zM41.5 267.8c1.6 1.8 3.1 3.7 4.7 5.5l-5.5 4.9c-1.7-1.9-3.2-3.8-4.9-5.7l5.7-4.7zM35.3 259.9c1.4 1.9 3 3.8 4.4 5.7l-5.8 4.6c-1.5-2-3.1-4-4.6-6l6-4.3zM29.6 251.6c.7 1 1.3 2 2 3l2.1 3-6 4.3-2.2-3.1c-.7-1-1.4-2.1-2.1-3.1l6.2-4.1zM24.3 243l1.8 3.1c.6 1 1.2 2.1 1.9 3.1l-6.3 4c-.7-1-1.4-2.1-2-3.2l-1.9-3.3 6.5-3.7zM19.6 234.2c1 2.2 2.2 4.3 3.3 6.4l-6.5 3.6c-1.2-2.2-2.4-4.4-3.5-6.7l6.7-3.3zM15.5 225.1l1.4 3.3 1.5 3.3-6.7 3.1c-.5-1.1-1.1-2.3-1.6-3.4l-1.5-3.5 6.9-2.8zM12.1 215.7c.7 2.3 1.6 4.5 2.4 6.8l-6.9 2.6c-.8-2.4-1.7-4.8-2.5-7.2l7-2.2zM9.6 206.1c.5 2.3 1 4.6 1.8 6.9l-7.1 2.1c-.8-2.4-1.3-4.9-1.9-7.4l7.2-1.6zM7.9 196.4c.2 2.4.7 4.7 1 7l-7.3 1.4c-.4-2.5-.9-5-1.1-7.6l7.4-.8zM7.4 186.6c0 1.2.1 2.3.1 3.5l.1 1.8v.9l.1.9-7.4.6-.1-1v-1l-.1-1.9c0-1.3-.1-2.6-.1-3.9l7.4.1zM8.2 176.9c-.2 2.3-.7 4.6-.7 7l-7.4-.4c0-2.6.5-5.2.8-7.7l7.3 1.1zM10.5 167.5l-1 3.3c-.3 1.1-.5 2.3-.8 3.4l-7.3-1.5c.3-1.3.5-2.6.9-3.8l1.2-3.8 7 2.4zM14.5 158.8l-1.6 3c-.5 1-.9 2.1-1.3 3.2l-6.9-2.7 1.5-3.6 1.9-3.5 6.4 3.6zM20 151c-.7.9-1.5 1.7-2.2 2.6l-1.9 2.8-6.2-4 2.2-3.3c.8-1 1.7-2 2.5-3L20 151zM26.9 144.5l-1.4 1-.7.6-.6.6-2.5 2.4-5.3-5.2 2.8-2.7.8-.7.7-.6 1.6-1.3z"/></svg>