<svg xmlns="http://www.w3.org/2000/svg" width="463.8" height="643.9"><style>.st0{fill:#fff}.st1{fill:#75b843}.st2{fill:#f0f0f0}.st3{fill:#3f245e}.st4{opacity:.15;fill:#1d1e1c}.st5{opacity:.22;fill:#fff}.st6{fill:#dbd9dc}.st7{fill:#ea5246}.st8{fill:none;stroke:#fff;stroke-width:4.4444;stroke-miterlimit:10}</style><g id="XMLID_145_"><g id="XMLID_146_"><path id="XMLID_161_" class="st0" d="M452.6 22.1h11.2v121.6h-11.2z"/><path id="XMLID_160_" class="st0" d="M258.2 165.4h11.2v42.2h-11.2z"/><path id="XMLID_159_" class="st0" d="M224.3 22.1h11.2v121.6h-11.2z"/><path id="XMLID_158_" class="st0" d="M246.4 0h195.3v11.2H246.4z"/><path id="XMLID_157_" class="st0" d="M302 154.6h139.7v11.2H302z"/><path id="XMLID_155_" class="st0" d="M235.5 11.2h10.9v10.9h-10.9z"/><path id="XMLID_154_" class="st0" d="M441.7 11.2h10.9v10.9h-10.9z"/><path id="XMLID_153_" class="st0" d="M441.7 143.7h10.9v10.9h-10.9z"/><path id="XMLID_152_" class="st0" d="M235.5 143.7h10.9v10.9h-10.9z"/><path id="XMLID_151_" class="st0" d="M269.4 185.9h10.9v10.9h-10.9z"/><path id="XMLID_150_" class="st0" d="M280.2 175h10.9v10.9h-10.9z"/><path id="XMLID_149_" class="st0" d="M291.1 164.1H302V175h-10.9z"/><path id="XMLID_148_" class="st0" d="M246.4 154.6h20.4v10.9h-20.4z"/></g><path class="st0" d="M286.2 67.6V42.8h4.1v10.7h11.5V42.8h4.1v24.8h-4.1V57h-11.5v10.6h-4.1zM309.5 67.6l9.7-24.8h4.4l9.4 24.8h-4.3l-8.3-22.8 1.6-.1-8.3 23h-4.2zm4.8-6.7l1.2-3.4h11.8l.3 3.4h-13.3zM340.6 58.7v8.9h-4.1V42.8h9.8c2.8 0 5 .7 6.6 2 1.6 1.3 2.3 3.3 2.3 5.9s-.8 4.6-2.3 6c-1.6 1.4-3.7 2.1-6.6 2.1h-5.7zm0-3.5h5.2c1.1 0 1.9-.1 2.6-.4s1.2-.6 1.6-1c.4-.4.6-.9.8-1.4.1-.5.2-1.1.2-1.6 0-.6-.1-1.1-.2-1.7-.1-.5-.4-1-.8-1.5-.4-.4-.9-.8-1.6-1s-1.5-.4-2.6-.4h-5.2v9zM364.3 58.7v8.9h-4.1V42.8h9.8c2.8 0 5 .7 6.6 2 1.6 1.3 2.3 3.3 2.3 5.9s-.8 4.6-2.3 6c-1.6 1.4-3.7 2.1-6.6 2.1h-5.7zm0-3.5h5.2c1.1 0 1.9-.1 2.6-.4s1.2-.6 1.6-1c.4-.4.6-.9.8-1.4.1-.5.2-1.1.2-1.6 0-.6-.1-1.1-.2-1.7-.1-.5-.4-1-.8-1.5-.4-.4-.9-.8-1.6-1s-1.5-.4-2.6-.4h-5.2v9zM390.8 67.6V56.5l-9.3-13.7h5l7.5 11.7-1.7-.1 7.1-11.6h4.4l-9.6 14.7.6-2.3v12.4h-4zM258.8 112.3V87.5h9.2c2 0 3.6.3 4.9.8 1.3.5 2.2 1.3 2.8 2.3s.9 2.2.9 3.6c0 1.1-.2 2-.6 2.6-.4.7-.9 1.2-1.5 1.6-.6.4-1.1.8-1.7 1.1l-.5-.9c.9.2 1.8.5 2.7 1 .9.5 1.6 1.2 2.1 2.1s.8 2 .8 3.3c0 1.7-.4 3.1-1.2 4.1-.8 1.1-1.8 1.8-3.2 2.3-1.4.5-3 .7-4.7.7h-10zm4-14.5h5.6c.6 0 1.3-.1 1.9-.2.6-.2 1.1-.5 1.5-.9.4-.5.6-1.2.6-2.1 0-1.4-.4-2.3-1.2-2.8-.8-.5-1.8-.8-3.1-.8h-5.2v6.8zm.1 11.1h5.9c.9 0 1.7-.1 2.4-.3.8-.2 1.4-.6 1.8-1.2.5-.6.7-1.4.7-2.5 0-.8-.1-1.5-.4-2s-.7-.9-1.2-1.1c-.5-.3-1-.4-1.6-.5-.6-.1-1.2-.1-1.8-.1h-5.8v7.7zM282.8 112.3V87.5h4.1v24.8h-4.1zM292.8 112.3V87.5h11c2.6 0 4.6.6 5.9 1.9 1.4 1.3 2.1 3.1 2.1 5.6 0 1.3-.3 2.5-.8 3.6s-1.3 2-2.3 2.7c-1 .7-2.2 1.1-3.5 1.2l.4-1.3 7.4 11.2h-5l-6.9-11.1 1.9 1.8h-6.1v9.4h-4.1zm4.1-12.7h5.8c1.6 0 2.9-.4 3.7-1.1.8-.7 1.2-1.8 1.2-3.3 0-1.4-.3-2.4-.9-3.2-.6-.7-1.7-1.1-3.3-1.1H297v8.7zM322.9 112.3V90.9h-8v-3.5H335v3.5h-8v21.4h-4.1zM338.8 112.3V87.5h4.1v10.7h11.5V87.5h4.1v24.8h-4.1v-10.6h-11.5v10.6h-4.1zM364.3 112.3V87.5h8.7c4 0 7 1 9 3.1s2.9 5.2 2.9 9.3c0 4.1-1 7.2-2.9 9.3-2 2.1-5 3.1-9 3.1h-8.7zm4.1-3.5h4.2c2.8 0 4.8-.7 6.1-2.1 1.3-1.4 2-3.7 2-6.8 0-3.1-.7-5.4-2-6.8s-3.4-2.2-6.1-2.2h-4.2v17.9zM387.6 112.3l9.7-24.8h4.4l9.4 24.8h-4.3l-8.3-22.8 1.6-.1-8.3 23h-4.2zm4.7-6.7l1.2-3.4h11.8l.3 3.4h-13.3zM418.3 112.3v-11.1L409 87.5h5l7.5 11.7-1.7-.1 7.1-11.6h4.4l-9.6 14.7.6-2.3v12.4h-4z"/></g><g id="XMLID_7_"><path id="XMLID_144_" class="st1" d="M112 446.6H76.1v-16.9H52.9v-19H0v16.9h20.1v16.9h19v15.8h21.2v20.1h19v22.2h34.9z"/><path id="XMLID_142_" class="st1" d="M98 378.2h110.8v131.2H98z"/><path id="XMLID_141_" class="st1" d="M86.9 243.9h132.7v134.4H86.9z"/><g id="XMLID_133_"><path id="XMLID_140_" class="st2" d="M172.4 272.3h18.1v18.1h-18.1z"/><path id="XMLID_138_" class="st3" d="M178.6 276.6h11.5v11.5h-11.5z"/><path id="XMLID_135_" class="st2" d="M180.4 277.9h3.9v3.9h-3.9z"/><path id="XMLID_134_" class="st2" d="M185 282h2.2v2.2H185z"/></g><g id="XMLID_108_"><path id="XMLID_132_" class="st2" d="M114.3 272.3h18.1v18.1h-18.1z"/><path id="XMLID_130_" class="st3" d="M120.5 276.6H132v11.5h-11.5z"/><path id="XMLID_127_" class="st2" d="M122.3 277.9h3.9v3.9h-3.9z"/><path id="XMLID_126_" class="st2" d="M126.8 282h2.2v2.2h-2.2z"/></g><path id="XMLID_107_" class="st4" d="M191.6 419v-12.5h-9.9V394H126.1v12.5h-9.9V419h-9.5v38.3h11.9v10.4h11.9v15H177.3v-15h11.8v-10.4H201V419z"/><path id="XMLID_106_" class="st1" d="M125.3 509.4h14.1v41.8h-14.1z"/><path id="XMLID_105_" class="st1" d="M170.9 509.4H185v41.8h-14.1z"/><path id="XMLID_101_" class="st1" d="M120.7 536.1H144v15.2h-23.3z"/><path id="XMLID_100_" class="st1" d="M166.3 536.1h23.3v15.2h-23.3z"/><g id="XMLID_63_"><g id="XMLID_94_"><path id="XMLID_96_" class="st2" d="M185.9 346.2H117v-11.3h72.7v11.3h-3.8"/></g><path id="XMLID_92_" class="st2" d="M189.7 323.1h13.4v11.8h-13.4z"/><path id="XMLID_85_" class="st2" d="M103.4 323.1H117v11.8h-13.6z"/><path id="XMLID_84_" class="st2" d="M89.9 311.3h13.6v11.8H89.9z"/><path id="XMLID_83_" class="st2" d="M203.1 311.3h13.6v11.8h-13.6z"/></g><path id="XMLID_62_" class="st5" d="M74.3 216.1h157.2v163.4H74.3z"/><g id="XMLID_53_"><path id="XMLID_61_" class="st0" d="M74.3 198.4h161.6v21.2H74.3z"/><path id="XMLID_60_" class="st0" d="M74.3 363.1h23.2v21.2H74.3z"/><path id="XMLID_59_" class="st0" d="M212.7 363.1h23.2v21.2h-23.2z"/><path id="XMLID_58_" class="st0" d="M74.3 218.1h23.2v21.2H74.3z"/><path id="XMLID_57_" class="st0" d="M212.7 218.1h23.2v21.2h-23.2z"/><path id="XMLID_56_" class="st0" d="M51.4 239.4h23.2v124.1H51.4z"/><path id="XMLID_55_" transform="rotate(-180 243.496 301.41)" class="st0" d="M231.9 239.4h23.2v124.1h-23.2z"/><path id="XMLID_54_" transform="rotate(-90 157.953 388.933)" class="st0" d="M147.3 322.5h21.2v132.8h-21.2z"/></g><path id="XMLID_51_" class="st6" d="M40.3 288.1h12.1v26.7H40.3z"/><path id="XMLID_49_" class="st6" d="M48.1 190.7h4.3v97.4h-4.3z"/><path id="XMLID_47_" class="st7" d="M42.5 175.9H58v15.5H42.5z"/><path id="XMLID_46_" class="st1" d="M171.8 425.7h11.6v32.1h-11.6z"/><g id="XMLID_37_"><path id="XMLID_45_" class="st0" d="M184.3 131.4h6.3v6.3h-6.3z"/><path id="XMLID_44_" class="st0" d="M190.2 125.1h6.3v6.3h-6.3z"/><path id="XMLID_43_" class="st0" d="M196.5 118.8h6.3v6.3h-6.3z"/><path id="XMLID_42_" transform="rotate(-180 181.794 128.798)" class="st1" d="M178.6 125.6h6.3v6.3h-6.3z"/><path id="XMLID_41_" transform="rotate(-180 175.853 122.497)" class="st1" d="M172.7 119.3h6.3v6.3h-6.3z"/><path id="XMLID_40_" transform="rotate(-180 169.552 116.195)" class="st1" d="M166.4 113h6.3v6.3h-6.3z"/><path id="XMLID_38_" class="st7" d="M217 190.3v-6.5h-3.9v-6.9h-2.9v-6.3h-3.4v-6.4h-3.4v-6h-3.5v-6.8h-3.4v-6.8h-3.4v-6.9h-16.3v6.9h-3.6v6.8h-3.4v6.8h-3.4v6H163v6.4h-3.4v6.3H157v6.6h-4.3v6.8h-3.4v6.9h6.9v-.1V203.8h57.4v-6.6h-.1l.1-.1v.1h6.8v-6.9z"/></g><g id="XMLID_33_"><path id="XMLID_36_" class="st8" d="M17.2 642.2l17.5-63.4s70.4-29.9 78.8-29.3 82.6-.8 82.6-.8 10.8 8.6 25.6 31.6l39.5 6s9.1 21.8 27.7 56.6"/><path id="XMLID_35_" class="st8" d="M109.9 580.3H176l25.7 25.2 38.6 8.2"/><path id="XMLID_34_" class="st8" d="M58 597l-11.7 39.1"/></g><g id="XMLID_9_"><g id="XMLID_21_"><path id="XMLID_31_" class="st7" d="M155.5 414.1h71.6v20h-71.6z"/><path id="XMLID_29_" class="st7" d="M161.6 400.8h56.9v13.3h-56.9z"/><path id="XMLID_27_" class="st7" d="M169 387.4h44.5v13.3H169z"/><path id="XMLID_25_" class="st7" d="M175.7 374.1h28.8v13.3h-28.8z"/><path id="XMLID_23_" class="st7" d="M189.3 364.3h3.4v9.8h-3.4z"/><path id="XMLID_22_" transform="rotate(45.001 191.039 360.966)" class="st0" d="M188.7 358.6h4.7v4.7h-4.7z"/></g><path id="XMLID_20_" class="st0" d="M155.5 421h6.8v7.3h-6.8z"/><path id="XMLID_19_" class="st0" d="M164.7 421h6.8v7.3h-6.8z"/><path id="XMLID_18_" class="st0" d="M174 421h6.8v7.3H174z"/><path id="XMLID_17_" class="st0" d="M183.2 421h6.8v7.3h-6.8z"/><path id="XMLID_16_" class="st0" d="M192.5 421h6.8v7.3h-6.8z"/><path id="XMLID_15_" class="st0" d="M201.7 421h6.8v7.3h-6.8z"/><path id="XMLID_14_" class="st0" d="M210.9 421h6.8v7.3h-6.8z"/><path id="XMLID_12_" class="st0" d="M220.2 421h6.8v7.3h-6.8z"/><path id="XMLID_11_" class="st0" d="M141.9 433.3h98.7v7.2h-98.7z"/><path id="XMLID_10_" class="st0" d="M153.5 440.5h75.6v7.2h-75.6z"/></g><path id="XMLID_8_" transform="rotate(-90 146.883 440.246)" class="st1" d="M141.1 424.2h11.6v32.1h-11.6z"/></g><path id="XMLID_6_" class="st4" d="M105.9 262.7H126v3.9h-20.1z"/><path id="XMLID_5_" class="st4" d="M178 262.7h20.1v3.9H178z"/><path id="XMLID_4_" class="st4" d="M138.4 301.4h8.6v8.6h-8.6z"/><path id="XMLID_3_" class="st4" d="M160.6 301.4h8.6v8.6h-8.6z"/><path class="st5" d="M76.8 220.8H229v157.4H76.8z"/><path class="st6" d="M216.5 382.3H94.2v-15.4H70.8V235.6h22.9v-21.2h122.8v21.2h19.2v131.7h-19.2v15zm-114.7-7.6h107.1v-15h19.2V243.1h-19.2v-21.2H101.3v21.2H78.4v116.2h23.4v15.4z" id="XMLID_1_"/></svg>