<svg xmlns="http://www.w3.org/2000/svg" width="158" height="164.5"><style>.st0{fill:#ea5246}.st1{fill:#f0f0f0}.st2{fill:#fff}.st3{fill:#dbd9dc}.st4{fill:#3f245e}.st5{opacity:.22;fill:#fff}.st6{fill:none;stroke:#fff;stroke-width:1.0455;stroke-linecap:round;stroke-linejoin:round;stroke-miterlimit:10}</style><g id="XMLID_1_"><g id="XMLID_2_"><path id="XMLID_39_" class="st0" d="M34.3 50h97.6v98.9H34.3z"/><g id="XMLID_34_"><g id="XMLID_37_"><path id="XMLID_38_" class="st1" d="M107.1 116.8H56.4v-8.3h53.5v8.3h-2.8"/></g><path id="XMLID_36_" class="st1" d="M109.9 116.8h9.8v8.7h-9.8z"/><path id="XMLID_35_" class="st1" d="M46.4 116.8h10v8.7h-10z"/></g><g id="XMLID_25_"><path id="XMLID_33_" class="st2" d="M25 16.6h118.9v15.6H25z"/><path id="XMLID_32_" class="st2" d="M25 137.7h17.1v15.6H25z"/><path id="XMLID_31_" class="st2" d="M126.9 137.7H144v15.6h-17.1z"/><path id="XMLID_30_" class="st2" d="M25 31.1h17.1v15.6H25z"/><path id="XMLID_29_" class="st2" d="M126.9 31.1H144v15.6h-17.1z"/><path id="XMLID_28_" class="st2" d="M8.2 46.7h17.1V138H8.2z"/><path id="XMLID_27_" transform="rotate(-180 149.484 92.328)" class="st2" d="M140.9 46.7H158V138h-17.1z"/><path id="XMLID_26_" transform="rotate(-90 86.553 156.715)" class="st2" d="M78.7 107.9h15.6v97.7H78.7z"/></g><path id="XMLID_23_" class="st3" d="M0 82.5h8.9v19.6H0z"/><path id="XMLID_21_" class="st3" d="M5.7 10.9h3.2v71.7H5.7z"/><path id="XMLID_19_" class="st0" d="M1.6 0H13v11.4H1.6z"/><path id="XMLID_17_" transform="rotate(18.612 63.26 70.923)" class="st4" d="M55.8 69.5h14.8v2.9H55.8z"/><path id="XMLID_15_" transform="rotate(39.913 62.89 80.758)" class="st4" d="M55.5 79.3h14.8v2.9H55.5z"/><path id="XMLID_13_" transform="rotate(-38.817 62.892 80.759)" class="st4" d="M55.5 79.3h14.8v2.9H55.5z"/><path id="XMLID_11_" transform="rotate(39.913 101.31 80.758)" class="st4" d="M93.9 79.3h14.8v2.9H93.9z"/><path id="XMLID_9_" transform="rotate(-38.817 101.313 80.759)" class="st4" d="M93.9 79.3h14.8v2.9H93.9z"/><path id="XMLID_7_" transform="rotate(-19.87 100.727 70.906)" class="st4" d="M93.3 69.5h14.8v2.9H93.3z"/><path id="XMLID_5_" class="st4" d="M72.1 92.3h6.3v6.3h-6.3z"/><path id="XMLID_3_" class="st4" d="M88.5 92.3h6.3v6.3h-6.3z"/><path class="st5" d="M120.6 27.3h-15.3l-4.1 26.2zM81 58.7l9.4-9.9S87.8 36 86.1 28.3c-.1-.4-.2-.7-.2-1.1h-7.2L68.4 53.5 81 58.7z"/><path class="st5" d="M118.1 46l13.5 6.3-23.9 6.4 21.6 24.4L104 63.9H89.9l14.1 36.4-15.9-21.5L66 98.3l16.9-25-4.2-9.4-19.2-5.2 11.9-31.4H26.6v124.5h115.7V27.3h-1.7zM106.3 20.7L84.8 23c.2.5.4 1.5.7 2.9.1.4.2.9.3 1.4h19.5l1-6.6zM79.4 25.4h-7.3l-.7 1.9h7.2zM142.9 25.4l-21.6.9-.7 1h20z"/><path class="st6" d="M70.7 29.2L59.5 58.7l19.2 5.2 4.2 9.4-16.9 25 22.1-19.5 15.9 21.5-14.1-36.4H104l25.3 19.2-21.6-24.4 23.9-6.4-13.5-6.3 11.3-9.4-.1-7.4"/><path class="st6" d="M119.8 28.3l-18.7 26 4-26M78.6 27.3L68.4 53.5l12.8 5.2c.8-1 9.2-9.9 9.2-9.9l-3.9-21.5"/></g></g></svg>