<svg xmlns="http://www.w3.org/2000/svg" width="253.1" height="374.5"><style>.st0{fill:#75b843}.st1{fill:#f1f1f1}.st5{opacity:.15;fill:#1d1e1c}.st6{fill:#dbd9dc}.st9{fill:none;stroke:#fff;stroke-width:3.5;stroke-miterlimit:10}</style><path id="_Trazado__1_" class="st0" d="M90.9 167H43.6v21.8h9.8v-12h37.4z"/><g id="_Grupo_3_1_"><path id="_Trazado_2_1_" class="st0" d="M106.7 237.3v60.3H81.4v-10.7h12.3v-48.8z"/><path id="_Trazado_3_1_" class="st0" d="M177.8 265.8H72.9V143.1H38v-13.2h9v-11.5H12.7V81.7H50V53.6h72.9v27.5h11.4v46.4H147v14.4h12v46.4h18.1z"/><path id="_Rectángulo__1_" class="st1" d="M87 68h14.3v14.3H87z"/><path id="_Rectángulo_2_1_" class="st1" d="M82.8 107.8h11.3v10.7H82.8z"/><path id="_Rectángulo_3_1_" class="st1" d="M94.3 97.1h11.3v10.7H94.3z"/><path id="_Rectángulo_4_1_" class="st1" d="M46.9 118.4h35.9v11.4H46.9z"/></g><path id="_Trazado_4_1_" fill="#fff" d="M94.5 20.4h45.4V29h12v7.8h13.7v9.9h9v9.2h9.5v82.8h-9.5v12.5h-10.2v11.2H90.3v-7.3h20.9v-9.8h12V44.1h-12.6v-8.6H94.5z"/><path id="_Trazado_5_1_" opacity=".22" fill="#fff" d="M133.4 20.4H40.3V29H29.4v7.8H16.9v9.9H8.7v9.2H0v82.8h8.7v12.5H18v11.2h113.7"/><path id="_Trazado_6_1_" fill="none" stroke="#dbd9dc" stroke-width="5.98" stroke-miterlimit="10" d="M94.5 20.4v15.1h16.1v8.6h12.6v101.2h-12v9.8H90.3v7.3"/><path id="_Rectángulo_5_1_" class="st5" d="M34.3 86.2h6.8V93h-6.8z"/><path id="_Rectángulo_6_1_" class="st5" d="M16.7 86.2h6.8V93h-6.8z"/><path id="_Rectángulo_7_1_" class="st5" d="M95.3 60.8h15.9v3.1H95.3z"/><path id="_Rectángulo_8_1_" class="st6" d="M142 86h23.4v23.4H142z"/><path id="_Rectángulo_9_1_" class="st6" d="M151.4 11.6h5.7v78.3h-5.7z"/><path id="_Rectángulo_10_1_" fill="#dd5043" d="M148.3 0h12.2v12.2h-12.2z"/><path id="_Rectángulo_11_1_" fill="#3f245e" d="M92.3 71.4h9.1v9.1h-9.1z"/><path id="_Rectángulo_12_1_" class="st1" d="M96.8 72.4h3.1v3.1h-3.1z"/><path id="_Rectángulo_13_1_" class="st1" d="M94.6 75.6h1.8v1.8h-1.8z"/><path id="_Trazado_7_1_" class="st0" d="M149.6 237.3v60.3h-25.3v-10.7h12.3v-48.8z"/><path id="_Trazado_8_1_" class="st0" d="M164.8 213.4h28.3v-13.3h18.3v-15h41.7v13.3h-15.8v13.3h-15v12.5h-16.7V240h-15v17.5h-27.5z"/><path id="_Trazado_9_1_" class="st5" d="M72.8 248.2v-76.3h26.8v10.8h9.3v10.7h8.9v33h-11.2v8.9H95.4v12.9z"/><path id="_Trazado_10_1_" class="st0" d="M81.3 185.4H57.2v21.9H66v-12.1h15.2z"/><g id="_Grupo_4_1_"><path id="_Trazado_11_1_" class="st9" d="M6.2 373.2l13.8-50s55.5-23.6 62.1-23.1 65.1-.6 65.1-.6 8.5 6.8 20.2 24.9l31.1 4.7s7.2 17.2 21.8 44.6"/><path id="_Trazado_12_1_" class="st9" d="M79.3 324.4h52.2l20.2 19.9 30.4 6.5"/><path id="_Trazado_13_1_" class="st9" d="M38.4 337.6l-9.2 30.8"/></g></svg>